<?xml version="1.0" encoding="UTF-8" standalone="no"?>
<svg
   xmlns:dc="http://purl.org/dc/elements/1.1/"
   xmlns:cc="http://creativecommons.org/ns#"
   xmlns:rdf="http://www.w3.org/1999/02/22-rdf-syntax-ns#"
   xmlns:svg="http://www.w3.org/2000/svg"
   xmlns="http://www.w3.org/2000/svg"
   xmlns:sodipodi="http://sodipodi.sourceforge.net/DTD/sodipodi-0.dtd"
   xmlns:inkscape="http://www.inkscape.org/namespaces/inkscape"
   inkscape:version="1.0 (4035a4fb49, 2020-05-01)"
   sodipodi:docname="blank_hs.svg"
   id="svg2351"
   xml:space="preserve"
   viewBox="0 0 750 506.25"
   version="1.1"
   height="540"
   width="800"><sodipodi:namedview
   inkscape:current-layer="g2337"
   inkscape:window-maximized="1"
   inkscape:window-y="20"
   inkscape:window-x="0"
   inkscape:cy="280.49792"
   inkscape:cx="404.72945"
   inkscape:zoom="1.0568746"
   showgrid="false"
   id="namedview2353"
   inkscape:window-height="1038"
   inkscape:window-width="1918"
   inkscape:pageshadow="2"
   inkscape:pageopacity="0"
   guidetolerance="10"
   gridtolerance="10"
   objecttolerance="10"
   borderopacity="1"
   bordercolor="#666666"
   pagecolor="#ffffff"
   inkscape:document-rotation="0" /><metadata
   id="metadata8"><rdf:RDF><cc:Work
       rdf:about=""><dc:format>image/svg+xml</dc:format><dc:type
         rdf:resource="http://purl.org/dc/dcmitype/StillImage" /><dc:title></dc:title></cc:Work></rdf:RDF></metadata><defs
   id="defs1127"><clipPath
     id="e"><path
       id="path1096"
       d="M 0,4308.7 H 4308.7 V 0 H 0 Z" /></clipPath><style
     id="style1099">.cls-1{fill:url(#d);}.cls-2{fill:url(#c);}.cls-3{fill:url(#b);}.cls-4{fill:url(#a);}.cls-5,.cls-7{fill:#191919;}.cls-6,.cls-7{isolation:isolate;}.cls-7{font-size:32.5px;font-family:Titillium-Semibold, Titillium;font-weight:700;}.cls-8{letter-spacing:0em;}</style><linearGradient
     gradientUnits="userSpaceOnUse"
     gradientTransform="matrix(0.83,80.41,-667.1,6.93,93517,-23905)"
     y2="139.99001"
     y1="139.99001"
     x2="286.57999"
     x1="285.66"
     id="d"><stop
       id="stop1101"
       offset="0"
       stop-color="#333" /><stop
       id="stop1103"
       offset=".56"
       stop-color="#e6e6e6" /><stop
       id="stop1105"
       offset="1"
       stop-color="#333" /></linearGradient><linearGradient
     gradientUnits="userSpaceOnUse"
     gradientTransform="matrix(0.84,76.03,-661.87,7.29,92786,-22675)"
     y2="139.99001"
     y1="139.99001"
     x2="286.20999"
     x1="285.29001"
     id="c"><stop
       id="stop1108"
       offset="0"
       stop-color="#e6e6e6" /><stop
       id="stop1110"
       offset=".56"
       stop-color="#1a1a1a" /><stop
       id="stop1112"
       offset="1"
       stop-color="#e6e6e6" /></linearGradient><linearGradient
     gradientUnits="userSpaceOnUse"
     gradientTransform="matrix(-14.72,-123.73,380.92,-45.32,-48273,43100)"
     y2="138.77"
     y1="138.77"
     x2="297.17001"
     x1="296.51001"
     id="b"><stop
       id="stop1115"
       offset="0" /><stop
       id="stop1117"
       offset=".54"
       stop-color="#3b3b3b" /><stop
       id="stop1119"
       offset="1" /></linearGradient><radialGradient
     gradientUnits="userSpaceOnUse"
     gradientTransform="matrix(296.75,0,0,296.75,-85847,-40964)"
     r="0.50999999"
     cy="138.28"
     cx="291.01999"
     id="a"><stop
       id="stop1122"
       offset="0"
       stop-color="red" /><stop
       id="stop1124"
       offset="1"
       stop-color="#790000" /></radialGradient></defs>



<rect
   inkscape:label="white"
   style="stroke-width:1"
   y="0"
   x="0"
   id="rect1129"
   fill="#ffffff"
   ry="0"
   height="506.25"
   width="750" /><g
   id="g2337"
   inkscape:label="logos"
   style="display:inline"><text
     xml:space="preserve"
     style="font-style:normal;font-variant:normal;font-weight:normal;font-stretch:normal;font-size:50px;line-height:125%;font-family:Arial;-inkscape-font-specification:Arial;letter-spacing:0px;word-spacing:0px;display:inline;fill:#f68712;fill-opacity:1;stroke:none;stroke-width:0.9375px;stroke-linecap:butt;stroke-linejoin:miter;stroke-opacity:1"
     x="79.745399"
     y="494.24399"
     id="text4996"
     inkscape:label="division"><tspan
       sodipodi:role="line"
       id="tspan4994"
       x="79.745399"
       y="494.24399"
       style="font-style:normal;font-variant:normal;font-weight:normal;font-stretch:normal;font-size:50px;font-family:'Inria Sans';-inkscape-font-specification:'Inria Sans, Normal';font-variant-ligatures:normal;font-variant-caps:normal;font-variant-numeric:normal;font-variant-east-asian:normal;text-align:end;text-anchor:end;fill:#f68712;fill-opacity:1;stroke-width:0.9375px">HS</tspan></text><g
     inkscape:label="ae_cloud"
     id="g2063"
     transform="matrix(6.2992,0,0,6.2992,638.34,256.78)"><path
       id="path2059"
       fill="none"
       d="m 10.698,40.285 h -28.936 c -3.622,0 -6.5688,-2.9214 -6.5688,-6.5124 0,-3.591 2.9468,-6.5126 6.5691,-6.5126 0.3477,0 0.69976,0.02827 1.0491,0.0841 1.5535,-2.1763 4.0663,-3.4701 6.7602,-3.4701 0.05383,0 0.10737,0.001 0.16082,0.002 1.9723,-3.2881 5.5668,-5.323 9.4269,-5.323 4.6539,0 8.7708,2.8891 10.325,7.2162 0.40057,-0.06586 0.80795,-0.09914 1.2146,-0.09914 4.0643,0 7.3708,3.278 7.3708,7.3072 -0.001,4.0292 -3.3079,7.3077 -7.3723,7.3077 z M -18.238,27.847 c -3.2984,0 -5.9817,2.6581 -5.9817,5.9255 0,3.2674 2.6833,5.9251 5.9816,5.9251 h 28.936 c 3.7404,0 6.7835,-3.0146 6.7835,-6.72 0,-3.7053 -3.043,-6.7199 -6.7835,-6.7199 -0.45378,0 -0.90874,0.04501 -1.3521,0.13379 l -0.25432,0.05102 -0.081995,-0.2461 c -1.4061,-4.2199 -5.3648,-7.0554 -9.8509,-7.0554 -3.7098,0 -7.1612,1.9856 -9.0077,5.1819 l -0.08861,0.15342 -0.17702,-0.007 c -0.1042,-0.004 -0.20863,-0.008 -0.31388,-0.008 -2.5632,0 -4.9495,1.2595 -6.3834,3.3692 l -0.10819,0.15916 -0.18924,-0.03569 c -0.3759,-0.07067 -0.75568,-0.10667 -1.1295,-0.10667 z" /><path
       id="path2061"
       fill="#ffffff"
       d="m -19.54,39.507 c -1.5725,-0.34409 -3.2133,-1.5894 -3.9493,-2.9973 -0.9558,-1.8283 -0.85472,-4.2227 0.24848,-5.8863 0.79006,-1.1914 1.8664,-2.0114 3.1941,-2.4334 0.73013,-0.23205 1.02,-0.26746 2.0064,-0.24503 l 1.1529,0.02622 0.4588,-0.58457 c 1.3075,-1.6659 3.3563,-2.7213 5.5133,-2.8402 l 1.0241,-0.05648 0.35556,-0.59878 c 0.5056,-0.85149 2.3404,-2.6388 3.2435,-3.1594 0.99354,-0.57279 1.9359,-0.96752 2.9805,-1.2485 1.2269,-0.32997 3.7927,-0.33149 4.9898,-0.0028 2.3923,0.65652 4.5508,2.1261 5.9154,4.0272 0.42502,0.59216 1.1202,1.9259 1.3116,2.5164 l 0.12467,0.38466 1.2503,-0.04905 c 1.5382,-0.06033 2.3605,0.11073 3.5785,0.74438 2.1153,1.1005 3.583,3.4796 3.5907,5.8207 0.0028,0.88577 -0.29686,2.1359 -0.72158,3.0092 -0.51885,1.0669 -1.8946,2.4644 -2.9037,2.9496 -1.6563,0.79649 -0.089,0.72847 -17.282,0.75 -12.697,0.01588 -15.533,-0.0066 -16.082,-0.12659 z" /></g><g
     inkscape:label="rr_cloud"
     id="g2069"
     transform="matrix(6.2992,0,0,6.2992,146.3,-175.55)"><path
       id="path2065"
       fill="none"
       d="m 10.698,40.285 h -28.936 c -3.622,0 -6.5688,-2.9214 -6.5688,-6.5124 0,-3.591 2.9468,-6.5126 6.5691,-6.5126 0.3477,0 0.69976,0.02827 1.0491,0.0841 1.5535,-2.1763 4.0663,-3.4701 6.7602,-3.4701 0.05383,0 0.10737,0.001 0.16082,0.002 1.9723,-3.2881 5.5668,-5.323 9.4269,-5.323 4.6539,0 8.7708,2.8891 10.325,7.2162 0.40057,-0.06586 0.80795,-0.09914 1.2146,-0.09914 4.0643,0 7.3708,3.278 7.3708,7.3072 -0.001,4.0292 -3.3079,7.3077 -7.3723,7.3077 z M -18.238,27.847 c -3.2984,0 -5.9817,2.6581 -5.9817,5.9255 0,3.2674 2.6833,5.9251 5.9816,5.9251 h 28.936 c 3.7404,0 6.7835,-3.0146 6.7835,-6.72 0,-3.7053 -3.043,-6.7199 -6.7835,-6.7199 -0.45378,0 -0.90874,0.04501 -1.3521,0.13379 l -0.25432,0.05102 -0.081995,-0.2461 c -1.4061,-4.2199 -5.3648,-7.0554 -9.8509,-7.0554 -3.7098,0 -7.1612,1.9856 -9.0077,5.1819 l -0.08861,0.15342 -0.17702,-0.007 c -0.1042,-0.004 -0.20863,-0.008 -0.31388,-0.008 -2.5632,0 -4.9495,1.2595 -6.3834,3.3692 l -0.10819,0.15916 -0.18924,-0.03569 c -0.3759,-0.07067 -0.75568,-0.10667 -1.1295,-0.10667 z" /><path
       id="path2067"
       fill="#ffffff"
       d="m -19.54,39.507 c -1.5725,-0.34409 -3.2133,-1.5894 -3.9493,-2.9973 -0.9558,-1.8283 -0.85472,-4.2227 0.24848,-5.8863 0.79006,-1.1914 1.8664,-2.0114 3.1941,-2.4334 0.73013,-0.23205 1.02,-0.26746 2.0064,-0.24503 l 1.1529,0.02622 0.4588,-0.58457 c 1.3075,-1.6659 3.3563,-2.7213 5.5133,-2.8402 l 1.0241,-0.05648 0.35556,-0.59878 c 0.5056,-0.85149 2.3404,-2.6388 3.2435,-3.1594 0.99354,-0.57279 1.9359,-0.96752 2.9805,-1.2485 1.2269,-0.32997 3.7927,-0.33149 4.9898,-0.0028 2.3923,0.65652 4.5508,2.1261 5.9154,4.0272 0.42502,0.59216 1.1202,1.9259 1.3116,2.5164 l 0.12467,0.38466 1.2503,-0.04905 c 1.5382,-0.06033 2.3605,0.11073 3.5785,0.74438 2.1153,1.1005 3.583,3.4796 3.5907,5.8207 0.0028,0.88577 -0.29686,2.1359 -0.72158,3.0092 -0.51885,1.0669 -1.8946,2.4644 -2.9037,2.9496 -1.6563,0.79649 -0.089,0.72847 -17.282,0.75 -12.697,0.01588 -15.533,-0.0066 -16.082,-0.12659 z" /></g><g
     inkscape:label="phaenovum"
     id="g2293"
     transform="matrix(0,0.5,0.5,0,-1029.6,-540.72)"><g
       id="g2291"
       clip-path="url(#e)"><g
         id="g2081"
         transform="translate(2036.8,3291.7)"><path
           id="path2079"
           fill="#5d5452"
           d="m 0,0 c 0,-1.615 -0.439,-3.228 -0.439,-3.228 -0.064,-0.273 -0.189,-0.398 -0.42,-0.398 h -0.964 c -0.231,0 -0.356,0.125 -0.315,0.398 0,0 0.462,1.823 0.462,3.059 0,1.593 -0.65,2.726 -2.347,2.726 h -0.629 c -1.405,0 -1.845,-0.755 -2.285,-1.991 l -0.482,-1.363 c -0.504,-1.404 -1.279,-2.726 -3.522,-2.726 h -0.523 c -2.557,0 -3.836,1.761 -3.836,4.256 0,1.551 0.356,2.997 0.356,2.997 0.063,0.273 0.189,0.398 0.42,0.398 h 0.921 c 0.231,0 0.357,-0.125 0.315,-0.398 0,0 -0.336,-1.592 -0.336,-2.955 0,-1.593 0.693,-2.515 2.16,-2.515 h 0.523 c 1.027,0 1.53,0.712 1.866,1.677 l 0.482,1.341 c 0.545,1.531 1.384,3.06 3.941,3.06 h 0.629 C -1.068,4.338 0,2.577 0,0" /></g><g
         id="g2085"
         transform="translate(2036.6,3304.2)"><path
           id="path2083"
           fill="#5d5452"
           d="m 0,0 c 0,0 0.188,-0.943 0.188,-1.802 0,-2.41 -1.424,-3.669 -3.772,-3.669 h -3.354 c -2.348,0 -3.772,1.259 -3.772,3.669 0,0.985 0.188,1.802 0.188,1.802 0.042,0.272 0.209,0.399 0.44,0.399 h 0.859 c 0.231,0 0.336,-0.168 0.315,-0.419 0,0 -0.126,-0.86 -0.126,-1.677 0,-1.427 0.902,-1.991 2.096,-1.991 h 3.354 c 1.195,0 2.096,0.544 2.096,1.991 0,0.817 -0.127,1.717 -0.127,1.717 -0.02,0.252 0.085,0.379 0.315,0.379 h 0.86 C -0.21,0.399 -0.063,0.293 0,0" /></g><g
         id="g2089"
         transform="translate(2036.6,3315)"><path
           id="path2087"
           fill="#5d5452"
           d="m 0,0 v -0.985 c 0,-0.23 -0.168,-0.397 -0.398,-0.397 h -6.729 c -1.111,0 -1.866,-0.272 -1.866,-1.593 0,-0.797 0.399,-1.635 0.776,-2.284 h 7.819 C -0.168,-5.259 0,-5.428 0,-5.658 v -0.985 c 0,-0.231 -0.168,-0.399 -0.398,-0.399 h -14.086 c -0.231,0 -0.398,0.168 -0.398,0.399 v 0.985 c 0,0.23 0.167,0.399 0.398,0.399 h 4.737 c -0.461,0.585 -0.943,1.466 -0.943,2.681 0,2.224 1.363,2.977 3.563,2.977 h 6.729 C -0.168,0.399 0,0.232 0,0" /></g><g
         id="g2093"
         transform="translate(2023.5,3325.4)"><path
           id="path2091"
           fill="#5d5452"
           d="m 0,0 v -0.986 c 0,-0.23 -0.167,-0.397 -0.398,-0.397 h -0.986 c -0.23,0 -0.397,0.167 -0.397,0.397 V 0 c 0,0.231 0.167,0.399 0.397,0.399 h 0.986 C -0.167,0.399 0,0.231 0,0 m 0,-3.563 v -0.985 c 0,-0.231 -0.167,-0.399 -0.398,-0.399 h -0.986 c -0.23,0 -0.397,0.168 -0.397,0.399 v 0.985 c 0,0.23 0.167,0.398 0.397,0.398 h 0.986 C -0.167,-3.165 0,-3.333 0,-3.563 M 13.101,1.048 V 0.062 c 0,-0.23 -0.168,-0.397 -0.398,-0.397 h -0.336 c 0.461,-0.587 0.942,-1.468 0.942,-2.683 0,-2.221 -1.362,-2.977 -3.562,-2.977 H 3.019 c -0.232,0 -0.399,0.168 -0.399,0.399 v 0.985 c 0,0.23 0.167,0.399 0.399,0.399 h 6.728 c 1.11,0 1.865,0.273 1.865,1.593 0,0.795 -0.399,1.633 -0.775,2.284 H 3.019 c -0.232,0 -0.399,0.167 -0.399,0.397 v 0.986 c 0,0.231 0.167,0.399 0.399,0.399 h 9.684 c 0.23,0 0.398,-0.168 0.398,-0.399" /></g><g
         id="g2097"
         transform="translate(2036.6,3332.2)"><path
           id="path2095"
           fill="#5d5452"
           d="m 0,0 v -0.985 c 0,-0.231 -0.168,-0.399 -0.398,-0.399 h -14.086 c -0.231,0 -0.398,0.168 -0.398,0.399 V 0 c 0,0.23 0.167,0.399 0.398,0.399 H -0.398 C -0.168,0.399 0,0.23 0,0" /></g><g
         id="g2101"
         transform="translate(2030.2,3342.1)"><path
           id="path2099"
           fill="#5d5452"
           d="m 0,0 c -1.384,0 -2.767,-0.334 -2.767,-1.866 0,-1.676 1.362,-2.054 3.165,-2.074 V 0 Z m 1.802,1.32 v -5.26 c 2.201,0.042 3.185,0.985 3.185,2.515 0,1.006 -0.272,2.327 -0.272,2.327 C 4.674,1.132 4.82,1.3 5.051,1.3 h 0.88 c 0.231,0 0.356,-0.146 0.419,-0.398 0,0 0.272,-1.279 0.272,-2.39 0,-2.493 -1.445,-4.235 -5.071,-4.235 H 0.67 c -3.06,0 -4.946,1.175 -4.946,3.838 0,2.599 1.886,3.604 4.338,3.604 h 1.342 c 0.23,0 0.398,-0.168 0.398,-0.399" /></g><g
         id="g2105"
         transform="translate(2027.9,3351.9)"><path
           id="path2103"
           fill="#5d5452"
           d="m 0,0 c 0,0 -0.021,-0.021 -0.021,-0.293 0,-1.069 0.86,-1.823 1.677,-2.285 h 6.688 c 0.23,0 0.397,-0.169 0.397,-0.399 v -0.984 c 0,-0.231 -0.167,-0.399 -0.397,-0.399 h -9.685 c -0.231,0 -0.398,0.168 -0.398,0.399 v 0.984 c 0,0.23 0.167,0.399 0.398,0.399 h 0.964 c -0.796,0.356 -1.572,1.006 -1.572,2.222 0,0.148 0.042,0.356 0.042,0.356 0.042,0.251 0.189,0.356 0.419,0.356 h 1.132 C -0.125,0.356 0.021,0.231 0,0" /></g><g
         id="g2109"
         transform="translate(2023.2,3359.3)"><path
           id="path2107"
           fill="#5d5452"
           d="m 0,0 c 0,0 -0.063,-0.545 -0.063,-1.068 0,-0.483 0.23,-0.84 1.006,-0.84 h 1.928 v 1.489 c 0,0.23 0.168,0.399 0.399,0.399 h 0.671 c 0.23,0 0.397,-0.169 0.397,-0.399 v -1.489 h 8.617 c 0.23,0 0.397,-0.166 0.397,-0.399 v -0.984 c 0,-0.23 -0.167,-0.398 -0.397,-0.398 H 4.338 v -1.068 c 0,-0.232 -0.167,-0.4 -0.397,-0.4 H 3.27 c -0.231,0 -0.399,0.168 -0.399,0.4 v 1.068 h -1.99 c -1.803,0 -2.62,0.859 -2.62,2.411 0,0.713 0.146,1.278 0.146,1.278 0.063,0.273 0.209,0.398 0.44,0.398 h 0.838 C -0.084,0.398 0.021,0.251 0,0" /></g><g
         id="g2113"
         transform="translate(2029.7,3367.8)"><path
           id="path2111"
           fill="#5d5452"
           d="m 0,0 c -1.194,0 -2.2,-0.481 -2.2,-1.927 0,-1.426 1.006,-1.95 2.2,-1.95 h 3.355 c 1.194,0 2.2,0.503 2.2,1.95 C 5.555,-0.502 4.549,0 3.355,0 Z m 7.126,-1.927 c 0,-2.411 -1.424,-3.731 -3.771,-3.731 H 0 c -2.347,0 -3.772,1.32 -3.772,3.731 0,2.41 1.425,3.709 3.772,3.709 h 3.355 c 2.347,0 3.771,-1.299 3.771,-3.709" /></g><g
         id="g2117"
         transform="translate(2027.9,3377.8)"><path
           id="path2115"
           fill="#5d5452"
           d="m 0,0 c 0,0 -0.021,-0.022 -0.021,-0.293 0,-1.07 0.86,-1.825 1.677,-2.286 h 6.688 c 0.23,0 0.397,-0.167 0.397,-0.399 v -0.984 c 0,-0.23 -0.167,-0.399 -0.397,-0.399 h -9.685 c -0.231,0 -0.398,0.169 -0.398,0.399 v 0.984 c 0,0.232 0.167,0.399 0.398,0.399 h 0.964 c -0.796,0.356 -1.572,1.006 -1.572,2.222 0,0.147 0.042,0.357 0.042,0.357 0.042,0.251 0.189,0.356 0.419,0.356 h 1.132 C -0.125,0.356 0.021,0.23 0,0" /></g><g
         id="g2121"
         transform="translate(2036.8,3384.1)"><path
           id="path2119"
           fill="#5d5452"
           d="m 0,0 c 0,-1.531 -0.376,-3.124 -0.376,-3.124 -0.063,-0.251 -0.211,-0.399 -0.441,-0.399 h -0.901 c -0.231,0 -0.356,0.169 -0.314,0.399 0,0 0.397,1.803 0.397,2.956 0,1.194 -0.397,1.991 -1.445,1.991 -0.985,0 -1.258,-0.713 -1.509,-1.593 l -0.315,-1.154 c -0.336,-1.236 -0.902,-2.493 -2.871,-2.493 -2.096,0 -3.123,1.236 -3.123,3.626 0,1.362 0.272,2.578 0.272,2.578 0.063,0.252 0.188,0.399 0.419,0.399 h 0.838 c 0.231,0 0.378,-0.169 0.336,-0.399 0,0 -0.23,-1.363 -0.23,-2.536 0,-1.405 0.524,-1.887 1.34,-1.887 0.818,0 1.132,0.608 1.342,1.426 l 0.293,1.131 c 0.336,1.321 0.944,2.683 3.04,2.683 C -0.901,3.604 0,2.389 0,0" /></g><g
         id="g2125"
         transform="translate(2036.6,3396.7)"><path
           id="path2123"
           fill="#5d5452"
           d="m 0,0 c 0,0 0.188,-0.943 0.188,-1.802 0,-2.409 -1.424,-3.668 -3.772,-3.668 h -3.354 c -2.348,0 -3.772,1.259 -3.772,3.668 0,0.986 0.188,1.802 0.188,1.802 0.042,0.273 0.209,0.399 0.44,0.399 h 0.859 c 0.231,0 0.336,-0.167 0.315,-0.418 0,0 -0.126,-0.86 -0.126,-1.678 0,-1.426 0.902,-1.991 2.096,-1.991 h 3.354 c 1.195,0 2.096,0.544 2.096,1.991 0,0.818 -0.127,1.718 -0.127,1.718 -0.02,0.252 0.085,0.378 0.315,0.378 h 0.86 C -0.21,0.399 -0.063,0.295 0,0" /></g><g
         id="g2129"
         transform="translate(2036.6,3407.5)"><path
           id="path2127"
           fill="#5d5452"
           d="m 0,0 v -0.985 c 0,-0.23 -0.168,-0.397 -0.398,-0.397 h -6.729 c -1.111,0 -1.866,-0.273 -1.866,-1.593 0,-0.797 0.399,-1.635 0.776,-2.284 h 7.819 C -0.168,-5.259 0,-5.428 0,-5.658 v -0.986 c 0,-0.23 -0.168,-0.399 -0.398,-0.399 h -14.086 c -0.231,0 -0.398,0.169 -0.398,0.399 v 0.986 c 0,0.23 0.167,0.399 0.398,0.399 h 4.737 c -0.461,0.585 -0.943,1.466 -0.943,2.681 0,2.222 1.363,2.977 3.563,2.977 h 6.729 C -0.168,0.399 0,0.232 0,0" /></g><g
         id="g2133"
         transform="translate(2036.6,3419)"><path
           id="path2131"
           fill="#5d5452"
           d="m 0,0 v -0.984 c 0,-0.23 -0.168,-0.398 -0.398,-0.398 h -0.336 c 0.461,-0.587 0.942,-1.469 0.942,-2.683 0,-2.222 -1.361,-2.977 -3.562,-2.977 h -6.728 c -0.231,0 -0.399,0.168 -0.399,0.398 v 0.986 c 0,0.23 0.168,0.399 0.399,0.399 h 6.728 c 1.111,0 1.865,0.272 1.865,1.593 0,0.795 -0.399,1.634 -0.775,2.284 h -7.818 c -0.231,0 -0.399,0.168 -0.399,0.398 V 0 c 0,0.232 0.168,0.399 0.399,0.399 h 9.684 C -0.168,0.399 0,0.232 0,0" /></g><g
         id="g2137"
         transform="translate(2036.6,3430.4)"><path
           id="path2135"
           fill="#5d5452"
           d="m 0,0 v -0.985 c 0,-0.23 -0.168,-0.397 -0.398,-0.397 h -6.729 c -1.111,0 -1.866,-0.272 -1.866,-1.593 0,-0.797 0.399,-1.635 0.776,-2.284 h 7.819 C -0.168,-5.259 0,-5.428 0,-5.658 v -0.985 c 0,-0.231 -0.168,-0.399 -0.398,-0.399 h -9.684 c -0.231,0 -0.399,0.168 -0.399,0.399 v 0.985 c 0,0.23 0.168,0.399 0.399,0.399 h 0.335 c -0.461,0.585 -0.943,1.466 -0.943,2.681 0,2.224 1.363,2.977 3.563,2.977 h 6.729 C -0.168,0.399 0,0.232 0,0" /></g><g
         id="g2141"
         transform="translate(2027.7,3440.4)"><path
           id="path2139"
           fill="#5d5452"
           d="m 0,0 c -0.104,-0.65 -0.188,-1.362 -0.188,-1.886 0,-1.426 0.879,-1.991 1.99,-1.991 h 3.354 c 1.111,0 1.991,0.503 1.991,1.781 0,0.691 -0.293,1.446 -0.608,2.096 z m 13.122,-1.719 c 0,-1.635 -0.399,-3.144 -0.399,-3.144 -0.062,-0.273 -0.168,-0.377 -0.399,-0.377 h -0.88 c -0.23,0 -0.398,0.146 -0.356,0.377 0,0 0.356,1.741 0.356,2.977 C 11.444,-0.481 10.689,0 9.453,0 H 8.007 C 8.384,-0.608 8.72,-1.405 8.72,-2.306 8.72,-4.591 7.357,-5.659 5.156,-5.659 H 1.802 c -2.2,0 -3.562,1.153 -3.562,3.563 0,1.363 0.293,3.039 0.355,3.48 0.042,0.231 0.169,0.398 0.399,0.398 H 9.453 c 2.536,0 3.669,-1.006 3.669,-3.501" /></g><g
         id="g2145"
         transform="translate(2036.8,3449.2)"><path
           id="path2143"
           fill="#5d5452"
           d="m 0,0 c 0,-1.531 -0.376,-3.124 -0.376,-3.124 -0.063,-0.251 -0.211,-0.398 -0.441,-0.398 h -0.901 c -0.231,0 -0.356,0.168 -0.314,0.398 0,0 0.397,1.803 0.397,2.956 0,1.194 -0.397,1.991 -1.445,1.991 -0.985,0 -1.258,-0.713 -1.509,-1.593 l -0.315,-1.154 c -0.336,-1.236 -0.902,-2.493 -2.871,-2.493 -2.096,0 -3.123,1.236 -3.123,3.625 0,1.363 0.272,2.579 0.272,2.579 0.063,0.252 0.188,0.399 0.419,0.399 h 0.838 c 0.231,0 0.378,-0.169 0.336,-0.399 0,0 -0.23,-1.363 -0.23,-2.536 0,-1.405 0.524,-1.887 1.34,-1.887 0.818,0 1.132,0.608 1.342,1.426 l 0.293,1.131 c 0.336,1.321 0.944,2.683 3.04,2.683 C -0.901,3.604 0,2.389 0,0" /></g><g
         id="g2149"
         transform="translate(2036.6,3462.3)"><path
           id="path2147"
           fill="#5d5452"
           d="m 0,0 v -6.225 c 0,-0.231 -0.168,-0.397 -0.398,-0.397 h -1.175 l -7.336,4.798 v -4.401 c 0,-0.231 -0.167,-0.397 -0.397,-0.397 h -0.776 c -0.231,0 -0.399,0.166 -0.399,0.397 V 0 c 0,0.231 0.168,0.399 0.399,0.399 h 1.173 l 7.336,-4.801 V 0 c 0,0.231 0.168,0.399 0.398,0.399 h 0.777 C -0.168,0.399 0,0.231 0,0" /></g><g
         id="g2153"
         transform="translate(2030.2,3471.6)"><path
           id="path2151"
           fill="#5d5452"
           d="m 0,0 c -1.384,0 -2.767,-0.334 -2.767,-1.865 0,-1.677 1.362,-2.054 3.165,-2.075 V 0 Z M 1.802,1.321 V -3.94 c 2.201,0.041 3.185,0.985 3.185,2.516 0,1.006 -0.272,2.326 -0.272,2.326 C 4.674,1.133 4.82,1.3 5.051,1.3 h 0.88 c 0.231,0 0.356,-0.147 0.419,-0.398 0,0 0.272,-1.278 0.272,-2.39 0,-2.493 -1.445,-4.234 -5.071,-4.234 H 0.67 c -3.06,0 -4.946,1.174 -4.946,3.837 0,2.599 1.886,3.605 4.338,3.605 h 1.342 c 0.23,0 0.398,-0.169 0.398,-0.399" /></g><g
         id="g2157"
         transform="translate(2036.6,3484.1)"><path
           id="path2155"
           fill="#5d5452"
           d="m 0,0 v -0.984 c 0,-0.232 -0.168,-0.398 -0.398,-0.398 h -6.729 c -1.111,0 -1.866,-0.273 -1.866,-1.593 0,-0.796 0.399,-1.635 0.776,-2.284 h 7.819 C -0.168,-5.259 0,-5.428 0,-5.658 v -0.986 c 0,-0.23 -0.168,-0.398 -0.398,-0.398 h -9.684 c -0.231,0 -0.399,0.168 -0.399,0.398 v 0.986 c 0,0.23 0.168,0.399 0.399,0.399 h 0.335 c -0.461,0.585 -0.943,1.466 -0.943,2.682 0,2.221 1.363,2.976 3.563,2.976 h 6.729 C -0.168,0.399 0,0.231 0,0" /></g><g
         id="g2161"
         transform="translate(2036.6,3493.3)"><path
           id="path2159"
           fill="#5d5452"
           d="m 0,0 c 0,0 0.166,-1.048 0.166,-1.801 0,-1.404 -0.711,-2.516 -2.829,-2.516 h -6.393 v -1.069 c 0,-0.23 -0.167,-0.399 -0.398,-0.399 h -0.67 c -0.231,0 -0.399,0.169 -0.399,0.399 v 1.069 h -2.326 c -0.23,0 -0.399,0.168 -0.399,0.398 v 0.986 c 0,0.231 0.169,0.397 0.399,0.397 h 2.326 V 0 c 0,0.231 0.168,0.399 0.399,0.399 h 0.67 c 0.231,0 0.398,-0.168 0.398,-0.399 v -2.536 h 6.435 c 0.776,0 1.216,0.42 1.216,1.112 0,0.671 -0.146,1.487 -0.146,1.487 -0.022,0.232 0.082,0.336 0.314,0.336 h 0.838 C -0.169,0.399 -0.022,0.251 0,0" /></g><g
         id="g2165"
         transform="translate(2027.9,3500.9)"><path
           id="path2163"
           fill="#5d5452"
           d="m 0,0 c 0,0 -0.021,-0.02 -0.021,-0.293 0,-1.069 0.86,-1.823 1.677,-2.284 h 6.688 c 0.23,0 0.397,-0.169 0.397,-0.399 v -0.985 c 0,-0.231 -0.167,-0.399 -0.397,-0.399 h -9.685 c -0.231,0 -0.398,0.168 -0.398,0.399 v 0.985 c 0,0.23 0.167,0.399 0.398,0.399 h 0.964 c -0.796,0.355 -1.572,1.006 -1.572,2.22 0,0.148 0.042,0.357 0.042,0.357 0.042,0.252 0.189,0.356 0.419,0.356 h 1.132 C -0.125,0.356 0.021,0.231 0,0" /></g><g
         id="g2169"
         transform="translate(2036.6,3511.3)"><path
           id="path2167"
           fill="#5d5452"
           d="m 0,0 v -0.985 c 0,-0.23 -0.168,-0.397 -0.398,-0.397 h -0.336 c 0.461,-0.587 0.942,-1.469 0.942,-2.683 0,-2.222 -1.361,-2.978 -3.562,-2.978 h -6.728 c -0.231,0 -0.399,0.169 -0.399,0.399 v 0.986 c 0,0.23 0.168,0.399 0.399,0.399 h 6.728 c 1.111,0 1.865,0.272 1.865,1.593 0,0.795 -0.399,1.633 -0.775,2.284 h -7.818 c -0.231,0 -0.399,0.167 -0.399,0.397 V 0 c 0,0.232 0.168,0.399 0.399,0.399 h 9.684 C -0.168,0.399 0,0.232 0,0" /></g><g
         id="g2173"
         transform="translate(2036.6,3528.4)"><path
           id="path2171"
           fill="#5d5452"
           d="m 0,0 v -0.985 c 0,-0.232 -0.168,-0.399 -0.398,-0.399 h -6.729 c -1.111,0 -1.866,-0.272 -1.866,-1.592 0,-0.859 0.483,-1.698 0.965,-2.328 0.273,0.042 0.586,0.042 0.901,0.042 h 6.729 C -0.168,-5.262 0,-5.428 0,-5.661 v -0.984 c 0,-0.23 -0.168,-0.398 -0.398,-0.398 h -6.729 c -1.111,0 -1.866,-0.272 -1.866,-1.593 0,-0.796 0.399,-1.635 0.776,-2.284 h 7.819 c 0.23,0 0.398,-0.169 0.398,-0.399 v -0.985 c 0,-0.23 -0.168,-0.399 -0.398,-0.399 h -9.684 c -0.231,0 -0.399,0.169 -0.399,0.399 v 0.985 c 0,0.23 0.168,0.399 0.399,0.399 h 0.335 c -0.461,0.586 -0.943,1.466 -0.943,2.682 0,1.321 0.461,2.117 1.32,2.558 -0.545,0.524 -1.32,1.53 -1.32,3.102 0,2.199 1.363,2.975 3.563,2.975 h 6.729 C -0.168,0.397 0,0.23 0,0" /></g><g
         id="g2177"
         transform="translate(2061.8,3295.4)"><path
           id="path2175"
           fill="#5d5452"
           d="m 0,0 v -6.644 c 0,-0.23 -0.168,-0.399 -0.398,-0.399 h -14.086 c -0.231,0 -0.398,0.169 -0.398,0.399 v 0.986 c 0,0.23 0.167,0.399 0.398,0.399 H -1.678 V 0 c 0,0.232 0.169,0.399 0.399,0.399 h 0.881 C -0.168,0.399 0,0.232 0,0" /></g><g
         id="g2181"
         transform="translate(2048.7,3304)"><path
           id="path2179"
           fill="#5d5452"
           d="m 0,0 v -0.984 c 0,-0.232 -0.168,-0.399 -0.398,-0.399 h -0.985 c -0.232,0 -0.398,0.167 -0.398,0.399 V 0 c 0,0.23 0.166,0.398 0.398,0.398 h 0.985 C -0.168,0.398 0,0.23 0,0 m 6.183,-0.335 c -1.194,0 -2.201,-0.483 -2.201,-1.929 0,-1.425 1.007,-1.95 2.201,-1.95 h 3.354 c 1.195,0 2.201,0.504 2.201,1.95 0,1.426 -1.006,1.929 -2.201,1.929 z M 0,-3.563 v -0.986 c 0,-0.23 -0.168,-0.398 -0.398,-0.398 h -0.985 c -0.232,0 -0.398,0.168 -0.398,0.398 v 0.986 c 0,0.231 0.166,0.397 0.398,0.397 h 0.985 C -0.168,-3.166 0,-3.332 0,-3.563 m 13.309,1.299 c 0,-2.409 -1.424,-3.731 -3.772,-3.731 H 6.183 c -2.348,0 -3.772,1.322 -3.772,3.731 0,2.41 1.424,3.71 3.772,3.71 h 3.354 c 2.348,0 3.772,-1.3 3.772,-3.71" /></g><g
         id="g2185"
         transform="translate(2053,3313.7)"><path
           id="path2183"
           fill="#5d5452"
           d="m 0,0 c 0,0 -0.021,-0.022 -0.021,-0.293 0,-1.07 0.859,-1.825 1.676,-2.285 h 6.689 c 0.229,0 0.397,-0.169 0.397,-0.398 v -0.986 c 0,-0.23 -0.168,-0.399 -0.397,-0.399 H -1.34 c -0.233,0 -0.399,0.169 -0.399,0.399 v 0.986 c 0,0.229 0.166,0.398 0.399,0.398 h 0.963 c -0.797,0.355 -1.572,1.005 -1.572,2.221 0,0.147 0.042,0.357 0.042,0.357 0.042,0.251 0.188,0.356 0.418,0.356 h 1.133 C -0.126,0.356 0.021,0.23 0,0" /></g><g
         id="g2189"
         transform="translate(2053,3321.3)"><path
           id="path2187"
           fill="#5d5452"
           d="m 0,0 c 0,0 -0.021,-0.022 -0.021,-0.295 0,-1.068 0.859,-1.823 1.676,-2.284 h 6.689 c 0.229,0 0.397,-0.168 0.397,-0.399 v -0.984 c 0,-0.23 -0.168,-0.399 -0.397,-0.399 H -1.34 c -0.233,0 -0.399,0.169 -0.399,0.399 v 0.984 c 0,0.231 0.166,0.399 0.399,0.399 h 0.963 c -0.797,0.356 -1.572,1.006 -1.572,2.222 0,0.147 0.042,0.357 0.042,0.357 0.042,0.251 0.188,0.354 0.418,0.354 h 1.133 C -0.126,0.354 0.021,0.23 0,0" /></g><g
         id="g2193"
         transform="translate(2057.2,3329.9)"><path
           id="path2191"
           fill="#5d5452"
           d="m 0,0 v -2.096 c 0,-1.279 0.565,-1.782 1.677,-1.782 0.922,0 1.467,0.524 1.467,1.572 0,0.755 -0.356,1.615 -0.713,2.306 z M 4.507,1.384 V 0.399 C 4.507,0.168 4.339,0 4.109,0 H 3.877 c 0.441,-0.649 0.838,-1.509 0.838,-2.515 0,-2.012 -1.09,-3.144 -3.038,-3.144 -2.202,0 -3.186,1.236 -3.186,3.521 0,0.734 0.105,2.138 0.105,2.138 h -1.111 c -1.236,0 -1.992,-0.483 -1.992,-1.886 0,-1.362 0.335,-2.747 0.335,-2.747 0.064,-0.293 -0.103,-0.397 -0.335,-0.397 h -0.797 c -0.23,0 -0.376,0.147 -0.439,0.397 0,0 -0.44,1.195 -0.44,2.914 0,2.474 1.236,3.501 3.668,3.501 h 6.624 c 0.23,0 0.398,-0.168 0.398,-0.398" /></g><g
         id="g2197"
         transform="translate(2061.8,3341.1)"><path
           id="path2195"
           fill="#5d5452"
           d="m 0,0 c 0,0 0.188,-0.944 0.188,-1.803 0,-2.409 -1.424,-3.668 -3.772,-3.668 h -3.354 c -2.348,0 -3.772,1.259 -3.772,3.668 0,0.986 0.188,1.803 0.188,1.803 0.042,0.272 0.209,0.399 0.439,0.399 h 0.86 c 0.23,0 0.336,-0.168 0.316,-0.42 0,0 -0.127,-0.859 -0.127,-1.676 0,-1.427 0.901,-1.992 2.096,-1.992 h 3.354 c 1.195,0 2.096,0.545 2.096,1.992 0,0.817 -0.127,1.717 -0.127,1.717 -0.02,0.252 0.085,0.379 0.315,0.379 h 0.86 C -0.21,0.399 -0.063,0.293 0,0" /></g><g
         id="g2201"
         transform="translate(2061.8,3351.9)"><path
           id="path2199"
           fill="#5d5452"
           d="m 0,0 v -0.985 c 0,-0.23 -0.168,-0.397 -0.398,-0.397 h -6.73 c -1.11,0 -1.865,-0.273 -1.865,-1.593 0,-0.797 0.399,-1.635 0.775,-2.284 h 7.82 C -0.168,-5.259 0,-5.428 0,-5.658 v -0.986 c 0,-0.23 -0.168,-0.399 -0.398,-0.399 h -14.086 c -0.231,0 -0.398,0.169 -0.398,0.399 v 0.986 c 0,0.23 0.167,0.399 0.398,0.399 h 4.737 c -0.461,0.585 -0.943,1.466 -0.943,2.681 0,2.222 1.362,2.977 3.562,2.977 h 6.73 C -0.168,0.399 0,0.232 0,0" /></g><g
         id="g2205"
         transform="translate(2055.2,3364.4)"><path
           id="path2203"
           fill="#5d5452"
           d="m 0,0 v -7.41 c 0,-0.186 -0.167,-0.32 -0.397,-0.32 h -0.777 c -0.23,0 -0.399,0.134 -0.399,0.32 V 0 c 0,0.184 0.169,0.319 0.399,0.319 h 0.777 C -0.167,0.319 0,0.184 0,0" /></g><g
         id="g2209"
         transform="translate(2051.7,3376.4)"><path
           id="path2207"
           fill="#5d5452"
           d="m 0,0 c -1.613,0 -3.144,-0.755 -3.144,-2.829 v -2.83 H 8.384 v 2.83 C 8.384,-0.755 6.855,0 5.24,0 Z m 10.062,-2.829 v -4.214 c 0,-0.23 -0.167,-0.399 -0.397,-0.399 H -4.422 c -0.231,0 -0.398,0.169 -0.398,0.399 v 4.214 c 0,3.206 2.033,4.61 4.82,4.61 h 5.24 c 2.788,0 4.822,-1.404 4.822,-4.61" /></g><g
         id="g2213"
         transform="translate(2053,3386.6)"><path
           id="path2211"
           fill="#5d5452"
           d="m 0,0 c 0,0 -0.021,-0.02 -0.021,-0.293 0,-1.07 0.859,-1.823 1.676,-2.284 h 6.689 c 0.229,0 0.397,-0.169 0.397,-0.399 V -3.961 C 8.741,-4.192 8.573,-4.36 8.344,-4.36 H -1.34 c -0.233,0 -0.399,0.168 -0.399,0.399 v 0.985 c 0,0.23 0.166,0.399 0.399,0.399 h 0.963 c -0.797,0.355 -1.572,1.006 -1.572,2.22 0,0.148 0.042,0.357 0.042,0.357 0.042,0.252 0.188,0.356 0.418,0.356 h 1.133 C -0.126,0.356 0.021,0.231 0,0" /></g><g
         id="g2217"
         transform="translate(2055.3,3395.4)"><path
           id="path2215"
           fill="#5d5452"
           d="m 0,0 c -1.383,0 -2.768,-0.335 -2.768,-1.866 0,-1.676 1.363,-2.054 3.166,-2.075 V 0 Z m 1.803,1.32 v -5.261 c 2.2,0.042 3.185,0.986 3.185,2.516 0,1.006 -0.272,2.327 -0.272,2.327 C 4.674,1.132 4.82,1.3 5.051,1.3 h 0.88 c 0.231,0 0.356,-0.147 0.42,-0.398 0,0 0.271,-1.279 0.271,-2.39 0,-2.493 -1.445,-4.235 -5.071,-4.235 h -0.88 c -3.06,0 -4.947,1.175 -4.947,3.838 0,2.598 1.887,3.604 4.338,3.604 h 1.342 c 0.23,0 0.399,-0.168 0.399,-0.399" /></g><g
         id="g2221"
         transform="translate(2061.8,3402.2)"><path
           id="path2219"
           fill="#5d5452"
           d="m 0,0 v -0.985 c 0,-0.231 -0.168,-0.399 -0.398,-0.399 h -9.683 c -0.233,0 -0.399,0.168 -0.399,0.399 V 0 c 0,0.23 0.166,0.399 0.399,0.399 h 9.683 C -0.168,0.399 0,0.23 0,0 m -13.101,0 v -0.985 c 0,-0.231 -0.168,-0.399 -0.398,-0.399 h -0.985 c -0.231,0 -0.398,0.168 -0.398,0.399 V 0 c 0,0.23 0.167,0.399 0.398,0.399 h 0.985 c 0.23,0 0.398,-0.169 0.398,-0.399" /></g><g
         id="g2225"
         transform="translate(2061.8,3408)"><path
           id="path2223"
           fill="#5d5452"
           d="m 0,0 v -0.986 c 0,-0.23 -0.168,-0.399 -0.398,-0.399 h -14.086 c -0.231,0 -0.398,0.169 -0.398,0.399 V 0 c 0,0.23 0.167,0.399 0.398,0.399 H -0.398 C -0.168,0.399 0,0.23 0,0" /></g><g
         id="g2229"
         transform="translate(2048.7,3418.1)"><path
           id="path2227"
           fill="#5d5452"
           d="m 0,0 v -0.986 c 0,-0.231 -0.168,-0.397 -0.398,-0.397 h -0.985 c -0.232,0 -0.398,0.166 -0.398,0.397 V 0 c 0,0.23 0.166,0.398 0.398,0.398 h 0.985 C -0.168,0.398 0,0.23 0,0 m 8.594,-0.441 v -2.096 c 0,-1.279 0.565,-1.782 1.677,-1.782 0.922,0 1.467,0.525 1.467,1.573 0,0.754 -0.356,1.614 -0.713,2.305 z M 0,-3.564 v -0.985 c 0,-0.23 -0.168,-0.398 -0.398,-0.398 h -0.985 c -0.232,0 -0.398,0.168 -0.398,0.398 v 0.985 c 0,0.231 0.166,0.398 0.398,0.398 h 0.985 C -0.168,-3.166 0,-3.333 0,-3.564 m 13.101,4.507 v -0.985 c 0,-0.231 -0.168,-0.399 -0.398,-0.399 h -0.232 c 0.44,-0.649 0.838,-1.509 0.838,-2.515 0,-2.012 -1.09,-3.144 -3.038,-3.144 -2.202,0 -3.187,1.236 -3.187,3.523 0,0.733 0.106,2.136 0.106,2.136 H 6.078 c -1.236,0 -1.991,-0.482 -1.991,-1.885 0,-1.363 0.335,-2.746 0.335,-2.746 C 4.485,-5.367 4.319,-5.47 4.087,-5.47 H 3.29 c -0.23,0 -0.376,0.146 -0.439,0.398 0,0 -0.44,1.195 -0.44,2.913 0,2.473 1.236,3.501 3.667,3.501 h 6.625 c 0.23,0 0.398,-0.169 0.398,-0.399" /></g><g
         id="g2233"
         transform="translate(2061.8,3430.4)"><path
           id="path2231"
           fill="#5d5452"
           d="m 0,0 v -0.985 c 0,-0.231 -0.168,-0.397 -0.398,-0.397 h -6.73 c -1.11,0 -1.865,-0.273 -1.865,-1.593 0,-0.797 0.399,-1.635 0.775,-2.284 h 7.82 C -0.168,-5.259 0,-5.428 0,-5.658 v -0.986 c 0,-0.23 -0.168,-0.399 -0.398,-0.399 h -9.683 c -0.233,0 -0.399,0.169 -0.399,0.399 v 0.986 c 0,0.23 0.166,0.399 0.399,0.399 h 0.334 c -0.461,0.585 -0.943,1.466 -0.943,2.682 0,2.221 1.362,2.976 3.562,2.976 h 6.73 C -0.168,0.399 0,0.231 0,0" /></g><g
         id="g2237"
         transform="translate(2053.2,3440.5)"><path
           id="path2235"
           fill="#5d5452"
           d="m 0,0 c -0.273,-0.65 -0.525,-1.405 -0.525,-2.096 0,-1.278 0.881,-1.781 1.991,-1.781 H 5.24 c 1.11,0 1.991,0.503 1.991,1.781 0,0.691 -0.294,1.446 -0.608,2.096 z M 8.594,1.382 V 0.398 C 8.594,0.168 8.426,0 8.196,0 H 8.091 C 8.467,-0.608 8.802,-1.405 8.802,-2.306 8.802,-4.591 7.44,-5.66 5.24,-5.66 H 1.466 c -2.2,0 -3.562,1.069 -3.562,3.354 0,0.901 0.293,1.698 0.627,2.306 h -4.422 c -0.231,0 -0.397,0.168 -0.397,0.398 v 0.984 c 0,0.233 0.166,0.399 0.397,0.399 H 8.196 c 0.23,0 0.398,-0.166 0.398,-0.399" /></g><g
         id="g2241"
         transform="translate(2055.3,3451.8)"><path
           id="path2239"
           fill="#5d5452"
           d="m 0,0 c -1.383,0 -2.768,-0.334 -2.768,-1.866 0,-1.676 1.363,-2.053 3.166,-2.074 V 0 Z M 1.803,1.321 V -3.94 c 2.2,0.041 3.185,0.985 3.185,2.516 0,1.005 -0.272,2.326 -0.272,2.326 C 4.674,1.132 4.82,1.3 5.051,1.3 h 0.88 c 0.231,0 0.356,-0.146 0.42,-0.398 0,0 0.271,-1.278 0.271,-2.39 0,-2.493 -1.445,-4.233 -5.071,-4.233 h -0.88 c -3.06,0 -4.947,1.173 -4.947,3.836 0,2.599 1.887,3.605 4.338,3.605 h 1.342 c 0.23,0 0.399,-0.169 0.399,-0.399" /></g><g
         id="g2245"
         transform="translate(2053,3461.6)"><path
           id="path2243"
           fill="#5d5452"
           d="m 0,0 c 0,0 -0.021,-0.021 -0.021,-0.295 0,-1.068 0.859,-1.822 1.676,-2.284 h 6.689 c 0.229,0 0.397,-0.167 0.397,-0.399 v -0.984 c 0,-0.23 -0.168,-0.399 -0.397,-0.399 H -1.34 c -0.233,0 -0.399,0.169 -0.399,0.399 v 0.984 c 0,0.232 0.166,0.399 0.399,0.399 h 0.963 c -0.797,0.356 -1.572,1.006 -1.572,2.222 0,0.148 0.042,0.357 0.042,0.357 0.042,0.252 0.188,0.355 0.418,0.355 h 1.133 C -0.126,0.355 0.021,0.23 0,0" /></g><g
         id="g2249"
         transform="translate(2055.3,3470.4)"><path
           id="path2247"
           fill="#5d5452"
           d="m 0,0 c -1.383,0 -2.768,-0.334 -2.768,-1.865 0,-1.677 1.363,-2.054 3.166,-2.076 V 0 Z m 1.803,1.321 v -5.262 c 2.2,0.042 3.185,0.986 3.185,2.517 0,1.006 -0.272,2.326 -0.272,2.326 C 4.674,1.133 4.82,1.3 5.051,1.3 h 0.88 c 0.231,0 0.356,-0.147 0.42,-0.398 0,0 0.271,-1.278 0.271,-2.39 0,-2.493 -1.445,-4.234 -5.071,-4.234 h -0.88 c -3.06,0 -4.947,1.174 -4.947,3.837 0,2.599 1.887,3.605 4.338,3.605 h 1.342 c 0.23,0 0.399,-0.169 0.399,-0.399" /></g><g
         id="g2253"
         transform="translate(2061.8,3481.4)"><path
           id="path2251"
           fill="#5d5452"
           d="m 0,0 c 0,0 0.188,-0.944 0.188,-1.802 0,-2.41 -1.424,-3.669 -3.772,-3.669 h -3.354 c -2.348,0 -3.772,1.259 -3.772,3.669 0,0.985 0.188,1.802 0.188,1.802 0.042,0.272 0.209,0.399 0.439,0.399 h 0.86 c 0.23,0 0.336,-0.168 0.316,-0.419 0,0 -0.127,-0.86 -0.127,-1.677 0,-1.427 0.901,-1.992 2.096,-1.992 h 3.354 c 1.195,0 2.096,0.545 2.096,1.992 0,0.817 -0.127,1.718 -0.127,1.718 -0.02,0.251 0.085,0.378 0.315,0.378 h 0.86 C -0.21,0.399 -0.063,0.293 0,0" /></g><g
         id="g2257"
         transform="translate(2061.8,3492.1)"><path
           id="path2255"
           fill="#5d5452"
           d="m 0,0 v -1.195 c 0,-0.23 -0.189,-0.398 -0.379,-0.524 l -5.491,-3.312 -4.211,3.039 c -0.191,0.127 -0.399,0.337 -0.399,0.567 v 1.195 c 0,0.23 0.208,0.356 0.399,0.23 l 4.211,-3.039 5.491,3.312 C -0.189,0.397 0,0.231 0,0 M 0,-5.554 V -6.54 c 0,-0.23 -0.168,-0.398 -0.398,-0.398 h -14.086 c -0.231,0 -0.398,0.168 -0.398,0.398 v 0.986 c 0,0.23 0.167,0.399 0.398,0.399 H -0.398 C -0.168,-5.155 0,-5.324 0,-5.554" /></g><g
         id="g2261"
         transform="translate(1973,3171.1)"><path
           id="path2259"
           fill="#5d5452"
           d="m 0,0 c -3.814,0 -6.484,-1.526 -6.484,-5.722 0,-2.06 0.762,-4.425 1.754,-6.486 h 22.506 v 5.874 C 17.776,-1.756 15.259,0 11.444,0 Z m 25.025,-5.798 c 0,-1.45 -0.229,-3.967 -0.535,-6.41 h 13.582 c 0.837,0 1.448,-0.61 1.448,-1.449 v -5.494 c 0,-0.839 -0.611,-1.449 -1.448,-1.449 h -49.745 c -0.839,0 -1.451,0.61 -1.451,1.449 v 5.113 c 0,0.839 0.612,1.449 1.451,1.449 h 0.381 c -1.449,2.365 -2.594,5.341 -2.594,8.621 0,8.469 5.188,12.36 13.351,12.36 h 12.208 c 8.468,0 13.352,-4.73 13.352,-14.19" /></g><g
         id="g2265"
         transform="translate(1998,3217.7)"><path
           id="path2263"
           fill="#5d5452"
           d="m 0,0 v -5.494 c 0,-0.839 -0.609,-1.449 -1.449,-1.449 h -23.728 c -3.586,0 -5.875,-1.068 -5.875,-5.111 0,-2.367 1.068,-4.96 2.213,-7.097 h 27.39 c 0.84,0 1.449,-0.609 1.449,-1.448 v -5.495 c 0,-0.838 -0.609,-1.448 -1.449,-1.448 H -51.77 c -0.84,0 -1.449,0.61 -1.449,1.448 v 5.495 c 0,0.839 0.609,1.448 1.449,1.448 h 15.912 c -1.603,2.213 -3.053,5.341 -3.053,9.462 0,8.316 5.035,11.138 12.972,11.138 h 24.49 C -0.609,1.449 0,0.839 0,0" /></g><g
         id="g2269"
         transform="translate(1974.7,3270)"><path
           id="path2267"
           fill="#f68712"
           d="m 0,0 c -4.731,0 -8.544,-1.144 -8.544,-6.027 0,-5.264 3.89,-6.56 9.765,-6.638 V 0 Z m 7.401,-21.056 v -6.41 c 0,-4.119 1.754,-5.799 5.036,-5.799 2.898,0 4.577,1.68 4.577,5.037 0,2.822 -1.374,5.951 -2.748,8.392 -1.983,-0.686 -4.195,-1.068 -6.865,-1.22 M 7.478,6.485 v -19.072 c 6.103,0.381 8.925,3.127 8.925,8.316 0,3.89 -0.99,9.231 -0.99,9.231 -0.154,0.839 0.381,1.45 1.22,1.45 h 4.883 c 0.84,0 1.296,-0.534 1.525,-1.45 0,0 1.069,-5.112 1.069,-9.69 0,-5.416 -1.679,-9.842 -5.418,-12.742 2.213,-2.44 5.418,-6.941 5.418,-12.434 0,-7.401 -3.739,-11.75 -11.445,-11.75 -7.859,0 -11.749,4.806 -11.749,13.275 0,2.822 0.152,5.264 0.457,7.325 h -3.051 c -3.968,0 -6.104,-1.756 -6.104,-6.257 0,-4.501 1.296,-10.223 1.296,-10.223 0.23,-0.916 -0.381,-1.451 -1.22,-1.451 h -4.654 c -0.84,0 -1.373,0.535 -1.602,1.451 0,0 -1.603,4.959 -1.603,11.368 0,4.883 1.145,8.163 3.435,10.224 -2.214,2.364 -3.435,5.645 -3.435,9.765 0,10.07 7.021,14.114 15.947,14.114 h 5.645 c 0.84,0 1.451,-0.61 1.451,-1.45" /></g><g
         id="g2273"
         transform="translate(1998,3315.8)"><path
           id="path2271"
           fill="#5d5452"
           d="m 0,0 v -5.494 c 0,-0.839 -0.609,-1.449 -1.449,-1.449 h -23.728 c -3.586,0 -5.875,-1.067 -5.875,-5.111 0,-2.367 1.068,-4.96 2.213,-7.097 h 27.39 c 0.84,0 1.449,-0.609 1.449,-1.448 v -5.495 c 0,-0.838 -0.609,-1.448 -1.449,-1.448 h -35.249 c -0.839,0 -1.45,0.61 -1.45,1.448 v 5.113 c 0,0.84 0.611,1.448 1.45,1.448 h 1.144 c -1.679,2.214 -3.357,5.493 -3.357,9.843 0,8.317 5.035,11.139 12.972,11.139 h 24.49 C -0.609,1.449 0,0.838 0,0" /></g><g
         id="g2277"
         transform="translate(1973.5,3348.1)"><path
           id="path2275"
           fill="#5d5452"
           d="m 0,0 c -3.891,0 -7.02,-1.525 -7.02,-6.102 0,-4.578 3.129,-6.105 7.02,-6.105 h 10.909 c 3.892,0 7.02,1.527 7.02,6.105 0,4.577 -3.128,6.102 -7.02,6.102 z m 25.33,-6.102 c 0,-9.232 -5.036,-14.497 -14.497,-14.497 H 0.152 c -9.461,0 -14.497,5.188 -14.497,14.497 0,9.23 5.036,14.496 14.497,14.496 h 10.681 c 9.461,0 14.497,-5.189 14.497,-14.496" /></g><g
         id="g2281"
         transform="translate(1996.6,3384.6)"><path
           id="path2279"
           fill="#5d5452"
           d="m 0,0 c 0.84,-0.226 1.449,-0.915 1.449,-1.755 v -7.783 c 0,-0.837 -0.609,-1.6 -1.449,-1.828 l -35.172,-11.141 c -0.839,-0.228 -1.527,0.229 -1.527,1.144 v 6.029 c 0,0.84 0.534,1.45 1.374,1.678 l 26.322,8.011 -26.322,7.935 c -0.84,0.23 -1.374,0.915 -1.374,1.755 v 5.951 c 0,0.914 0.688,1.451 1.527,1.221 z" /></g><g
         id="g2285"
         transform="translate(1998,3430.3)"><path
           id="path2283"
           fill="#5d5452"
           d="m 0,0 v -5.111 c 0,-0.839 -0.609,-1.45 -1.449,-1.45 h -1.144 c 1.677,-2.211 3.357,-5.493 3.357,-9.842 0,-8.316 -5.037,-11.138 -12.972,-11.138 h -24.49 c -0.839,0 -1.45,0.609 -1.45,1.448 v 5.496 c 0,0.837 0.611,1.448 1.45,1.448 h 23.728 c 3.586,0 5.875,1.069 5.875,5.111 0,2.365 -1.068,4.959 -2.212,7.097 h -27.391 c -0.839,0 -1.45,0.608 -1.45,1.448 V 0 c 0,0.841 0.611,1.45 1.45,1.45 H -1.449 C -0.609,1.45 0,0.841 0,0" /></g><g
         id="g2289"
         transform="translate(1998,3490.6)"><path
           id="path2287"
           fill="#5d5452"
           d="m 0,0 v -5.493 c 0,-0.838 -0.609,-1.45 -1.449,-1.45 h -23.728 c -3.586,0 -5.875,-1.067 -5.875,-5.112 0,-2.517 1.297,-5.034 2.67,-7.17 0.763,0.075 1.603,0.075 2.443,0.075 h 24.49 c 0.84,0 1.449,-0.61 1.449,-1.451 v -5.493 c 0,-0.837 -0.609,-1.449 -1.449,-1.449 h -23.728 c -3.586,0 -5.875,-1.067 -5.875,-5.112 0,-2.365 1.068,-4.96 2.213,-7.095 h 27.39 c 0.84,0 1.449,-0.609 1.449,-1.448 v -5.495 c 0,-0.838 -0.609,-1.449 -1.449,-1.449 h -35.249 c -0.839,0 -1.45,0.611 -1.45,1.449 v 5.114 c 0,0.837 0.611,1.448 1.45,1.448 h 1.144 c -1.679,2.212 -3.357,5.493 -3.357,9.844 0,4.73 1.602,7.703 4.502,9.382 -1.985,2.137 -4.502,5.877 -4.502,11.216 0,8.315 5.035,11.139 12.972,11.139 h 24.49 C -0.609,1.45 0,0.84 0,0" /></g></g></g><g
     inkscape:label="roborave"
     id="g2313"
     transform="matrix(0.375,0,0,0.375,13.126,12.256)"><path
       style="fill:url(#d)"
       id="path2295"
       fill="url(#d)"
       d="m 601.34,41.88 a 21.25,21.25 0 0 1 6.26,-2.59 49.66,49.66 0 0 1 11.91,-1.19 h 18.3 v 18.31 h -18.3 a 16.73,16.73 0 0 0 -3.93,0.36 3.21,3.21 0 0 0 -1.32,0.62 2.68,2.68 0 0 0 -0.59,1.22 16.17,16.17 0 0 0 -0.32,3.61 v 0.6 h 51.3 v 17.6 h -51.3 v 0.78 a 16.38,16.38 0 0 0 0.31,3.7 2.38,2.38 0 0 0 0.52,1.14 3.18,3.18 0 0 0 1.29,0.56 18.89,18.89 0 0 0 4,0.32 H 665 v 18.31 H 619.51 A 49.74,49.74 0 0 1 607.59,104 19.32,19.32 0 0 1 599,99.67 a 17,17 0 0 1 -4.71,-8 38.82,38.82 0 0 1 -1.22,-10.58 V 62.22 a 44.87,44.87 0 0 1 0.65,-8.17 l -28.1,45.14 a 20.11,20.11 0 0 1 -2.9,3.72 12.26,12.26 0 0 1 -4.34,2.74 16.06,16.06 0 0 1 -5.59,0.9 16.28,16.28 0 0 1 -5.63,-0.9 12.12,12.12 0 0 1 -4.32,-2.75 A 20,20 0 0 1 540,99.18 L 502.08,38.1 h 24.4 l 26.57,43.36 26.49,-43.36 h 24.16 z m -447.9,20.36 a 16.49,16.49 0 0 1 4.1,-6.2 19.31,19.31 0 0 1 8.59,-4.39 49.53,49.53 0 0 1 11.87,-1.19 h 16 a 49.65,49.65 0 0 1 12,1.19 19.23,19.23 0 0 1 8.59,4.35 17.23,17.23 0 0 1 4.71,8 39.64,39.64 0 0 1 1.22,10.68 v 6.36 a 39.34,39.34 0 0 1 -1.22,10.66 17.06,17.06 0 0 1 -4.72,8 19.31,19.31 0 0 1 -8.58,4.3 50.15,50.15 0 0 1 -12,1.19 h -16 a 49.53,49.53 0 0 1 -11.9,-1.19 19.34,19.34 0 0 1 -8.58,-4.37 17,17 0 0 1 -4.71,-8 38.82,38.82 0 0 1 -1.22,-10.58 v -7 a 15.13,15.13 0 0 1 -5.53,6.65 23.13,23.13 0 0 1 -8.76,3.3 57.68,57.68 0 0 1 -9,0.81 l 35.35,20.42 h -37 L 95.88,86.1 v 19.13 H 75.62 V 38.1 h 50.61 a 64.46,64.46 0 0 1 11.44,0.85 21.87,21.87 0 0 1 8.75,3.4 15,15 0 0 1 5.45,7.15 28.69,28.69 0 0 1 1.57,10.16 z M 436.79,98 470.51,44.35 a 21,21 0 0 1 2.84,-3.67 13,13 0 0 1 4.37,-2.85 17.31,17.31 0 0 1 11.71,0 13,13 0 0 1 4.32,2.85 20.29,20.29 0 0 1 2.84,3.68 l 38.1,60.91 H 511 l -1,-1.61 C 501,89.36 492.18,74.91 483.35,60.49 Q 470.12,82 456.88,103.59 l -1,1.64 H 412.35 L 381.58,86.1 v 19.13 H 361.32 V 38.1 h 50.61 a 64.46,64.46 0 0 1 11.44,0.85 21.92,21.92 0 0 1 8.75,3.4 15,15 0 0 1 5.45,7.15 28.69,28.69 0 0 1 1.57,10.16 v 4.15 a 25.94,25.94 0 0 1 -1.7,10 15.07,15.07 0 0 1 -5.65,6.94 A 23.13,23.13 0 0 1 423,84 57.68,57.68 0 0 1 414,84.81 Z M 483.34,71.92 A 11.35,11.35 0 1 1 472,83.23 11.35,11.35 0 0 1 483.34,71.88 Z m -242,-21.42 h 23.11 a 49.6,49.6 0 0 1 12,1.19 19.28,19.28 0 0 1 8.55,4.31 17.17,17.17 0 0 1 4.71,8 39.23,39.23 0 0 1 1.29,10.67 v 6.44 a 39.22,39.22 0 0 1 -1.22,10.58 17,17 0 0 1 -4.72,8 19.31,19.31 0 0 1 -8.6,4.37 50.1,50.1 0 0 1 -12,1.19 h -16.79 a 49.66,49.66 0 0 1 -11.91,-1.25 19.3,19.3 0 0 1 -8.57,-4.37 16.9,16.9 0 0 1 -4.71,-8 38.82,38.82 0 0 1 -1.22,-10.58 V 35 h 20.07 v 15.46 z m 92.57,54.77 h -16 A 49.53,49.53 0 0 1 306,104 a 19.34,19.34 0 0 1 -8.58,-4.37 17,17 0 0 1 -4.71,-8 38.82,38.82 0 0 1 -1.22,-10.58 v -6.38 a 39.23,39.23 0 0 1 1.24,-10.67 17.14,17.14 0 0 1 4.71,-8 19.22,19.22 0 0 1 8.56,-4.35 49.53,49.53 0 0 1 11.9,-1.19 h 16 a 49.6,49.6 0 0 1 12,1.19 19.31,19.31 0 0 1 8.59,4.35 17.21,17.21 0 0 1 4.7,8 39.64,39.64 0 0 1 1.22,10.68 v 6.36 a 39.34,39.34 0 0 1 -1.22,10.59 17.06,17.06 0 0 1 -4.72,8 19.31,19.31 0 0 1 -8.6,4.37 50.1,50.1 0 0 1 -12,1.19 z m 47.68,-48.91 v 11.4 h 29.47 a 38.82,38.82 0 0 0 4.94,-0.23 6,6 0 0 0 2.11,-0.61 1,1 0 0 0 0.38,-0.53 9.15,9.15 0 0 0 0.32,-2.76 v -3.27 a 9.48,9.48 0 0 0 -0.31,-2.76 0.76,0.76 0 0 0 -0.36,-0.46 5.66,5.66 0 0 0 -2.06,-0.58 38.35,38.35 0 0 0 -5,-0.24 z m -285.7,0 v 11.4 h 29.47 a 38.82,38.82 0 0 0 4.94,-0.23 5.9,5.9 0 0 0 2.11,-0.61 1,1 0 0 0 0.38,-0.53 9.15,9.15 0 0 0 0.32,-2.76 v -3.27 a 9.15,9.15 0 0 0 -0.31,-2.76 0.76,0.76 0 0 0 -0.36,-0.46 5.66,5.66 0 0 0 -2.06,-0.58 38.27,38.27 0 0 0 -5,-0.24 z m 104.55,24.4 v -5.65 a 17.75,17.75 0 0 0 -0.36,-4.12 2.44,2.44 0 0 0 -0.67,-1.24 4.67,4.67 0 0 0 -1.95,-0.73 29.25,29.25 0 0 0 -5.21,-0.34 H 179.8 a 28.36,28.36 0 0 0 -5.13,0.34 4.63,4.63 0 0 0 -1.93,0.73 2.42,2.42 0 0 0 -0.67,1.26 16.53,16.53 0 0 0 -0.38,4.1 v 5.65 a 16.42,16.42 0 0 0 0.38,4 2.51,2.51 0 0 0 0.69,1.29 4.65,4.65 0 0 0 1.94,0.75 27.18,27.18 0 0 0 5.1,0.37 h 12.45 a 27.2,27.2 0 0 0 5.18,-0.37 4.69,4.69 0 0 0 2,-0.75 2.48,2.48 0 0 0 0.69,-1.27 17.12,17.12 0 0 0 0.36,-4 z m 40.89,-12.08 v 12.17 a 18.23,18.23 0 0 0 0.33,4 3,3 0 0 0 0.62,1.32 3.39,3.39 0 0 0 1.47,0.63 20.54,20.54 0 0 0 4.36,0.35 H 264 a 21.41,21.41 0 0 0 4.38,-0.35 3.41,3.41 0 0 0 1.51,-0.65 3,3 0 0 0 0.64,-1.34 18.09,18.09 0 0 0 0.34,-4.09 V 75.11 A 18.87,18.87 0 0 0 270.52,70.86 2.79,2.79 0 0 0 269.94,69.59 3.3,3.3 0 0 0 268.46,69 23.79,23.79 0 0 0 264,68.68 Z m 99,12.08 V 75.11 A 17.22,17.22 0 0 0 340,71 a 2.44,2.44 0 0 0 -0.67,-1.24 4.62,4.62 0 0 0 -1.94,-0.73 29.42,29.42 0 0 0 -5.22,-0.34 h -12.48 a 28.42,28.42 0 0 0 -5.13,0.34 4.54,4.54 0 0 0 -1.92,0.73 2.44,2.44 0 0 0 -0.64,1.24 17,17 0 0 0 -0.38,4.1 v 5.65 a 16.42,16.42 0 0 0 0.38,4 2.58,2.58 0 0 0 0.69,1.29 4.64,4.64 0 0 0 2,0.75 27,27 0 0 0 5.09,0.37 h 12.45 a 27.2,27.2 0 0 0 5.18,-0.37 4.69,4.69 0 0 0 2,-0.75 2.48,2.48 0 0 0 0.59,-1.24 17.12,17.12 0 0 0 0.36,-4"
       transform="translate(-72.26,-35.01)"
       class="cls-1" /><path
       style="fill:url(#c)"
       id="path2297"
       fill="url(#c)"
       d="m 437.56,101.07 34.91,-55.53 a 18.56,18.56 0 0 1 2.53,-3.27 10.76,10.76 0 0 1 3.6,-2.34 13.6,13.6 0 0 1 5,-0.85 13.32,13.32 0 0 1 5,0.85 10.6,10.6 0 0 1 3.56,2.34 18.15,18.15 0 0 1 2.52,3.27 l 35.89,57.38 h -18.3 l -0.34,-0.53 C 502.24,87 492.82,71.52 483.33,56 c -9.47,15.45 -18.89,30.92 -28.42,46.34 l -0.33,0.54 H 413 L 379.27,82 v 21 H 363.63 V 40.41 h 48.3 a 62.59,62.59 0 0 1 11,0.81 19.68,19.68 0 0 1 7.83,3 12.77,12.77 0 0 1 4.63,6.08 26.86,26.86 0 0 1 1.41,9.34 v 4.15 a 23.7,23.7 0 0 1 -1.52,9.06 12.8,12.8 0 0 1 -4.79,5.91 20.9,20.9 0 0 1 -7.9,3 62.78,62.78 0 0 1 -10.87,0.8 h -6.29 l 32.1,18.54 z M 93.57,82 v 21 H 77.93 V 40.41 h 48.3 a 62.59,62.59 0 0 1 11,0.81 19.68,19.68 0 0 1 7.83,3 12.71,12.71 0 0 1 4.63,6.08 26.86,26.86 0 0 1 1.41,9.34 v 4.15 a 23.88,23.88 0 0 1 -1.51,9.06 12.89,12.89 0 0 1 -4.8,5.91 20.9,20.9 0 0 1 -7.9,3 62.71,62.71 0 0 1 -10.87,0.8 h -6.29 l 35.32,20.39 h -27.74 z m 389.77,-7.76 a 9,9 0 1 1 -9,9 9,9 0 0 1 9,-9.05 z M 194,102.92 h -16 a 47.45,47.45 0 0 1 -11.34,-1.12 17,17 0 0 1 -7.54,-3.8 14.65,14.65 0 0 1 -4.06,-6.92 37,37 0 0 1 -1.13,-10 v -6.41 a 37.4,37.4 0 0 1 1.13,-10 14.71,14.71 0 0 1 4.06,-6.94 16.9,16.9 0 0 1 7.57,-3.84 47.45,47.45 0 0 1 11.31,-1.12 h 16 a 48.09,48.09 0 0 1 11.41,1.12 17,17 0 0 1 7.6,3.84 15,15 0 0 1 4.06,7 37.77,37.77 0 0 1 1.13,10 v 6.36 a 37,37 0 0 1 -1.13,10 14.71,14.71 0 0 1 -4.07,6.91 17.14,17.14 0 0 1 -7.59,3.82 48.09,48.09 0 0 1 -11.41,1.1 z m 45,-50.15 h 25.42 a 48,48 0 0 1 11.41,1.12 17,17 0 0 1 7.6,3.84 14.84,14.84 0 0 1 4.06,6.94 37.4,37.4 0 0 1 1.13,10 v 6.44 a 37,37 0 0 1 -1.13,10 14.78,14.78 0 0 1 -4.04,6.89 17.17,17.17 0 0 1 -7.6,3.82 48,48 0 0 1 -11.41,1.12 h -16.77 a 47.59,47.59 0 0 1 -11.35,-1.12 17,17 0 0 1 -7.56,-3.82 14.74,14.74 0 0 1 -4.07,-6.92 37,37 0 0 1 -1.13,-10 V 37.32 H 239 Z m 94.88,50.15 h -16 A 47.45,47.45 0 0 1 306.54,101.8 17,17 0 0 1 299,98 a 14.73,14.73 0 0 1 -4,-6.94 37,37 0 0 1 -1.13,-10 v -6.39 a 37.4,37.4 0 0 1 1.13,-10 14.71,14.71 0 0 1 4,-6.94 17,17 0 0 1 7.57,-3.84 47.45,47.45 0 0 1 11.34,-1.12 h 16 a 48,48 0 0 1 11.41,1.12 17,17 0 0 1 7.6,3.84 14.9,14.9 0 0 1 4.06,7 37.77,37.77 0 0 1 1.13,10 v 6.36 a 37,37 0 0 1 -1.13,10 14.78,14.78 0 0 1 -4.07,6.91 17.17,17.17 0 0 1 -7.6,3.82 48,48 0 0 1 -11.41,1.12 z m 219.15,-17 27.79,-45.47 h 18.7 L 563.66,98 a 18.12,18.12 0 0 1 -2.56,3.3 9.81,9.81 0 0 1 -3.52,2.21 13.7,13.7 0 0 1 -4.79,0.77 13.93,13.93 0 0 1 -4.83,-0.77 9.62,9.62 0 0 1 -3.5,-2.22 17.36,17.36 0 0 1 -2.54,-3.3 l -35.7,-57.55 h 19 l 27.86,45.47 z m 58,-20.75 h 51.29 v 13 h -51.27 v 3.03 a 19.21,19.21 0 0 0 0.36,4.22 4.62,4.62 0 0 0 1.16,2.27 5,5 0 0 0 2.43,1.15 21,21 0 0 0 4.55,0.39 h 43.18 v 13.69 h -43.22 a 47.67,47.67 0 0 1 -11.36,-1.12 17,17 0 0 1 -7.55,-3.8 14.73,14.73 0 0 1 -4.06,-6.92 37,37 0 0 1 -1.13,-10 V 62.22 a 37.11,37.11 0 0 1 1.13,-10 14.74,14.74 0 0 1 4.06,-6.91 16.88,16.88 0 0 1 7.56,-3.82 48.06,48.06 0 0 1 11.35,-1.12 h 16 V 54.1 h -16 a 18.93,18.93 0 0 0 -4.5,0.44 5.11,5.11 0 0 0 -2.4,1.23 4.86,4.86 0 0 0 -1.18,2.31 18,18 0 0 0 -0.38,4.14 v 2.91 z M 93.57,54 v 16.07 h 31.78 a 40,40 0 0 0 5.25,-0.26 7.88,7.88 0 0 0 3,-0.92 3.23,3.23 0 0 0 1.4,-1.71 10.9,10.9 0 0 0 0.46,-3.55 v -3.27 a 11.34,11.34 0 0 0 -0.44,-3.52 3.1,3.1 0 0 0 -1.32,-1.66 7.77,7.77 0 0 0 -3,-0.91 41.12,41.12 0 0 0 -5.32,-0.26 z m 109.18,26.76 v -5.65 a 19.38,19.38 0 0 0 -0.44,-4.69 4.49,4.49 0 0 0 -1.41,-2.42 6.52,6.52 0 0 0 -3,-1.25 32.17,32.17 0 0 0 -5.63,-0.38 H 179.8 a 31.27,31.27 0 0 0 -5.55,0.38 6.44,6.44 0 0 0 -3,1.25 4.7,4.7 0 0 0 -1.42,2.43 19.3,19.3 0 0 0 -0.44,4.68 v 5.65 a 18.65,18.65 0 0 0 0.44,4.6 4.76,4.76 0 0 0 1.42,2.45 6.63,6.63 0 0 0 3,1.28 30.2,30.2 0 0 0 5.54,0.4 h 12.45 a 30.19,30.19 0 0 0 5.62,-0.4 6.6,6.6 0 0 0 3,-1.28 4.61,4.61 0 0 0 1.41,-2.44 19.28,19.28 0 0 0 0.44,-4.61 z M 239,66.37 v 14.48 a 20.62,20.62 0 0 0 0.4,4.57 5,5 0 0 0 1.25,2.44 5.3,5.3 0 0 0 2.58,1.23 23.29,23.29 0 0 0 4.86,0.4 H 264 a 23.48,23.48 0 0 0 4.88,-0.4 5.44,5.44 0 0 0 2.61,-1.23 5,5 0 0 0 1.28,-2.47 20.52,20.52 0 0 0 0.41,-4.63 v -5.65 a 21.85,21.85 0 0 0 -0.41,-4.78 4.72,4.72 0 0 0 -1.27,-2.44 5.4,5.4 0 0 0 -2.6,-1.16 26.75,26.75 0 0 0 -4.9,-0.36 z m 103.64,14.39 v -5.65 a 19.38,19.38 0 0 0 -0.44,-4.69 4.49,4.49 0 0 0 -1.41,-2.42 6.52,6.52 0 0 0 -3,-1.25 32.1,32.1 0 0 0 -5.63,-0.38 h -12.47 a 31.09,31.09 0 0 0 -5.54,0.38 6.44,6.44 0 0 0 -3,1.25 4.62,4.62 0 0 0 -1.41,2.43 18.82,18.82 0 0 0 -0.45,4.68 v 5.65 a 18.66,18.66 0 0 0 0.45,4.6 4.68,4.68 0 0 0 1.41,2.45 6.62,6.62 0 0 0 3,1.28 30,30 0 0 0 5.53,0.4 h 12.45 a 30.19,30.19 0 0 0 5.62,-0.4 6.6,6.6 0 0 0 3,-1.28 4.61,4.61 0 0 0 1.41,-2.44 18.78,18.78 0 0 0 0.44,-4.61 z M 379.27,54 v 16.07 h 31.78 a 39.9,39.9 0 0 0 5.24,-0.26 7.88,7.88 0 0 0 3,-0.92 3.17,3.17 0 0 0 1.34,-1.71 10.9,10.9 0 0 0 0.46,-3.55 v -3.27 a 11.33,11.33 0 0 0 -0.43,-3.52 3.1,3.1 0 0 0 -1.32,-1.66 7.77,7.77 0 0 0 -3,-0.91 41.21,41.21 0 0 0 -5.32,-0.26 z"
       transform="translate(-72.26,-35.01)"
       class="cls-2" /><path
       style="fill:url(#b)"
       id="path2299"
       fill="url(#b)"
       d="M 150.77,101.77 115.46,81.38 h 10.59 a 61.36,61.36 0 0 0 10.67,-0.78 19.7,19.7 0 0 0 7.46,-2.79 11.6,11.6 0 0 0 4.37,-5.38 22.34,22.34 0 0 0 1.45,-8.62 v -4.15 a 25,25 0 0 0 -1.34,-8.93 11.66,11.66 0 0 0 -4.21,-5.55 18.54,18.54 0 0 0 -7.37,-2.83 60.67,60.67 0 0 0 -10.83,-0.79 H 79.09 v 60.21 h 13.33 v -21.9 l 35.22,21.9 z M 136.56,63.63 a 11.47,11.47 0 0 1 -0.53,3.94 4.35,4.35 0 0 1 -1.83,2.3 8.66,8.66 0 0 1 -3.45,1.13 39.53,39.53 0 0 1 -5.4,0.26 H 92.42 v -18.4 h 32.93 a 40.37,40.37 0 0 1 5.47,0.26 8.61,8.61 0 0 1 3.44,1.08 4.24,4.24 0 0 1 1.8,2.26 12.16,12.16 0 0 1 0.5,3.9 z M 194,101.77 a 46.11,46.11 0 0 0 11.13,-1.09 16.1,16.1 0 0 0 7.09,-3.54 13.63,13.63 0 0 0 3.78,-6.39 35.14,35.14 0 0 0 1.08,-9.64 V 74.75 A 35.82,35.82 0 0 0 216,65 13.7,13.7 0 0 0 212.26,58.56 15.91,15.91 0 0 0 205.14,55 46.11,46.11 0 0 0 194,53.92 h -16 a 45.6,45.6 0 0 0 -11,1.08 15.78,15.78 0 0 0 -7.07,3.56 13.55,13.55 0 0 0 -3.76,6.44 35.35,35.35 0 0 0 -1.09,9.69 v 6.44 a 35.11,35.11 0 0 0 1.09,9.64 13.53,13.53 0 0 0 3.73,6.39 16,16 0 0 0 7.07,3.54 45.6,45.6 0 0 0 11.03,1.07 z m 9.89,-21 a 20,20 0 0 1 -0.47,4.9 5.89,5.89 0 0 1 -1.78,3 7.67,7.67 0 0 1 -3.56,1.53 31.33,31.33 0 0 1 -5.84,0.43 H 179.8 a 30.5,30.5 0 0 1 -5.75,-0.43 7.72,7.72 0 0 1 -3.55,-1.53 6,6 0 0 1 -1.78,-3 19.38,19.38 0 0 1 -0.49,-4.9 v -5.66 a 19.8,19.8 0 0 1 0.49,-5 5.78,5.78 0 0 1 1.78,-3 7.5,7.5 0 0 1 3.55,-1.5 30.82,30.82 0 0 1 5.75,-0.4 h 12.45 a 31.67,31.67 0 0 1 5.84,0.4 7.46,7.46 0 0 1 3.56,1.5 5.71,5.71 0 0 1 1.78,3 20.4,20.4 0 0 1 0.47,5 z m 60.54,21 a 46.05,46.05 0 0 0 11.13,-1.09 16.1,16.1 0 0 0 7.09,-3.54 13.63,13.63 0 0 0 3.74,-6.39 35.5,35.5 0 0 0 1.09,-9.64 V 74.67 A 35.74,35.74 0 0 0 286.4,65 13.65,13.65 0 0 0 282.66,58.59 15.91,15.91 0 0 0 275.57,55 46.05,46.05 0 0 0 264.44,53.91 H 237.87 V 38.47 h -13.15 v 42.64 a 35.14,35.14 0 0 0 1.08,9.64 13.55,13.55 0 0 0 3.74,6.39 15.93,15.93 0 0 0 7.06,3.54 45.69,45.69 0 0 0 11.07,1.09 z m 9.89,-21 a 20.64,20.64 0 0 1 -0.44,4.9 6.2,6.2 0 0 1 -1.6,3 6.68,6.68 0 0 1 -3.17,1.53 24.38,24.38 0 0 1 -5.12,0.43 h -15.88 a 24,24 0 0 1 -5.1,-0.43 6.48,6.48 0 0 1 -3.14,-1.53 6.14,6.14 0 0 1 -1.57,-3 21.19,21.19 0 0 1 -0.43,-4.84 V 65.22 H 264 a 26.28,26.28 0 0 1 5.12,0.38 6.62,6.62 0 0 1 3.17,1.4 5.91,5.91 0 0 1 1.6,3 21.52,21.52 0 0 1 0.44,5 v 5.65 z m 59.57,21 a 46.05,46.05 0 0 0 11.11,-1.09 16.1,16.1 0 0 0 7.09,-3.54 13.63,13.63 0 0 0 3.74,-6.39 35.5,35.5 0 0 0 1.17,-9.64 V 74.75 A 36.18,36.18 0 0 0 355.86,65 13.7,13.7 0 0 0 352.12,58.56 15.91,15.91 0 0 0 345,55 46.05,46.05 0 0 0 333.87,53.91 h -16 A 45.6,45.6 0 0 0 306.86,55 15.69,15.69 0 0 0 299.8,58.56 13.56,13.56 0 0 0 296.06,65 35.74,35.74 0 0 0 295,74.67 v 6.44 a 35.5,35.5 0 0 0 1.09,9.64 13.55,13.55 0 0 0 3.74,6.39 15.87,15.87 0 0 0 7.06,3.54 45.6,45.6 0 0 0 11.06,1.09 z m 9.89,-21 a 20,20 0 0 1 -0.47,4.9 5.89,5.89 0 0 1 -1.78,3 7.67,7.67 0 0 1 -3.53,1.55 31.33,31.33 0 0 1 -5.84,0.43 h -12.47 a 30.57,30.57 0 0 1 -5.75,-0.43 7.72,7.72 0 0 1 -3.55,-1.53 6,6 0 0 1 -1.78,-3 19.38,19.38 0 0 1 -0.49,-4.9 v -5.68 a 19.8,19.8 0 0 1 0.49,-5 5.78,5.78 0 0 1 1.78,-3 7.5,7.5 0 0 1 3.55,-1.5 30.89,30.89 0 0 1 5.75,-0.4 h 12.45 a 31.67,31.67 0 0 1 5.84,0.4 7.46,7.46 0 0 1 3.56,1.5 5.71,5.71 0 0 1 1.78,3 20.4,20.4 0 0 1 0.47,5 z"
       transform="translate(-72.26,-35.01)"
       class="cls-3" /><path
       style="fill:url(#a)"
       id="path2301"
       fill="url(#a)"
       d="m 483.34,75.34 a 7.89,7.89 0 1 1 -7.88,7.89 7.89,7.89 0 0 1 7.88,-7.89 z m -46.87,26.43 -35.31,-20.39 h 10.59 a 61.36,61.36 0 0 0 10.67,-0.78 19.7,19.7 0 0 0 7.46,-2.79 11.6,11.6 0 0 0 4.37,-5.38 22.34,22.34 0 0 0 1.43,-8.62 v -4.15 a 25,25 0 0 0 -1.34,-8.93 11.66,11.66 0 0 0 -4.21,-5.55 18.54,18.54 0 0 0 -7.37,-2.83 60.67,60.67 0 0 0 -10.83,-0.79 h -47.15 v 60.21 h 13.34 v -21.9 l 35.22,21.9 z M 422.26,63.63 a 11.47,11.47 0 0 1 -0.53,3.94 4.35,4.35 0 0 1 -1.83,2.3 8.66,8.66 0 0 1 -3.45,1.13 39.62,39.62 0 0 1 -5.4,0.26 h -32.93 v -18.4 h 32.93 a 40.37,40.37 0 0 1 5.47,0.26 8.66,8.66 0 0 1 3.48,1.08 4.29,4.29 0 0 1 1.8,2.26 12.16,12.16 0 0 1 0.5,3.9 v 3.27 z m 90.65,38.14 h 15.53 L 493.66,46.15 A 15.5,15.5 0 0 0 491.31,43.09 9.66,9.66 0 0 0 488.13,41 12.52,12.52 0 0 0 483.6,40.23 12.89,12.89 0 0 0 479,41 a 9.45,9.45 0 0 0 -3.2,2.09 15.17,15.17 0 0 0 -2.36,3.06 l -35,55.62 h 15.45 c 10.32,-16.7 19.14,-31.21 29.4,-47.94 11.71,18.99 17.94,29.42 29.62,47.94 z m 84.55,-60.21 h -16 L 553.06,88.09 524.54,41.56 H 508.3 l 34.6,55.8 a 15.55,15.55 0 0 0 2.37,3.09 8.52,8.52 0 0 0 3.09,2 14.44,14.44 0 0 0 8.82,0 8.73,8.73 0 0 0 3.12,-2 16,16 0 0 0 2.38,-3.09 z m 64.08,60.21 V 90.38 h -42 A 21.51,21.51 0 0 1 614.7,90 a 6,6 0 0 1 -2.94,-1.46 5.6,5.6 0 0 1 -1.47,-2.82 19.69,19.69 0 0 1 -0.4,-4.49 V 77 h 51.3 V 66.28 h -51.3 v -4.06 a 19.07,19.07 0 0 1 0.41,-4.4 5.94,5.94 0 0 1 1.49,-2.82 6.07,6.07 0 0 1 2.94,-1.54 18.48,18.48 0 0 1 4.78,-0.47 h 14.84 V 41.56 h -14.84 a 45.89,45.89 0 0 0 -11.08,1.09 15.7,15.7 0 0 0 -7,3.54 13.55,13.55 0 0 0 -3.74,6.39 35.4,35.4 0 0 0 -1.09,9.64 v 18.89 a 35.5,35.5 0 0 0 1.09,9.64 13.55,13.55 0 0 0 3.74,6.39 15.9,15.9 0 0 0 7,3.54 46.4,46.4 0 0 0 11.08,1.09 z"
       transform="translate(-72.26,-35.01)"
       class="cls-4" /><path
       id="path2303"
       fill="#191919"
       d="m 157.44,155.07 v -0.64 c 0,-0.85 -0.86,-1.28 -2.55,-1.28 h -10.2 v 3.19 h 10.25 c 1.66,0 2.5,-0.43 2.5,-1.27 z m -4,3.82 h -8.71 v 4.46 a 1.28,1.28 0 0 1 -2.55,0 v -11.47 a 1.13,1.13 0 0 1 1.27,-1.28 h 12.1 q 4.47,0 4.47,3.8 v 0.67 c 0,2.3 -1.22,3.56 -3.64,3.78 l 3,4.5 a 1.71,1.71 0 0 1 0.22,0.71 c 0,0.38 -0.29,0.56 -0.86,0.56 h -0.64 a 1.84,1.84 0 0 1 -1.27,-0.63 l -3.4,-5.1 z m 9.14,-1.89 a 2.25,2.25 0 0 1 2.55,-2.55 h 7.64 a 2.24,2.24 0 0 1 2.55,2.53 v 5.09 a 2.25,2.25 0 0 1 -2.55,2.55 h -7.67 a 2.26,2.26 0 0 1 -2.56,-2.55 z m 10.18,1.28 a 1.12,1.12 0 0 0 -1.27,-1.25 h -5.1 a 1.11,1.11 0 0 0 -1.26,1.25 v 2.58 a 1.1,1.1 0 0 0 1.26,1.24 h 5.1 a 1.13,1.13 0 0 0 1.28,-1.27 v -2.52 z m 7.68,3.79 h 6.36 a 1.12,1.12 0 0 0 1.2,-1.27 v -2.55 a 1.11,1.11 0 0 0 -1.25,-1.27 h -6.35 v 5.09 z m -2.57,2.55 v -12.77 a 1.11,1.11 0 0 1 1.27,-1.25 1.13,1.13 0 0 1 1.28,1.28 v 2.55 h 6.39 q 3.81,0 3.81,3.82 v 2.58 q 0,3.79 -3.82,3.79 z m 15.3,-7.62 a 2.25,2.25 0 0 1 2.55,-2.55 h 7.65 a 2.25,2.25 0 0 1 2.55,2.53 v 5.09 a 2.25,2.25 0 0 1 -2.55,2.55 h -7.64 a 2.26,2.26 0 0 1 -2.56,-2.55 z m 10.18,1.28 A 1.11,1.11 0 0 0 202,157 h -5.1 a 1.11,1.11 0 0 0 -1.26,1.25 v 2.58 a 1.1,1.1 0 0 0 1.26,1.24 h 5.1 a 1.14,1.14 0 0 0 1.29,-1.27 v -2.52 z m 7.66,-3.85 v -2.58 a 1.28,1.28 0 0 1 2.55,0 v 2.57 h 1.6 a 1.28,1.28 0 0 1 0,2.55 h -1.6 v 3.82 a 1.13,1.13 0 0 0 1.28,1.27 1.28,1.28 0 0 1 0,2.55 q -3.83,0 -3.83,-3.82 V 157 h -1.31 a 1.28,1.28 0 0 1 0,-2.55 z m 8.93,0 a 1.12,1.12 0 0 1 1.27,1.27 v 7.64 a 1.13,1.13 0 0 1 -1.28,1.28 1.12,1.12 0 0 1 -1.27,-1.27 v -7.68 a 1.11,1.11 0 0 1 1.28,-1.24 z m 0,-3.83 a 1.28,1.28 0 1 1 -1.28,1.28 1.13,1.13 0 0 1 1.24,-1.28 z m 6.37,3.83 h 8.91 a 2.26,2.26 0 0 1 2.56,2.55 v 0.33 a 1.12,1.12 0 0 1 -1.27,1.25 1.13,1.13 0 0 1 -1.28,-1.28 0.28,0.28 0 0 0 -0.32,-0.31 h -7.32 a 1.13,1.13 0 0 0 -1.28,1.27 v 2.55 a 1.13,1.13 0 0 0 1.28,1.27 h 7.32 a 0.28,0.28 0 0 0 0.32,-0.31 1.12,1.12 0 0 1 1.27,-1.26 1.15,1.15 0 0 1 1.28,1.29 v 0.31 a 2.25,2.25 0 0 1 -2.54,2.55 h -8.92 a 2.26,2.26 0 0 1 -2.55,-2.55 V 157 a 2.25,2.25 0 0 1 2.55,-2.55 z m 17.2,0 H 253 a 1.27,1.27 0 1 1 0,2.54 h -9.55 a 0.58,0.58 0 0 0 -0.64,0.64 0.56,0.56 0 0 0 0.64,0.63 h 7.65 q 3.18,0 3.2,3.22 0.02,3.22 -3.2,3.18 h -9.56 a 1.28,1.28 0 1 1 0,-2.55 h 9.56 a 0.56,0.56 0 0 0 0.64,-0.63 0.58,0.58 0 0 0 -0.64,-0.67 h -7.65 q -3.19,0 -3.19,-3.18 c 0,-2.12 1.06,-3.19 3.18,-3.19 z m 24.88,-3.8 h 10.18 a 2.25,2.25 0 0 1 2.55,2.55 v 0.64 a 1.28,1.28 0 1 1 -2.55,0 0.56,0.56 0 0 0 -0.64,-0.64 h -8.28 v 3.19 h 7.65 a 1.11,1.11 0 0 1 1.26,1.25 1.11,1.11 0 0 1 -1.26,1.25 h -7.65 v 3.18 h 8.27 a 0.56,0.56 0 0 0 0.64,-0.63 1.28,1.28 0 1 1 2.55,0 v 0.63 a 2.25,2.25 0 0 1 -2.55,2.55 h -10.21 a 1.13,1.13 0 0 1 -1.28,-1.27 v -11.5 a 1.12,1.12 0 0 1 1.28,-1.25 z m 25.43,6.37 h -6.39 a 1.11,1.11 0 0 0 -1.25,1.27 v 2.55 a 1.13,1.13 0 0 0 1.28,1.27 h 6.36 z m -6.36,7.64 q -3.82,0 -3.83,-3.82 v -2.55 q 0,-3.83 3.81,-3.82 h 6.39 v -2.55 a 1.28,1.28 0 0 1 2.55,0 v 12.77 z m 24.22,0 h -8.91 q -3.82,0 -3.83,-3.82 v -5.1 a 1.28,1.28 0 0 1 2.55,0 v 5.1 a 1.13,1.13 0 0 0 1.28,1.27 h 6.36 v -6.39 a 1.11,1.11 0 0 1 1.26,-1.27 1.14,1.14 0 0 1 1.29,1.27 z m 5.09,-10.19 h 8.91 a 2.27,2.27 0 0 1 2.57,2.55 v 0.33 a 1.28,1.28 0 0 1 -2.55,0 0.29,0.29 0 0 0 -0.32,-0.31 h -7.33 a 1.13,1.13 0 0 0 -1.28,1.27 v 2.55 a 1.13,1.13 0 0 0 1.28,1.27 h 7.33 a 0.29,0.29 0 0 0 0.32,-0.31 1.11,1.11 0 0 1 1.26,-1.26 1.15,1.15 0 0 1 1.29,1.29 v 0.31 a 2.24,2.24 0 0 1 -2.53,2.55 h -8.93 a 2.25,2.25 0 0 1 -2.54,-2.55 V 157 a 2.25,2.25 0 0 1 2.54,-2.55 z m 23,3.82 A 1.13,1.13 0 0 0 338.49,157 h -6.37 a 1.28,1.28 0 0 1 0,-2.55 h 7.65 a 2.26,2.26 0 0 1 2.55,2.55 v 7.64 h -8.91 a 2.26,2.26 0 0 1 -2.56,-2.55 v -1.29 a 2.25,2.25 0 0 1 2.55,-2.55 z m -5.42,2.55 c -0.64,0 -0.95,0.21 -0.95,0.64 a 0.56,0.56 0 0 0 0.63,0.63 h 5.74 v -1.29 z m 13.07,-6.37 v -2.58 a 1.28,1.28 0 0 1 2.55,0 v 2.57 h 1.59 a 1.28,1.28 0 0 1 0,2.55 h -1.59 v 3.82 a 1.12,1.12 0 0 0 1.27,1.27 1.28,1.28 0 1 1 0,2.55 q -3.82,0 -3.82,-3.82 V 157 h -1.28 a 1.28,1.28 0 0 1 0,-2.55 z m 8.92,0 a 1.12,1.12 0 0 1 1.27,1.27 v 7.64 a 1.13,1.13 0 0 1 -1.28,1.28 1.12,1.12 0 0 1 -1.27,-1.27 v -7.68 a 1.11,1.11 0 0 1 1.27,-1.24 z m 0,-3.83 a 1.28,1.28 0 1 1 -1.27,1.28 1.13,1.13 0 0 1 1.22,-1.3 z m 3.82,6.4 a 2.25,2.25 0 0 1 2.55,-2.55 h 7.65 a 2.24,2.24 0 0 1 2.55,2.53 v 5.09 a 2.25,2.25 0 0 1 -2.55,2.55 h -7.63 a 2.27,2.27 0 0 1 -2.57,-2.55 z m 10.19,1.28 A 1.12,1.12 0 0 0 369,157 h -5.09 a 1.12,1.12 0 0 0 -1.27,1.25 v 2.58 a 1.11,1.11 0 0 0 1.27,1.24 H 369 a 1.14,1.14 0 0 0 1.29,-1.27 v -2.52 z m 5.11,-3.85 h 8.91 q 3.82,0 3.84,3.82 v 5.1 a 1.28,1.28 0 0 1 -2.55,0 v -5.1 A 1.12,1.12 0 0 0 384.39,157 H 378 v 6.37 a 1.27,1.27 0 1 1 -2.54,0 z m 34.42,3.82 A 1.13,1.13 0 0 0 408.6,157 h -6.37 a 1.28,1.28 0 1 1 0,-2.55 h 7.65 a 2.26,2.26 0 0 1 2.55,2.55 v 7.64 h -8.91 a 2.27,2.27 0 0 1 -2.57,-2.55 v -1.29 a 2.25,2.25 0 0 1 2.55,-2.55 z m -5.42,2.55 c -0.64,0 -1,0.21 -1,0.64 a 0.56,0.56 0 0 0 0.64,0.63 h 5.74 v -1.29 z m 10.52,-6.37 h 8.91 c 2.55,0 3.82,1.27 3.83,3.82 v 5.1 a 1.28,1.28 0 0 1 -2.55,0 v -5.1 A 1.12,1.12 0 0 0 423.91,157 h -6.37 v 6.37 a 1.27,1.27 0 0 1 -2.54,0 v -8.92 z M 440.41,157 H 434 a 1.11,1.11 0 0 0 -1.25,1.27 v 2.55 a 1.13,1.13 0 0 0 1.28,1.27 h 6.36 V 157 Z m -6.36,7.64 q -3.82,0 -3.83,-3.82 v -2.55 q 0,-3.83 3.81,-3.82 h 6.39 v -2.55 a 1.28,1.28 0 0 1 2.55,0 v 12.77 z m 24.22,-14 h 11.47 a 2.27,2.27 0 0 1 2.56,2.55 v 0.67 a 1.28,1.28 0 0 1 -2.55,0 0.57,0.57 0 0 0 -0.63,-0.65 h -9.57 a 1.13,1.13 0 0 0 -1.27,1.28 v 6.37 a 1.12,1.12 0 0 0 1.27,1.27 h 9.6 a 0.55,0.55 0 0 0 0.61,-0.62 1.11,1.11 0 0 1 1.26,-1.26 1.15,1.15 0 0 1 1.28,1.29 v 0.62 a 2.24,2.24 0 0 1 -2.52,2.55 h -11.5 a 2.25,2.25 0 0 1 -2.55,-2.55 v -8.92 a 2.25,2.25 0 0 1 2.55,-2.55 z m 16.57,6.4 a 2.25,2.25 0 0 1 2.55,-2.55 H 485 a 2.24,2.24 0 0 1 2.55,2.53 v 5.09 a 2.25,2.25 0 0 1 -2.55,2.55 h -7.6 a 2.26,2.26 0 0 1 -2.56,-2.55 z m 10.16,1.24 a 1.11,1.11 0 0 0 -1.27,-1.25 h -5.1 a 1.11,1.11 0 0 0 -1.26,1.25 v 2.58 a 1.1,1.1 0 0 0 1.26,1.24 h 5.1 a 1.13,1.13 0 0 0 1.27,-1.3 z m 12.76,-1.3 h -5.1 v 6.37 a 1.27,1.27 0 1 1 -2.53,0 v -8.92 h 14 q 3.83,0 3.83,3.82 v 5.1 a 1.12,1.12 0 0 1 -1.27,1.27 1.14,1.14 0 0 1 -1.29,-1.27 v -5.1 a 1.12,1.12 0 0 0 -1.26,-1.27 h -3.84 v 6.37 a 1.27,1.27 0 1 1 -2.54,0 V 157 Z m 15.31,5.09 h 6.39 a 1.11,1.11 0 0 0 1.25,-1.27 v -2.55 a 1.13,1.13 0 0 0 -1.28,-1.27 h -6.36 z m 6.36,-7.64 q 3.82,0 3.83,3.82 v 2.55 q 0,3.82 -3.82,3.82 h -6.38 v 2.55 a 1.27,1.27 0 0 1 -2.54,0 v -12.72 z m 8.92,6.37 a 1.13,1.13 0 0 0 1.28,1.27 H 536 a 1.28,1.28 0 0 1 0,2.55 h -7.67 a 2.26,2.26 0 0 1 -2.55,-2.55 V 157 a 2.25,2.25 0 0 1 2.55,-2.55 h 6.38 a 2.27,2.27 0 0 1 2.56,2.55 v 1.26 a 2.25,2.25 0 0 1 -2.55,2.55 z m 5.43,-2.55 q 1,0 1,-0.63 a 0.56,0.56 0 0 0 -0.64,-0.64 h -4.47 a 1.13,1.13 0 0 0 -1.28,1.27 z m 8.6,-3.82 v -2.58 a 1.27,1.27 0 0 1 2.54,0 v 2.57 h 1.6 a 1.28,1.28 0 0 1 0,2.55 h -1.6 v 3.82 a 1.13,1.13 0 0 0 1.28,1.27 1.28,1.28 0 0 1 0,2.55 q -3.83,0 -3.82,-3.82 V 157 h -1.28 a 1.28,1.28 0 0 1 0,-2.55 z m 8.92,0 a 1.12,1.12 0 0 1 1.27,1.27 v 7.64 a 1.13,1.13 0 0 1 -1.28,1.28 1.12,1.12 0 0 1 -1.27,-1.27 v -7.68 a 1.11,1.11 0 0 1 1.28,-1.24 z m 0,-3.83 a 1.28,1.28 0 1 1 -1.28,1.28 1.13,1.13 0 0 1 1.3,-1.28 z m 6.37,3.83 v -2.58 a 1.28,1.28 0 0 1 2.55,0 v 2.57 h 1.59 a 1.28,1.28 0 1 1 0,2.55 h -1.59 v 3.82 a 1.13,1.13 0 0 0 1.28,1.27 1.28,1.28 0 0 1 0,2.55 q -3.82,0 -3.83,-3.82 V 157 h -1.27 a 1.28,1.28 0 1 1 0,-2.55 z m 8.93,0 a 1.12,1.12 0 0 1 1.27,1.27 v 7.64 a 1.28,1.28 0 0 1 -2.55,0 v -7.68 a 1.11,1.11 0 0 1 1.28,-1.24 z m 0,-3.83 a 1.28,1.28 0 1 1 -1.28,1.28 1.13,1.13 0 0 1 1.3,-1.28 z m 3.82,6.4 a 2.25,2.25 0 0 1 2.55,-2.55 h 7.65 a 2.25,2.25 0 0 1 2.55,2.53 v 5.09 a 2.25,2.25 0 0 1 -2.55,2.55 H 573 a 2.26,2.26 0 0 1 -2.56,-2.55 z m 10.18,1.28 a 1.11,1.11 0 0 0 -1.27,-1.25 h -5.1 a 1.11,1.11 0 0 0 -1.26,1.25 v 2.58 a 1.1,1.1 0 0 0 1.26,1.24 h 5.1 a 1.14,1.14 0 0 0 1.29,-1.27 v -2.52 z m 5.12,-3.85 h 8.91 q 3.81,0 3.83,3.82 v 5.1 a 1.28,1.28 0 0 1 -2.55,0 v -5.1 a 1.12,1.12 0 0 0 -1.26,-1.27 h -6.38 v 6.37 a 1.27,1.27 0 1 1 -2.53,0 v -8.92 z"
       transform="translate(-72.26,-35.01)"
       class="cls-5" /><path
       id="path2305"
       fill="#191919"
       d="M 72.26,127.49 185.6,126 292.93,124.51 v 6 L 185.6,129 Z m 596.1,0 L 553.42,126 444.48,124.51 v 6 L 553.42,129 668.36,127.51 Z"
       transform="translate(-72.26,-35.01)"
       class="cls-5" /><g
       id="g2311"
       style="isolation:isolate"
       transform="translate(-4,-1.5016)"
       class="cls-6"><text
         id="text2309"
         style="isolation:isolate"
         font-weight="700"
         font-size="32.5px"
         font-family="Titillium-Semibold, Titillium"
         fill="#191919"
         x="65.864868"
         transform="translate(233.79,102.88)"
         class="cls-7"><tspan
           id="tspan2307"
           text-anchor="middle"
           text-align="center"
           font-weight="normal"
           font-size="32px"
           font-family="Arial">Germany</tspan></text></g></g></g></svg>
