<?xml version="1.0" encoding="UTF-8" standalone="no"?>
<svg
   xmlns:dc="http://purl.org/dc/elements/1.1/"
   xmlns:cc="http://creativecommons.org/ns#"
   xmlns:rdf="http://www.w3.org/1999/02/22-rdf-syntax-ns#"
   xmlns:svg="http://www.w3.org/2000/svg"
   xmlns="http://www.w3.org/2000/svg"
   xmlns:sodipodi="http://sodipodi.sourceforge.net/DTD/sodipodi-0.dtd"
   xmlns:inkscape="http://www.inkscape.org/namespaces/inkscape"
   width="800"
   height="540"
   version="1.1"
   viewBox="0 0 750 506.25"
   xml:space="preserve"
   id="svg2351"
   sodipodi:docname="hs.svg"
   inkscape:version="1.0 (4035a4fb49, 2020-05-01)"><sodipodi:namedview
   inkscape:guide-bbox="true"
   showguides="true"
   inkscape:document-rotation="0"
   pagecolor="#ffffff"
   bordercolor="#666666"
   borderopacity="1"
   objecttolerance="10"
   gridtolerance="10"
   guidetolerance="10"
   inkscape:pageopacity="0"
   inkscape:pageshadow="2"
   inkscape:window-width="1918"
   inkscape:window-height="1038"
   id="namedview1956"
   showgrid="false"
   inkscape:zoom="1.0313242"
   inkscape:cx="427.02858"
   inkscape:cy="211.20466"
   inkscape:window-x="0"
   inkscape:window-y="20"
   inkscape:window-maximized="1"
   inkscape:current-layer="svg2351"><sodipodi:guide
     id="guide1255"
     orientation="0,-1"
     position="76.994831,391.97346" /><sodipodi:guide
     id="guide1257"
     orientation="1,0"
     position="58.353977,348.20798" /></sodipodi:namedview><metadata
   id="metadata8"><rdf:RDF><cc:Work
       rdf:about=""><dc:format>image/svg+xml</dc:format><dc:type
         rdf:resource="http://purl.org/dc/dcmitype/StillImage" /><dc:title></dc:title></cc:Work></rdf:RDF></metadata><defs
   id="defs1127"><clipPath
     id="e"><path
       d="M 0,4308.7 H 4308.7 V 0 H 0 Z"
       id="path1096" /></clipPath><style
     id="style1099">.cls-1{fill:url(#d);}.cls-2{fill:url(#c);}.cls-3{fill:url(#b);}.cls-4{fill:url(#a);}.cls-5,.cls-7{fill:#191919;}.cls-6,.cls-7{isolation:isolate;}.cls-7{font-size:32.5px;font-family:Titillium-Semibold, Titillium;font-weight:700;}.cls-8{letter-spacing:0em;}</style><linearGradient
     id="d"
     x1="285.66"
     x2="286.57999"
     y1="139.99001"
     y2="139.99001"
     gradientTransform="matrix(0.83,80.41,-667.1,6.93,93517,-23905)"
     gradientUnits="userSpaceOnUse"><stop
       stop-color="#333"
       offset="0"
       id="stop1101" /><stop
       stop-color="#e6e6e6"
       offset=".56"
       id="stop1103" /><stop
       stop-color="#333"
       offset="1"
       id="stop1105" /></linearGradient><linearGradient
     id="c"
     x1="285.29001"
     x2="286.20999"
     y1="139.99001"
     y2="139.99001"
     gradientTransform="matrix(0.84,76.03,-661.87,7.29,92786,-22675)"
     gradientUnits="userSpaceOnUse"><stop
       stop-color="#e6e6e6"
       offset="0"
       id="stop1108" /><stop
       stop-color="#1a1a1a"
       offset=".56"
       id="stop1110" /><stop
       stop-color="#e6e6e6"
       offset="1"
       id="stop1112" /></linearGradient><linearGradient
     id="b"
     x1="296.51001"
     x2="297.17001"
     y1="138.77"
     y2="138.77"
     gradientTransform="matrix(-14.72,-123.73,380.92,-45.32,-48273,43100)"
     gradientUnits="userSpaceOnUse"><stop
       offset="0"
       id="stop1115" /><stop
       stop-color="#3b3b3b"
       offset=".54"
       id="stop1117" /><stop
       offset="1"
       id="stop1119" /></linearGradient><radialGradient
     id="a"
     cx="291.01999"
     cy="138.28"
     r="0.50999999"
     gradientTransform="matrix(296.75,0,0,296.75,-85847,-40964)"
     gradientUnits="userSpaceOnUse"><stop
       stop-color="red"
       offset="0"
       id="stop1122" /><stop
       stop-color="#790000"
       offset="1"
       id="stop1124" /></radialGradient><clipPath
     id="clipPath1120"
     clipPathUnits="userSpaceOnUse"><path
       id="path1122"
       d="M 0,4308.662 H 4308.662 V 0 H 0 Z" /></clipPath></defs>



<rect
   inkscape:label="white"
   style="stroke-width:1"
   y="0"
   x="0"
   id="rect1129"
   fill="#ffffff"
   ry="0"
   height="506.25"
   width="750" /><g
   style="display:inline"
   id="g2337"><g
     style="font-style:normal;font-variant:normal;font-weight:normal;font-stretch:normal;font-size:50px;line-height:125%;font-family:Arial;-inkscape-font-specification:Arial;letter-spacing:0px;word-spacing:0px;display:inline;fill:#f68712;fill-opacity:1;stroke:none;stroke-width:0.9375px;stroke-linecap:butt;stroke-linejoin:miter;stroke-opacity:1"
     id="text4996"
     aria-label="HS"><path
       id="path199"
       style="font-style:normal;font-variant:normal;font-weight:normal;font-stretch:normal;font-size:50px;font-family:'Inria Sans';-inkscape-font-specification:'Inria Sans, Normal';font-variant-ligatures:normal;font-variant-caps:normal;font-variant-numeric:normal;font-variant-east-asian:normal;text-align:end;text-anchor:end;fill:#f68712;fill-opacity:1;stroke-width:0.9375px"
       d="m 44.794106,494.24399 h 4.35 v -34 h -4.35 v 14.75 h -14.85 v -14.75 h -4.35 v 34 h 4.35 v -15.15 h 14.85 z" /><path
       id="path201"
       style="font-style:normal;font-variant:normal;font-weight:normal;font-stretch:normal;font-size:50px;font-family:'Inria Sans';-inkscape-font-specification:'Inria Sans, Normal';font-variant-ligatures:normal;font-variant-caps:normal;font-variant-numeric:normal;font-variant-east-asian:normal;text-align:end;text-anchor:end;fill:#f68712;fill-opacity:1;stroke-width:0.9375px"
       d="m 66.694801,490.84399 c -2.9,0 -5.5,-0.6 -9.05,-2.2 l -1.35,3.7 c 3.7,1.7 7.25,2.4 10.4,2.4 7.65,0 10.95,-3.9 10.95,-9.65 0,-5 -2.55,-8.2 -7.6,-9.7 l -4.05,-1.2 c -3.6,-1.1 -4.8,-2.85 -4.8,-5.45 0,-3.6 2.2,-5.05 6,-5.05 2.35,0 4.8,0.6 8,2 l 1.4,-3.75 c -3.3,-1.5 -6.5,-2.2 -9.5,-2.2 -7.45,0 -10.3,4.15 -10.3,9.3 0,4.55 2.3,7.7 7.4,9.2 l 4.05,1.2 c 3.55,1.05 5,3.05 5,6 0,3.55 -2.35,5.4 -6.55,5.4 z" /></g><g
     transform="matrix(6.2992,0,0,6.2992,638.34,256.78)"
     id="g2063"><path
       d="m 10.698,40.285 h -28.936 c -3.622,0 -6.5688,-2.9214 -6.5688,-6.5124 0,-3.591 2.9468,-6.5126 6.5691,-6.5126 0.3477,0 0.69976,0.02827 1.0491,0.0841 1.5535,-2.1763 4.0663,-3.4701 6.7602,-3.4701 0.05383,0 0.10737,0.001 0.16082,0.002 1.9723,-3.2881 5.5668,-5.323 9.4269,-5.323 4.6539,0 8.7708,2.8891 10.325,7.2162 0.40057,-0.06586 0.80795,-0.09914 1.2146,-0.09914 4.0643,0 7.3708,3.278 7.3708,7.3072 -0.001,4.0292 -3.3079,7.3077 -7.3723,7.3077 z M -18.238,27.847 c -3.2984,0 -5.9817,2.6581 -5.9817,5.9255 0,3.2674 2.6833,5.9251 5.9816,5.9251 h 28.936 c 3.7404,0 6.7835,-3.0146 6.7835,-6.72 0,-3.7053 -3.043,-6.7199 -6.7835,-6.7199 -0.45378,0 -0.90874,0.04501 -1.3521,0.13379 l -0.25432,0.05102 -0.081995,-0.2461 c -1.4061,-4.2199 -5.3648,-7.0554 -9.8509,-7.0554 -3.7098,0 -7.1612,1.9856 -9.0077,5.1819 l -0.08861,0.15342 -0.17702,-0.007 c -0.1042,-0.004 -0.20863,-0.008 -0.31388,-0.008 -2.5632,0 -4.9495,1.2595 -6.3834,3.3692 l -0.10819,0.15916 -0.18924,-0.03569 c -0.3759,-0.07067 -0.75568,-0.10667 -1.1295,-0.10667 z"
       fill="none"
       id="path2059" /><path
       d="m -19.54,39.507 c -1.5725,-0.34409 -3.2133,-1.5894 -3.9493,-2.9973 -0.9558,-1.8283 -0.85472,-4.2227 0.24848,-5.8863 0.79006,-1.1914 1.8664,-2.0114 3.1941,-2.4334 0.73013,-0.23205 1.02,-0.26746 2.0064,-0.24503 l 1.1529,0.02622 0.4588,-0.58457 c 1.3075,-1.6659 3.3563,-2.7213 5.5133,-2.8402 l 1.0241,-0.05648 0.35556,-0.59878 c 0.5056,-0.85149 2.3404,-2.6388 3.2435,-3.1594 0.99354,-0.57279 1.9359,-0.96752 2.9805,-1.2485 1.2269,-0.32997 3.7927,-0.33149 4.9898,-0.0028 2.3923,0.65652 4.5508,2.1261 5.9154,4.0272 0.42502,0.59216 1.1202,1.9259 1.3116,2.5164 l 0.12467,0.38466 1.2503,-0.04905 c 1.5382,-0.06033 2.3605,0.11073 3.5785,0.74438 2.1153,1.1005 3.583,3.4796 3.5907,5.8207 0.0028,0.88577 -0.29686,2.1359 -0.72158,3.0092 -0.51885,1.0669 -1.8946,2.4644 -2.9037,2.9496 -1.6563,0.79649 -0.089,0.72847 -17.282,0.75 -12.697,0.01588 -15.533,-0.0066 -16.082,-0.12659 z"
       fill="#ffffff"
       id="path2061" /></g><g
     transform="matrix(6.2992,0,0,6.2992,146.3,-175.55)"
     id="g2069"><path
       d="m 10.698,40.285 h -28.936 c -3.622,0 -6.5688,-2.9214 -6.5688,-6.5124 0,-3.591 2.9468,-6.5126 6.5691,-6.5126 0.3477,0 0.69976,0.02827 1.0491,0.0841 1.5535,-2.1763 4.0663,-3.4701 6.7602,-3.4701 0.05383,0 0.10737,0.001 0.16082,0.002 1.9723,-3.2881 5.5668,-5.323 9.4269,-5.323 4.6539,0 8.7708,2.8891 10.325,7.2162 0.40057,-0.06586 0.80795,-0.09914 1.2146,-0.09914 4.0643,0 7.3708,3.278 7.3708,7.3072 -0.001,4.0292 -3.3079,7.3077 -7.3723,7.3077 z M -18.238,27.847 c -3.2984,0 -5.9817,2.6581 -5.9817,5.9255 0,3.2674 2.6833,5.9251 5.9816,5.9251 h 28.936 c 3.7404,0 6.7835,-3.0146 6.7835,-6.72 0,-3.7053 -3.043,-6.7199 -6.7835,-6.7199 -0.45378,0 -0.90874,0.04501 -1.3521,0.13379 l -0.25432,0.05102 -0.081995,-0.2461 c -1.4061,-4.2199 -5.3648,-7.0554 -9.8509,-7.0554 -3.7098,0 -7.1612,1.9856 -9.0077,5.1819 l -0.08861,0.15342 -0.17702,-0.007 c -0.1042,-0.004 -0.20863,-0.008 -0.31388,-0.008 -2.5632,0 -4.9495,1.2595 -6.3834,3.3692 l -0.10819,0.15916 -0.18924,-0.03569 c -0.3759,-0.07067 -0.75568,-0.10667 -1.1295,-0.10667 z"
       fill="none"
       id="path2065" /><path
       d="m -19.54,39.507 c -1.5725,-0.34409 -3.2133,-1.5894 -3.9493,-2.9973 -0.9558,-1.8283 -0.85472,-4.2227 0.24848,-5.8863 0.79006,-1.1914 1.8664,-2.0114 3.1941,-2.4334 0.73013,-0.23205 1.02,-0.26746 2.0064,-0.24503 l 1.1529,0.02622 0.4588,-0.58457 c 1.3075,-1.6659 3.3563,-2.7213 5.5133,-2.8402 l 1.0241,-0.05648 0.35556,-0.59878 c 0.5056,-0.85149 2.3404,-2.6388 3.2435,-3.1594 0.99354,-0.57279 1.9359,-0.96752 2.9805,-1.2485 1.2269,-0.32997 3.7927,-0.33149 4.9898,-0.0028 2.3923,0.65652 4.5508,2.1261 5.9154,4.0272 0.42502,0.59216 1.1202,1.9259 1.3116,2.5164 l 0.12467,0.38466 1.2503,-0.04905 c 1.5382,-0.06033 2.3605,0.11073 3.5785,0.74438 2.1153,1.1005 3.583,3.4796 3.5907,5.8207 0.0028,0.88577 -0.29686,2.1359 -0.72158,3.0092 -0.51885,1.0669 -1.8946,2.4644 -2.9037,2.9496 -1.6563,0.79649 -0.089,0.72847 -17.282,0.75 -12.697,0.01588 -15.533,-0.0066 -16.082,-0.12659 z"
       fill="#ffffff"
       id="path2067" /></g><g
     transform="matrix(0,0.5,0.5,0,-1029.6,-540.72)"
     id="g2293"><g
       clip-path="url(#e)"
       id="g2291"><g
         transform="translate(2036.8,3291.7)"
         id="g2081"><path
           d="m 0,0 c 0,-1.615 -0.439,-3.228 -0.439,-3.228 -0.064,-0.273 -0.189,-0.398 -0.42,-0.398 h -0.964 c -0.231,0 -0.356,0.125 -0.315,0.398 0,0 0.462,1.823 0.462,3.059 0,1.593 -0.65,2.726 -2.347,2.726 h -0.629 c -1.405,0 -1.845,-0.755 -2.285,-1.991 l -0.482,-1.363 c -0.504,-1.404 -1.279,-2.726 -3.522,-2.726 h -0.523 c -2.557,0 -3.836,1.761 -3.836,4.256 0,1.551 0.356,2.997 0.356,2.997 0.063,0.273 0.189,0.398 0.42,0.398 h 0.921 c 0.231,0 0.357,-0.125 0.315,-0.398 0,0 -0.336,-1.592 -0.336,-2.955 0,-1.593 0.693,-2.515 2.16,-2.515 h 0.523 c 1.027,0 1.53,0.712 1.866,1.677 l 0.482,1.341 c 0.545,1.531 1.384,3.06 3.941,3.06 h 0.629 C -1.068,4.338 0,2.577 0,0"
           fill="#5d5452"
           id="path2079" /></g><g
         transform="translate(2036.6,3304.2)"
         id="g2085"><path
           d="m 0,0 c 0,0 0.188,-0.943 0.188,-1.802 0,-2.41 -1.424,-3.669 -3.772,-3.669 h -3.354 c -2.348,0 -3.772,1.259 -3.772,3.669 0,0.985 0.188,1.802 0.188,1.802 0.042,0.272 0.209,0.399 0.44,0.399 h 0.859 c 0.231,0 0.336,-0.168 0.315,-0.419 0,0 -0.126,-0.86 -0.126,-1.677 0,-1.427 0.902,-1.991 2.096,-1.991 h 3.354 c 1.195,0 2.096,0.544 2.096,1.991 0,0.817 -0.127,1.717 -0.127,1.717 -0.02,0.252 0.085,0.379 0.315,0.379 h 0.86 C -0.21,0.399 -0.063,0.293 0,0"
           fill="#5d5452"
           id="path2083" /></g><g
         transform="translate(2036.6,3315)"
         id="g2089"><path
           d="m 0,0 v -0.985 c 0,-0.23 -0.168,-0.397 -0.398,-0.397 h -6.729 c -1.111,0 -1.866,-0.272 -1.866,-1.593 0,-0.797 0.399,-1.635 0.776,-2.284 h 7.819 C -0.168,-5.259 0,-5.428 0,-5.658 v -0.985 c 0,-0.231 -0.168,-0.399 -0.398,-0.399 h -14.086 c -0.231,0 -0.398,0.168 -0.398,0.399 v 0.985 c 0,0.23 0.167,0.399 0.398,0.399 h 4.737 c -0.461,0.585 -0.943,1.466 -0.943,2.681 0,2.224 1.363,2.977 3.563,2.977 h 6.729 C -0.168,0.399 0,0.232 0,0"
           fill="#5d5452"
           id="path2087" /></g><g
         transform="translate(2023.5,3325.4)"
         id="g2093"><path
           d="m 0,0 v -0.986 c 0,-0.23 -0.167,-0.397 -0.398,-0.397 h -0.986 c -0.23,0 -0.397,0.167 -0.397,0.397 V 0 c 0,0.231 0.167,0.399 0.397,0.399 h 0.986 C -0.167,0.399 0,0.231 0,0 m 0,-3.563 v -0.985 c 0,-0.231 -0.167,-0.399 -0.398,-0.399 h -0.986 c -0.23,0 -0.397,0.168 -0.397,0.399 v 0.985 c 0,0.23 0.167,0.398 0.397,0.398 h 0.986 C -0.167,-3.165 0,-3.333 0,-3.563 M 13.101,1.048 V 0.062 c 0,-0.23 -0.168,-0.397 -0.398,-0.397 h -0.336 c 0.461,-0.587 0.942,-1.468 0.942,-2.683 0,-2.221 -1.362,-2.977 -3.562,-2.977 H 3.019 c -0.232,0 -0.399,0.168 -0.399,0.399 v 0.985 c 0,0.23 0.167,0.399 0.399,0.399 h 6.728 c 1.11,0 1.865,0.273 1.865,1.593 0,0.795 -0.399,1.633 -0.775,2.284 H 3.019 c -0.232,0 -0.399,0.167 -0.399,0.397 v 0.986 c 0,0.231 0.167,0.399 0.399,0.399 h 9.684 c 0.23,0 0.398,-0.168 0.398,-0.399"
           fill="#5d5452"
           id="path2091" /></g><g
         transform="translate(2036.6,3332.2)"
         id="g2097"><path
           d="m 0,0 v -0.985 c 0,-0.231 -0.168,-0.399 -0.398,-0.399 h -14.086 c -0.231,0 -0.398,0.168 -0.398,0.399 V 0 c 0,0.23 0.167,0.399 0.398,0.399 H -0.398 C -0.168,0.399 0,0.23 0,0"
           fill="#5d5452"
           id="path2095" /></g><g
         transform="translate(2030.2,3342.1)"
         id="g2101"><path
           d="m 0,0 c -1.384,0 -2.767,-0.334 -2.767,-1.866 0,-1.676 1.362,-2.054 3.165,-2.074 V 0 Z m 1.802,1.32 v -5.26 c 2.201,0.042 3.185,0.985 3.185,2.515 0,1.006 -0.272,2.327 -0.272,2.327 C 4.674,1.132 4.82,1.3 5.051,1.3 h 0.88 c 0.231,0 0.356,-0.146 0.419,-0.398 0,0 0.272,-1.279 0.272,-2.39 0,-2.493 -1.445,-4.235 -5.071,-4.235 H 0.67 c -3.06,0 -4.946,1.175 -4.946,3.838 0,2.599 1.886,3.604 4.338,3.604 h 1.342 c 0.23,0 0.398,-0.168 0.398,-0.399"
           fill="#5d5452"
           id="path2099" /></g><g
         transform="translate(2027.9,3351.9)"
         id="g2105"><path
           d="m 0,0 c 0,0 -0.021,-0.021 -0.021,-0.293 0,-1.069 0.86,-1.823 1.677,-2.285 h 6.688 c 0.23,0 0.397,-0.169 0.397,-0.399 v -0.984 c 0,-0.231 -0.167,-0.399 -0.397,-0.399 h -9.685 c -0.231,0 -0.398,0.168 -0.398,0.399 v 0.984 c 0,0.23 0.167,0.399 0.398,0.399 h 0.964 c -0.796,0.356 -1.572,1.006 -1.572,2.222 0,0.148 0.042,0.356 0.042,0.356 0.042,0.251 0.189,0.356 0.419,0.356 h 1.132 C -0.125,0.356 0.021,0.231 0,0"
           fill="#5d5452"
           id="path2103" /></g><g
         transform="translate(2023.2,3359.3)"
         id="g2109"><path
           d="m 0,0 c 0,0 -0.063,-0.545 -0.063,-1.068 0,-0.483 0.23,-0.84 1.006,-0.84 h 1.928 v 1.489 c 0,0.23 0.168,0.399 0.399,0.399 h 0.671 c 0.23,0 0.397,-0.169 0.397,-0.399 v -1.489 h 8.617 c 0.23,0 0.397,-0.166 0.397,-0.399 v -0.984 c 0,-0.23 -0.167,-0.398 -0.397,-0.398 H 4.338 v -1.068 c 0,-0.232 -0.167,-0.4 -0.397,-0.4 H 3.27 c -0.231,0 -0.399,0.168 -0.399,0.4 v 1.068 h -1.99 c -1.803,0 -2.62,0.859 -2.62,2.411 0,0.713 0.146,1.278 0.146,1.278 0.063,0.273 0.209,0.398 0.44,0.398 h 0.838 C -0.084,0.398 0.021,0.251 0,0"
           fill="#5d5452"
           id="path2107" /></g><g
         transform="translate(2029.7,3367.8)"
         id="g2113"><path
           d="m 0,0 c -1.194,0 -2.2,-0.481 -2.2,-1.927 0,-1.426 1.006,-1.95 2.2,-1.95 h 3.355 c 1.194,0 2.2,0.503 2.2,1.95 C 5.555,-0.502 4.549,0 3.355,0 Z m 7.126,-1.927 c 0,-2.411 -1.424,-3.731 -3.771,-3.731 H 0 c -2.347,0 -3.772,1.32 -3.772,3.731 0,2.41 1.425,3.709 3.772,3.709 h 3.355 c 2.347,0 3.771,-1.299 3.771,-3.709"
           fill="#5d5452"
           id="path2111" /></g><g
         transform="translate(2027.9,3377.8)"
         id="g2117"><path
           d="m 0,0 c 0,0 -0.021,-0.022 -0.021,-0.293 0,-1.07 0.86,-1.825 1.677,-2.286 h 6.688 c 0.23,0 0.397,-0.167 0.397,-0.399 v -0.984 c 0,-0.23 -0.167,-0.399 -0.397,-0.399 h -9.685 c -0.231,0 -0.398,0.169 -0.398,0.399 v 0.984 c 0,0.232 0.167,0.399 0.398,0.399 h 0.964 c -0.796,0.356 -1.572,1.006 -1.572,2.222 0,0.147 0.042,0.357 0.042,0.357 0.042,0.251 0.189,0.356 0.419,0.356 h 1.132 C -0.125,0.356 0.021,0.23 0,0"
           fill="#5d5452"
           id="path2115" /></g><g
         transform="translate(2036.8,3384.1)"
         id="g2121"><path
           d="m 0,0 c 0,-1.531 -0.376,-3.124 -0.376,-3.124 -0.063,-0.251 -0.211,-0.399 -0.441,-0.399 h -0.901 c -0.231,0 -0.356,0.169 -0.314,0.399 0,0 0.397,1.803 0.397,2.956 0,1.194 -0.397,1.991 -1.445,1.991 -0.985,0 -1.258,-0.713 -1.509,-1.593 l -0.315,-1.154 c -0.336,-1.236 -0.902,-2.493 -2.871,-2.493 -2.096,0 -3.123,1.236 -3.123,3.626 0,1.362 0.272,2.578 0.272,2.578 0.063,0.252 0.188,0.399 0.419,0.399 h 0.838 c 0.231,0 0.378,-0.169 0.336,-0.399 0,0 -0.23,-1.363 -0.23,-2.536 0,-1.405 0.524,-1.887 1.34,-1.887 0.818,0 1.132,0.608 1.342,1.426 l 0.293,1.131 c 0.336,1.321 0.944,2.683 3.04,2.683 C -0.901,3.604 0,2.389 0,0"
           fill="#5d5452"
           id="path2119" /></g><g
         transform="translate(2036.6,3396.7)"
         id="g2125"><path
           d="m 0,0 c 0,0 0.188,-0.943 0.188,-1.802 0,-2.409 -1.424,-3.668 -3.772,-3.668 h -3.354 c -2.348,0 -3.772,1.259 -3.772,3.668 0,0.986 0.188,1.802 0.188,1.802 0.042,0.273 0.209,0.399 0.44,0.399 h 0.859 c 0.231,0 0.336,-0.167 0.315,-0.418 0,0 -0.126,-0.86 -0.126,-1.678 0,-1.426 0.902,-1.991 2.096,-1.991 h 3.354 c 1.195,0 2.096,0.544 2.096,1.991 0,0.818 -0.127,1.718 -0.127,1.718 -0.02,0.252 0.085,0.378 0.315,0.378 h 0.86 C -0.21,0.399 -0.063,0.295 0,0"
           fill="#5d5452"
           id="path2123" /></g><g
         transform="translate(2036.6,3407.5)"
         id="g2129"><path
           d="m 0,0 v -0.985 c 0,-0.23 -0.168,-0.397 -0.398,-0.397 h -6.729 c -1.111,0 -1.866,-0.273 -1.866,-1.593 0,-0.797 0.399,-1.635 0.776,-2.284 h 7.819 C -0.168,-5.259 0,-5.428 0,-5.658 v -0.986 c 0,-0.23 -0.168,-0.399 -0.398,-0.399 h -14.086 c -0.231,0 -0.398,0.169 -0.398,0.399 v 0.986 c 0,0.23 0.167,0.399 0.398,0.399 h 4.737 c -0.461,0.585 -0.943,1.466 -0.943,2.681 0,2.222 1.363,2.977 3.563,2.977 h 6.729 C -0.168,0.399 0,0.232 0,0"
           fill="#5d5452"
           id="path2127" /></g><g
         transform="translate(2036.6,3419)"
         id="g2133"><path
           d="m 0,0 v -0.984 c 0,-0.23 -0.168,-0.398 -0.398,-0.398 h -0.336 c 0.461,-0.587 0.942,-1.469 0.942,-2.683 0,-2.222 -1.361,-2.977 -3.562,-2.977 h -6.728 c -0.231,0 -0.399,0.168 -0.399,0.398 v 0.986 c 0,0.23 0.168,0.399 0.399,0.399 h 6.728 c 1.111,0 1.865,0.272 1.865,1.593 0,0.795 -0.399,1.634 -0.775,2.284 h -7.818 c -0.231,0 -0.399,0.168 -0.399,0.398 V 0 c 0,0.232 0.168,0.399 0.399,0.399 h 9.684 C -0.168,0.399 0,0.232 0,0"
           fill="#5d5452"
           id="path2131" /></g><g
         transform="translate(2036.6,3430.4)"
         id="g2137"><path
           d="m 0,0 v -0.985 c 0,-0.23 -0.168,-0.397 -0.398,-0.397 h -6.729 c -1.111,0 -1.866,-0.272 -1.866,-1.593 0,-0.797 0.399,-1.635 0.776,-2.284 h 7.819 C -0.168,-5.259 0,-5.428 0,-5.658 v -0.985 c 0,-0.231 -0.168,-0.399 -0.398,-0.399 h -9.684 c -0.231,0 -0.399,0.168 -0.399,0.399 v 0.985 c 0,0.23 0.168,0.399 0.399,0.399 h 0.335 c -0.461,0.585 -0.943,1.466 -0.943,2.681 0,2.224 1.363,2.977 3.563,2.977 h 6.729 C -0.168,0.399 0,0.232 0,0"
           fill="#5d5452"
           id="path2135" /></g><g
         transform="translate(2027.7,3440.4)"
         id="g2141"><path
           d="m 0,0 c -0.104,-0.65 -0.188,-1.362 -0.188,-1.886 0,-1.426 0.879,-1.991 1.99,-1.991 h 3.354 c 1.111,0 1.991,0.503 1.991,1.781 0,0.691 -0.293,1.446 -0.608,2.096 z m 13.122,-1.719 c 0,-1.635 -0.399,-3.144 -0.399,-3.144 -0.062,-0.273 -0.168,-0.377 -0.399,-0.377 h -0.88 c -0.23,0 -0.398,0.146 -0.356,0.377 0,0 0.356,1.741 0.356,2.977 C 11.444,-0.481 10.689,0 9.453,0 H 8.007 C 8.384,-0.608 8.72,-1.405 8.72,-2.306 8.72,-4.591 7.357,-5.659 5.156,-5.659 H 1.802 c -2.2,0 -3.562,1.153 -3.562,3.563 0,1.363 0.293,3.039 0.355,3.48 0.042,0.231 0.169,0.398 0.399,0.398 H 9.453 c 2.536,0 3.669,-1.006 3.669,-3.501"
           fill="#5d5452"
           id="path2139" /></g><g
         transform="translate(2036.8,3449.2)"
         id="g2145"><path
           d="m 0,0 c 0,-1.531 -0.376,-3.124 -0.376,-3.124 -0.063,-0.251 -0.211,-0.398 -0.441,-0.398 h -0.901 c -0.231,0 -0.356,0.168 -0.314,0.398 0,0 0.397,1.803 0.397,2.956 0,1.194 -0.397,1.991 -1.445,1.991 -0.985,0 -1.258,-0.713 -1.509,-1.593 l -0.315,-1.154 c -0.336,-1.236 -0.902,-2.493 -2.871,-2.493 -2.096,0 -3.123,1.236 -3.123,3.625 0,1.363 0.272,2.579 0.272,2.579 0.063,0.252 0.188,0.399 0.419,0.399 h 0.838 c 0.231,0 0.378,-0.169 0.336,-0.399 0,0 -0.23,-1.363 -0.23,-2.536 0,-1.405 0.524,-1.887 1.34,-1.887 0.818,0 1.132,0.608 1.342,1.426 l 0.293,1.131 c 0.336,1.321 0.944,2.683 3.04,2.683 C -0.901,3.604 0,2.389 0,0"
           fill="#5d5452"
           id="path2143" /></g><g
         transform="translate(2036.6,3462.3)"
         id="g2149"><path
           d="m 0,0 v -6.225 c 0,-0.231 -0.168,-0.397 -0.398,-0.397 h -1.175 l -7.336,4.798 v -4.401 c 0,-0.231 -0.167,-0.397 -0.397,-0.397 h -0.776 c -0.231,0 -0.399,0.166 -0.399,0.397 V 0 c 0,0.231 0.168,0.399 0.399,0.399 h 1.173 l 7.336,-4.801 V 0 c 0,0.231 0.168,0.399 0.398,0.399 h 0.777 C -0.168,0.399 0,0.231 0,0"
           fill="#5d5452"
           id="path2147" /></g><g
         transform="translate(2030.2,3471.6)"
         id="g2153"><path
           d="m 0,0 c -1.384,0 -2.767,-0.334 -2.767,-1.865 0,-1.677 1.362,-2.054 3.165,-2.075 V 0 Z M 1.802,1.321 V -3.94 c 2.201,0.041 3.185,0.985 3.185,2.516 0,1.006 -0.272,2.326 -0.272,2.326 C 4.674,1.133 4.82,1.3 5.051,1.3 h 0.88 c 0.231,0 0.356,-0.147 0.419,-0.398 0,0 0.272,-1.278 0.272,-2.39 0,-2.493 -1.445,-4.234 -5.071,-4.234 H 0.67 c -3.06,0 -4.946,1.174 -4.946,3.837 0,2.599 1.886,3.605 4.338,3.605 h 1.342 c 0.23,0 0.398,-0.169 0.398,-0.399"
           fill="#5d5452"
           id="path2151" /></g><g
         transform="translate(2036.6,3484.1)"
         id="g2157"><path
           d="m 0,0 v -0.984 c 0,-0.232 -0.168,-0.398 -0.398,-0.398 h -6.729 c -1.111,0 -1.866,-0.273 -1.866,-1.593 0,-0.796 0.399,-1.635 0.776,-2.284 h 7.819 C -0.168,-5.259 0,-5.428 0,-5.658 v -0.986 c 0,-0.23 -0.168,-0.398 -0.398,-0.398 h -9.684 c -0.231,0 -0.399,0.168 -0.399,0.398 v 0.986 c 0,0.23 0.168,0.399 0.399,0.399 h 0.335 c -0.461,0.585 -0.943,1.466 -0.943,2.682 0,2.221 1.363,2.976 3.563,2.976 h 6.729 C -0.168,0.399 0,0.231 0,0"
           fill="#5d5452"
           id="path2155" /></g><g
         transform="translate(2036.6,3493.3)"
         id="g2161"><path
           d="m 0,0 c 0,0 0.166,-1.048 0.166,-1.801 0,-1.404 -0.711,-2.516 -2.829,-2.516 h -6.393 v -1.069 c 0,-0.23 -0.167,-0.399 -0.398,-0.399 h -0.67 c -0.231,0 -0.399,0.169 -0.399,0.399 v 1.069 h -2.326 c -0.23,0 -0.399,0.168 -0.399,0.398 v 0.986 c 0,0.231 0.169,0.397 0.399,0.397 h 2.326 V 0 c 0,0.231 0.168,0.399 0.399,0.399 h 0.67 c 0.231,0 0.398,-0.168 0.398,-0.399 v -2.536 h 6.435 c 0.776,0 1.216,0.42 1.216,1.112 0,0.671 -0.146,1.487 -0.146,1.487 -0.022,0.232 0.082,0.336 0.314,0.336 h 0.838 C -0.169,0.399 -0.022,0.251 0,0"
           fill="#5d5452"
           id="path2159" /></g><g
         transform="translate(2027.9,3500.9)"
         id="g2165"><path
           d="m 0,0 c 0,0 -0.021,-0.02 -0.021,-0.293 0,-1.069 0.86,-1.823 1.677,-2.284 h 6.688 c 0.23,0 0.397,-0.169 0.397,-0.399 v -0.985 c 0,-0.231 -0.167,-0.399 -0.397,-0.399 h -9.685 c -0.231,0 -0.398,0.168 -0.398,0.399 v 0.985 c 0,0.23 0.167,0.399 0.398,0.399 h 0.964 c -0.796,0.355 -1.572,1.006 -1.572,2.22 0,0.148 0.042,0.357 0.042,0.357 0.042,0.252 0.189,0.356 0.419,0.356 h 1.132 C -0.125,0.356 0.021,0.231 0,0"
           fill="#5d5452"
           id="path2163" /></g><g
         transform="translate(2036.6,3511.3)"
         id="g2169"><path
           d="m 0,0 v -0.985 c 0,-0.23 -0.168,-0.397 -0.398,-0.397 h -0.336 c 0.461,-0.587 0.942,-1.469 0.942,-2.683 0,-2.222 -1.361,-2.978 -3.562,-2.978 h -6.728 c -0.231,0 -0.399,0.169 -0.399,0.399 v 0.986 c 0,0.23 0.168,0.399 0.399,0.399 h 6.728 c 1.111,0 1.865,0.272 1.865,1.593 0,0.795 -0.399,1.633 -0.775,2.284 h -7.818 c -0.231,0 -0.399,0.167 -0.399,0.397 V 0 c 0,0.232 0.168,0.399 0.399,0.399 h 9.684 C -0.168,0.399 0,0.232 0,0"
           fill="#5d5452"
           id="path2167" /></g><g
         transform="translate(2036.6,3528.4)"
         id="g2173"><path
           d="m 0,0 v -0.985 c 0,-0.232 -0.168,-0.399 -0.398,-0.399 h -6.729 c -1.111,0 -1.866,-0.272 -1.866,-1.592 0,-0.859 0.483,-1.698 0.965,-2.328 0.273,0.042 0.586,0.042 0.901,0.042 h 6.729 C -0.168,-5.262 0,-5.428 0,-5.661 v -0.984 c 0,-0.23 -0.168,-0.398 -0.398,-0.398 h -6.729 c -1.111,0 -1.866,-0.272 -1.866,-1.593 0,-0.796 0.399,-1.635 0.776,-2.284 h 7.819 c 0.23,0 0.398,-0.169 0.398,-0.399 v -0.985 c 0,-0.23 -0.168,-0.399 -0.398,-0.399 h -9.684 c -0.231,0 -0.399,0.169 -0.399,0.399 v 0.985 c 0,0.23 0.168,0.399 0.399,0.399 h 0.335 c -0.461,0.586 -0.943,1.466 -0.943,2.682 0,1.321 0.461,2.117 1.32,2.558 -0.545,0.524 -1.32,1.53 -1.32,3.102 0,2.199 1.363,2.975 3.563,2.975 h 6.729 C -0.168,0.397 0,0.23 0,0"
           fill="#5d5452"
           id="path2171" /></g><g
         transform="translate(2061.8,3295.4)"
         id="g2177"><path
           d="m 0,0 v -6.644 c 0,-0.23 -0.168,-0.399 -0.398,-0.399 h -14.086 c -0.231,0 -0.398,0.169 -0.398,0.399 v 0.986 c 0,0.23 0.167,0.399 0.398,0.399 H -1.678 V 0 c 0,0.232 0.169,0.399 0.399,0.399 h 0.881 C -0.168,0.399 0,0.232 0,0"
           fill="#5d5452"
           id="path2175" /></g><g
         transform="translate(2048.7,3304)"
         id="g2181"><path
           d="m 0,0 v -0.984 c 0,-0.232 -0.168,-0.399 -0.398,-0.399 h -0.985 c -0.232,0 -0.398,0.167 -0.398,0.399 V 0 c 0,0.23 0.166,0.398 0.398,0.398 h 0.985 C -0.168,0.398 0,0.23 0,0 m 6.183,-0.335 c -1.194,0 -2.201,-0.483 -2.201,-1.929 0,-1.425 1.007,-1.95 2.201,-1.95 h 3.354 c 1.195,0 2.201,0.504 2.201,1.95 0,1.426 -1.006,1.929 -2.201,1.929 z M 0,-3.563 v -0.986 c 0,-0.23 -0.168,-0.398 -0.398,-0.398 h -0.985 c -0.232,0 -0.398,0.168 -0.398,0.398 v 0.986 c 0,0.231 0.166,0.397 0.398,0.397 h 0.985 C -0.168,-3.166 0,-3.332 0,-3.563 m 13.309,1.299 c 0,-2.409 -1.424,-3.731 -3.772,-3.731 H 6.183 c -2.348,0 -3.772,1.322 -3.772,3.731 0,2.41 1.424,3.71 3.772,3.71 h 3.354 c 2.348,0 3.772,-1.3 3.772,-3.71"
           fill="#5d5452"
           id="path2179" /></g><g
         transform="translate(2053,3313.7)"
         id="g2185"><path
           d="m 0,0 c 0,0 -0.021,-0.022 -0.021,-0.293 0,-1.07 0.859,-1.825 1.676,-2.285 h 6.689 c 0.229,0 0.397,-0.169 0.397,-0.398 v -0.986 c 0,-0.23 -0.168,-0.399 -0.397,-0.399 H -1.34 c -0.233,0 -0.399,0.169 -0.399,0.399 v 0.986 c 0,0.229 0.166,0.398 0.399,0.398 h 0.963 c -0.797,0.355 -1.572,1.005 -1.572,2.221 0,0.147 0.042,0.357 0.042,0.357 0.042,0.251 0.188,0.356 0.418,0.356 h 1.133 C -0.126,0.356 0.021,0.23 0,0"
           fill="#5d5452"
           id="path2183" /></g><g
         transform="translate(2053,3321.3)"
         id="g2189"><path
           d="m 0,0 c 0,0 -0.021,-0.022 -0.021,-0.295 0,-1.068 0.859,-1.823 1.676,-2.284 h 6.689 c 0.229,0 0.397,-0.168 0.397,-0.399 v -0.984 c 0,-0.23 -0.168,-0.399 -0.397,-0.399 H -1.34 c -0.233,0 -0.399,0.169 -0.399,0.399 v 0.984 c 0,0.231 0.166,0.399 0.399,0.399 h 0.963 c -0.797,0.356 -1.572,1.006 -1.572,2.222 0,0.147 0.042,0.357 0.042,0.357 0.042,0.251 0.188,0.354 0.418,0.354 h 1.133 C -0.126,0.354 0.021,0.23 0,0"
           fill="#5d5452"
           id="path2187" /></g><g
         transform="translate(2057.2,3329.9)"
         id="g2193"><path
           d="m 0,0 v -2.096 c 0,-1.279 0.565,-1.782 1.677,-1.782 0.922,0 1.467,0.524 1.467,1.572 0,0.755 -0.356,1.615 -0.713,2.306 z M 4.507,1.384 V 0.399 C 4.507,0.168 4.339,0 4.109,0 H 3.877 c 0.441,-0.649 0.838,-1.509 0.838,-2.515 0,-2.012 -1.09,-3.144 -3.038,-3.144 -2.202,0 -3.186,1.236 -3.186,3.521 0,0.734 0.105,2.138 0.105,2.138 h -1.111 c -1.236,0 -1.992,-0.483 -1.992,-1.886 0,-1.362 0.335,-2.747 0.335,-2.747 0.064,-0.293 -0.103,-0.397 -0.335,-0.397 h -0.797 c -0.23,0 -0.376,0.147 -0.439,0.397 0,0 -0.44,1.195 -0.44,2.914 0,2.474 1.236,3.501 3.668,3.501 h 6.624 c 0.23,0 0.398,-0.168 0.398,-0.398"
           fill="#5d5452"
           id="path2191" /></g><g
         transform="translate(2061.8,3341.1)"
         id="g2197"><path
           d="m 0,0 c 0,0 0.188,-0.944 0.188,-1.803 0,-2.409 -1.424,-3.668 -3.772,-3.668 h -3.354 c -2.348,0 -3.772,1.259 -3.772,3.668 0,0.986 0.188,1.803 0.188,1.803 0.042,0.272 0.209,0.399 0.439,0.399 h 0.86 c 0.23,0 0.336,-0.168 0.316,-0.42 0,0 -0.127,-0.859 -0.127,-1.676 0,-1.427 0.901,-1.992 2.096,-1.992 h 3.354 c 1.195,0 2.096,0.545 2.096,1.992 0,0.817 -0.127,1.717 -0.127,1.717 -0.02,0.252 0.085,0.379 0.315,0.379 h 0.86 C -0.21,0.399 -0.063,0.293 0,0"
           fill="#5d5452"
           id="path2195" /></g><g
         transform="translate(2061.8,3351.9)"
         id="g2201"><path
           d="m 0,0 v -0.985 c 0,-0.23 -0.168,-0.397 -0.398,-0.397 h -6.73 c -1.11,0 -1.865,-0.273 -1.865,-1.593 0,-0.797 0.399,-1.635 0.775,-2.284 h 7.82 C -0.168,-5.259 0,-5.428 0,-5.658 v -0.986 c 0,-0.23 -0.168,-0.399 -0.398,-0.399 h -14.086 c -0.231,0 -0.398,0.169 -0.398,0.399 v 0.986 c 0,0.23 0.167,0.399 0.398,0.399 h 4.737 c -0.461,0.585 -0.943,1.466 -0.943,2.681 0,2.222 1.362,2.977 3.562,2.977 h 6.73 C -0.168,0.399 0,0.232 0,0"
           fill="#5d5452"
           id="path2199" /></g><g
         transform="translate(2055.2,3364.4)"
         id="g2205"><path
           d="m 0,0 v -7.41 c 0,-0.186 -0.167,-0.32 -0.397,-0.32 h -0.777 c -0.23,0 -0.399,0.134 -0.399,0.32 V 0 c 0,0.184 0.169,0.319 0.399,0.319 h 0.777 C -0.167,0.319 0,0.184 0,0"
           fill="#5d5452"
           id="path2203" /></g><g
         transform="translate(2051.7,3376.4)"
         id="g2209"><path
           d="m 0,0 c -1.613,0 -3.144,-0.755 -3.144,-2.829 v -2.83 H 8.384 v 2.83 C 8.384,-0.755 6.855,0 5.24,0 Z m 10.062,-2.829 v -4.214 c 0,-0.23 -0.167,-0.399 -0.397,-0.399 H -4.422 c -0.231,0 -0.398,0.169 -0.398,0.399 v 4.214 c 0,3.206 2.033,4.61 4.82,4.61 h 5.24 c 2.788,0 4.822,-1.404 4.822,-4.61"
           fill="#5d5452"
           id="path2207" /></g><g
         transform="translate(2053,3386.6)"
         id="g2213"><path
           d="m 0,0 c 0,0 -0.021,-0.02 -0.021,-0.293 0,-1.07 0.859,-1.823 1.676,-2.284 h 6.689 c 0.229,0 0.397,-0.169 0.397,-0.399 V -3.961 C 8.741,-4.192 8.573,-4.36 8.344,-4.36 H -1.34 c -0.233,0 -0.399,0.168 -0.399,0.399 v 0.985 c 0,0.23 0.166,0.399 0.399,0.399 h 0.963 c -0.797,0.355 -1.572,1.006 -1.572,2.22 0,0.148 0.042,0.357 0.042,0.357 0.042,0.252 0.188,0.356 0.418,0.356 h 1.133 C -0.126,0.356 0.021,0.231 0,0"
           fill="#5d5452"
           id="path2211" /></g><g
         transform="translate(2055.3,3395.4)"
         id="g2217"><path
           d="m 0,0 c -1.383,0 -2.768,-0.335 -2.768,-1.866 0,-1.676 1.363,-2.054 3.166,-2.075 V 0 Z m 1.803,1.32 v -5.261 c 2.2,0.042 3.185,0.986 3.185,2.516 0,1.006 -0.272,2.327 -0.272,2.327 C 4.674,1.132 4.82,1.3 5.051,1.3 h 0.88 c 0.231,0 0.356,-0.147 0.42,-0.398 0,0 0.271,-1.279 0.271,-2.39 0,-2.493 -1.445,-4.235 -5.071,-4.235 h -0.88 c -3.06,0 -4.947,1.175 -4.947,3.838 0,2.598 1.887,3.604 4.338,3.604 h 1.342 c 0.23,0 0.399,-0.168 0.399,-0.399"
           fill="#5d5452"
           id="path2215" /></g><g
         transform="translate(2061.8,3402.2)"
         id="g2221"><path
           d="m 0,0 v -0.985 c 0,-0.231 -0.168,-0.399 -0.398,-0.399 h -9.683 c -0.233,0 -0.399,0.168 -0.399,0.399 V 0 c 0,0.23 0.166,0.399 0.399,0.399 h 9.683 C -0.168,0.399 0,0.23 0,0 m -13.101,0 v -0.985 c 0,-0.231 -0.168,-0.399 -0.398,-0.399 h -0.985 c -0.231,0 -0.398,0.168 -0.398,0.399 V 0 c 0,0.23 0.167,0.399 0.398,0.399 h 0.985 c 0.23,0 0.398,-0.169 0.398,-0.399"
           fill="#5d5452"
           id="path2219" /></g><g
         transform="translate(2061.8,3408)"
         id="g2225"><path
           d="m 0,0 v -0.986 c 0,-0.23 -0.168,-0.399 -0.398,-0.399 h -14.086 c -0.231,0 -0.398,0.169 -0.398,0.399 V 0 c 0,0.23 0.167,0.399 0.398,0.399 H -0.398 C -0.168,0.399 0,0.23 0,0"
           fill="#5d5452"
           id="path2223" /></g><g
         transform="translate(2048.7,3418.1)"
         id="g2229"><path
           d="m 0,0 v -0.986 c 0,-0.231 -0.168,-0.397 -0.398,-0.397 h -0.985 c -0.232,0 -0.398,0.166 -0.398,0.397 V 0 c 0,0.23 0.166,0.398 0.398,0.398 h 0.985 C -0.168,0.398 0,0.23 0,0 m 8.594,-0.441 v -2.096 c 0,-1.279 0.565,-1.782 1.677,-1.782 0.922,0 1.467,0.525 1.467,1.573 0,0.754 -0.356,1.614 -0.713,2.305 z M 0,-3.564 v -0.985 c 0,-0.23 -0.168,-0.398 -0.398,-0.398 h -0.985 c -0.232,0 -0.398,0.168 -0.398,0.398 v 0.985 c 0,0.231 0.166,0.398 0.398,0.398 h 0.985 C -0.168,-3.166 0,-3.333 0,-3.564 m 13.101,4.507 v -0.985 c 0,-0.231 -0.168,-0.399 -0.398,-0.399 h -0.232 c 0.44,-0.649 0.838,-1.509 0.838,-2.515 0,-2.012 -1.09,-3.144 -3.038,-3.144 -2.202,0 -3.187,1.236 -3.187,3.523 0,0.733 0.106,2.136 0.106,2.136 H 6.078 c -1.236,0 -1.991,-0.482 -1.991,-1.885 0,-1.363 0.335,-2.746 0.335,-2.746 C 4.485,-5.367 4.319,-5.47 4.087,-5.47 H 3.29 c -0.23,0 -0.376,0.146 -0.439,0.398 0,0 -0.44,1.195 -0.44,2.913 0,2.473 1.236,3.501 3.667,3.501 h 6.625 c 0.23,0 0.398,-0.169 0.398,-0.399"
           fill="#5d5452"
           id="path2227" /></g><g
         transform="translate(2061.8,3430.4)"
         id="g2233"><path
           d="m 0,0 v -0.985 c 0,-0.231 -0.168,-0.397 -0.398,-0.397 h -6.73 c -1.11,0 -1.865,-0.273 -1.865,-1.593 0,-0.797 0.399,-1.635 0.775,-2.284 h 7.82 C -0.168,-5.259 0,-5.428 0,-5.658 v -0.986 c 0,-0.23 -0.168,-0.399 -0.398,-0.399 h -9.683 c -0.233,0 -0.399,0.169 -0.399,0.399 v 0.986 c 0,0.23 0.166,0.399 0.399,0.399 h 0.334 c -0.461,0.585 -0.943,1.466 -0.943,2.682 0,2.221 1.362,2.976 3.562,2.976 h 6.73 C -0.168,0.399 0,0.231 0,0"
           fill="#5d5452"
           id="path2231" /></g><g
         transform="translate(2053.2,3440.5)"
         id="g2237"><path
           d="m 0,0 c -0.273,-0.65 -0.525,-1.405 -0.525,-2.096 0,-1.278 0.881,-1.781 1.991,-1.781 H 5.24 c 1.11,0 1.991,0.503 1.991,1.781 0,0.691 -0.294,1.446 -0.608,2.096 z M 8.594,1.382 V 0.398 C 8.594,0.168 8.426,0 8.196,0 H 8.091 C 8.467,-0.608 8.802,-1.405 8.802,-2.306 8.802,-4.591 7.44,-5.66 5.24,-5.66 H 1.466 c -2.2,0 -3.562,1.069 -3.562,3.354 0,0.901 0.293,1.698 0.627,2.306 h -4.422 c -0.231,0 -0.397,0.168 -0.397,0.398 v 0.984 c 0,0.233 0.166,0.399 0.397,0.399 H 8.196 c 0.23,0 0.398,-0.166 0.398,-0.399"
           fill="#5d5452"
           id="path2235" /></g><g
         transform="translate(2055.3,3451.8)"
         id="g2241"><path
           d="m 0,0 c -1.383,0 -2.768,-0.334 -2.768,-1.866 0,-1.676 1.363,-2.053 3.166,-2.074 V 0 Z M 1.803,1.321 V -3.94 c 2.2,0.041 3.185,0.985 3.185,2.516 0,1.005 -0.272,2.326 -0.272,2.326 C 4.674,1.132 4.82,1.3 5.051,1.3 h 0.88 c 0.231,0 0.356,-0.146 0.42,-0.398 0,0 0.271,-1.278 0.271,-2.39 0,-2.493 -1.445,-4.233 -5.071,-4.233 h -0.88 c -3.06,0 -4.947,1.173 -4.947,3.836 0,2.599 1.887,3.605 4.338,3.605 h 1.342 c 0.23,0 0.399,-0.169 0.399,-0.399"
           fill="#5d5452"
           id="path2239" /></g><g
         transform="translate(2053,3461.6)"
         id="g2245"><path
           d="m 0,0 c 0,0 -0.021,-0.021 -0.021,-0.295 0,-1.068 0.859,-1.822 1.676,-2.284 h 6.689 c 0.229,0 0.397,-0.167 0.397,-0.399 v -0.984 c 0,-0.23 -0.168,-0.399 -0.397,-0.399 H -1.34 c -0.233,0 -0.399,0.169 -0.399,0.399 v 0.984 c 0,0.232 0.166,0.399 0.399,0.399 h 0.963 c -0.797,0.356 -1.572,1.006 -1.572,2.222 0,0.148 0.042,0.357 0.042,0.357 0.042,0.252 0.188,0.355 0.418,0.355 h 1.133 C -0.126,0.355 0.021,0.23 0,0"
           fill="#5d5452"
           id="path2243" /></g><g
         transform="translate(2055.3,3470.4)"
         id="g2249"><path
           d="m 0,0 c -1.383,0 -2.768,-0.334 -2.768,-1.865 0,-1.677 1.363,-2.054 3.166,-2.076 V 0 Z m 1.803,1.321 v -5.262 c 2.2,0.042 3.185,0.986 3.185,2.517 0,1.006 -0.272,2.326 -0.272,2.326 C 4.674,1.133 4.82,1.3 5.051,1.3 h 0.88 c 0.231,0 0.356,-0.147 0.42,-0.398 0,0 0.271,-1.278 0.271,-2.39 0,-2.493 -1.445,-4.234 -5.071,-4.234 h -0.88 c -3.06,0 -4.947,1.174 -4.947,3.837 0,2.599 1.887,3.605 4.338,3.605 h 1.342 c 0.23,0 0.399,-0.169 0.399,-0.399"
           fill="#5d5452"
           id="path2247" /></g><g
         transform="translate(2061.8,3481.4)"
         id="g2253"><path
           d="m 0,0 c 0,0 0.188,-0.944 0.188,-1.802 0,-2.41 -1.424,-3.669 -3.772,-3.669 h -3.354 c -2.348,0 -3.772,1.259 -3.772,3.669 0,0.985 0.188,1.802 0.188,1.802 0.042,0.272 0.209,0.399 0.439,0.399 h 0.86 c 0.23,0 0.336,-0.168 0.316,-0.419 0,0 -0.127,-0.86 -0.127,-1.677 0,-1.427 0.901,-1.992 2.096,-1.992 h 3.354 c 1.195,0 2.096,0.545 2.096,1.992 0,0.817 -0.127,1.718 -0.127,1.718 -0.02,0.251 0.085,0.378 0.315,0.378 h 0.86 C -0.21,0.399 -0.063,0.293 0,0"
           fill="#5d5452"
           id="path2251" /></g><g
         transform="translate(2061.8,3492.1)"
         id="g2257"><path
           d="m 0,0 v -1.195 c 0,-0.23 -0.189,-0.398 -0.379,-0.524 l -5.491,-3.312 -4.211,3.039 c -0.191,0.127 -0.399,0.337 -0.399,0.567 v 1.195 c 0,0.23 0.208,0.356 0.399,0.23 l 4.211,-3.039 5.491,3.312 C -0.189,0.397 0,0.231 0,0 M 0,-5.554 V -6.54 c 0,-0.23 -0.168,-0.398 -0.398,-0.398 h -14.086 c -0.231,0 -0.398,0.168 -0.398,0.398 v 0.986 c 0,0.23 0.167,0.399 0.398,0.399 H -0.398 C -0.168,-5.155 0,-5.324 0,-5.554"
           fill="#5d5452"
           id="path2255" /></g><g
         transform="translate(1973,3171.1)"
         id="g2261"><path
           d="m 0,0 c -3.814,0 -6.484,-1.526 -6.484,-5.722 0,-2.06 0.762,-4.425 1.754,-6.486 h 22.506 v 5.874 C 17.776,-1.756 15.259,0 11.444,0 Z m 25.025,-5.798 c 0,-1.45 -0.229,-3.967 -0.535,-6.41 h 13.582 c 0.837,0 1.448,-0.61 1.448,-1.449 v -5.494 c 0,-0.839 -0.611,-1.449 -1.448,-1.449 h -49.745 c -0.839,0 -1.451,0.61 -1.451,1.449 v 5.113 c 0,0.839 0.612,1.449 1.451,1.449 h 0.381 c -1.449,2.365 -2.594,5.341 -2.594,8.621 0,8.469 5.188,12.36 13.351,12.36 h 12.208 c 8.468,0 13.352,-4.73 13.352,-14.19"
           fill="#5d5452"
           id="path2259" /></g><g
         transform="translate(1998,3217.7)"
         id="g2265"><path
           d="m 0,0 v -5.494 c 0,-0.839 -0.609,-1.449 -1.449,-1.449 h -23.728 c -3.586,0 -5.875,-1.068 -5.875,-5.111 0,-2.367 1.068,-4.96 2.213,-7.097 h 27.39 c 0.84,0 1.449,-0.609 1.449,-1.448 v -5.495 c 0,-0.838 -0.609,-1.448 -1.449,-1.448 H -51.77 c -0.84,0 -1.449,0.61 -1.449,1.448 v 5.495 c 0,0.839 0.609,1.448 1.449,1.448 h 15.912 c -1.603,2.213 -3.053,5.341 -3.053,9.462 0,8.316 5.035,11.138 12.972,11.138 h 24.49 C -0.609,1.449 0,0.839 0,0"
           fill="#5d5452"
           id="path2263" /></g><g
         transform="translate(1974.7,3270)"
         id="g2269"><path
           d="m 0,0 c -4.731,0 -8.544,-1.144 -8.544,-6.027 0,-5.264 3.89,-6.56 9.765,-6.638 V 0 Z m 7.401,-21.056 v -6.41 c 0,-4.119 1.754,-5.799 5.036,-5.799 2.898,0 4.577,1.68 4.577,5.037 0,2.822 -1.374,5.951 -2.748,8.392 -1.983,-0.686 -4.195,-1.068 -6.865,-1.22 M 7.478,6.485 v -19.072 c 6.103,0.381 8.925,3.127 8.925,8.316 0,3.89 -0.99,9.231 -0.99,9.231 -0.154,0.839 0.381,1.45 1.22,1.45 h 4.883 c 0.84,0 1.296,-0.534 1.525,-1.45 0,0 1.069,-5.112 1.069,-9.69 0,-5.416 -1.679,-9.842 -5.418,-12.742 2.213,-2.44 5.418,-6.941 5.418,-12.434 0,-7.401 -3.739,-11.75 -11.445,-11.75 -7.859,0 -11.749,4.806 -11.749,13.275 0,2.822 0.152,5.264 0.457,7.325 h -3.051 c -3.968,0 -6.104,-1.756 -6.104,-6.257 0,-4.501 1.296,-10.223 1.296,-10.223 0.23,-0.916 -0.381,-1.451 -1.22,-1.451 h -4.654 c -0.84,0 -1.373,0.535 -1.602,1.451 0,0 -1.603,4.959 -1.603,11.368 0,4.883 1.145,8.163 3.435,10.224 -2.214,2.364 -3.435,5.645 -3.435,9.765 0,10.07 7.021,14.114 15.947,14.114 h 5.645 c 0.84,0 1.451,-0.61 1.451,-1.45"
           fill="#f68712"
           id="path2267" /></g><g
         transform="translate(1998,3315.8)"
         id="g2273"><path
           d="m 0,0 v -5.494 c 0,-0.839 -0.609,-1.449 -1.449,-1.449 h -23.728 c -3.586,0 -5.875,-1.067 -5.875,-5.111 0,-2.367 1.068,-4.96 2.213,-7.097 h 27.39 c 0.84,0 1.449,-0.609 1.449,-1.448 v -5.495 c 0,-0.838 -0.609,-1.448 -1.449,-1.448 h -35.249 c -0.839,0 -1.45,0.61 -1.45,1.448 v 5.113 c 0,0.84 0.611,1.448 1.45,1.448 h 1.144 c -1.679,2.214 -3.357,5.493 -3.357,9.843 0,8.317 5.035,11.139 12.972,11.139 h 24.49 C -0.609,1.449 0,0.838 0,0"
           fill="#5d5452"
           id="path2271" /></g><g
         transform="translate(1973.5,3348.1)"
         id="g2277"><path
           d="m 0,0 c -3.891,0 -7.02,-1.525 -7.02,-6.102 0,-4.578 3.129,-6.105 7.02,-6.105 h 10.909 c 3.892,0 7.02,1.527 7.02,6.105 0,4.577 -3.128,6.102 -7.02,6.102 z m 25.33,-6.102 c 0,-9.232 -5.036,-14.497 -14.497,-14.497 H 0.152 c -9.461,0 -14.497,5.188 -14.497,14.497 0,9.23 5.036,14.496 14.497,14.496 h 10.681 c 9.461,0 14.497,-5.189 14.497,-14.496"
           fill="#5d5452"
           id="path2275" /></g><g
         transform="translate(1996.6,3384.6)"
         id="g2281"><path
           d="m 0,0 c 0.84,-0.226 1.449,-0.915 1.449,-1.755 v -7.783 c 0,-0.837 -0.609,-1.6 -1.449,-1.828 l -35.172,-11.141 c -0.839,-0.228 -1.527,0.229 -1.527,1.144 v 6.029 c 0,0.84 0.534,1.45 1.374,1.678 l 26.322,8.011 -26.322,7.935 c -0.84,0.23 -1.374,0.915 -1.374,1.755 v 5.951 c 0,0.914 0.688,1.451 1.527,1.221 z"
           fill="#5d5452"
           id="path2279" /></g><g
         transform="translate(1998,3430.3)"
         id="g2285"><path
           d="m 0,0 v -5.111 c 0,-0.839 -0.609,-1.45 -1.449,-1.45 h -1.144 c 1.677,-2.211 3.357,-5.493 3.357,-9.842 0,-8.316 -5.037,-11.138 -12.972,-11.138 h -24.49 c -0.839,0 -1.45,0.609 -1.45,1.448 v 5.496 c 0,0.837 0.611,1.448 1.45,1.448 h 23.728 c 3.586,0 5.875,1.069 5.875,5.111 0,2.365 -1.068,4.959 -2.212,7.097 h -27.391 c -0.839,0 -1.45,0.608 -1.45,1.448 V 0 c 0,0.841 0.611,1.45 1.45,1.45 H -1.449 C -0.609,1.45 0,0.841 0,0"
           fill="#5d5452"
           id="path2283" /></g><g
         transform="translate(1998,3490.6)"
         id="g2289"><path
           d="m 0,0 v -5.493 c 0,-0.838 -0.609,-1.45 -1.449,-1.45 h -23.728 c -3.586,0 -5.875,-1.067 -5.875,-5.112 0,-2.517 1.297,-5.034 2.67,-7.17 0.763,0.075 1.603,0.075 2.443,0.075 h 24.49 c 0.84,0 1.449,-0.61 1.449,-1.451 v -5.493 c 0,-0.837 -0.609,-1.449 -1.449,-1.449 h -23.728 c -3.586,0 -5.875,-1.067 -5.875,-5.112 0,-2.365 1.068,-4.96 2.213,-7.095 h 27.39 c 0.84,0 1.449,-0.609 1.449,-1.448 v -5.495 c 0,-0.838 -0.609,-1.449 -1.449,-1.449 h -35.249 c -0.839,0 -1.45,0.611 -1.45,1.449 v 5.114 c 0,0.837 0.611,1.448 1.45,1.448 h 1.144 c -1.679,2.212 -3.357,5.493 -3.357,9.844 0,4.73 1.602,7.703 4.502,9.382 -1.985,2.137 -4.502,5.877 -4.502,11.216 0,8.315 5.035,11.139 12.972,11.139 h 24.49 C -0.609,1.45 0,0.84 0,0"
           fill="#5d5452"
           id="path2287" /></g></g></g><g
     transform="matrix(0.375,0,0,0.375,13.126,12.256)"
     id="g2313"><path
       class="cls-1"
       transform="translate(-72.26,-35.01)"
       d="m 601.34,41.88 a 21.25,21.25 0 0 1 6.26,-2.59 49.66,49.66 0 0 1 11.91,-1.19 h 18.3 v 18.31 h -18.3 a 16.73,16.73 0 0 0 -3.93,0.36 3.21,3.21 0 0 0 -1.32,0.62 2.68,2.68 0 0 0 -0.59,1.22 16.17,16.17 0 0 0 -0.32,3.61 v 0.6 h 51.3 v 17.6 h -51.3 v 0.78 a 16.38,16.38 0 0 0 0.31,3.7 2.38,2.38 0 0 0 0.52,1.14 3.18,3.18 0 0 0 1.29,0.56 18.89,18.89 0 0 0 4,0.32 H 665 v 18.31 H 619.51 A 49.74,49.74 0 0 1 607.59,104 19.32,19.32 0 0 1 599,99.67 a 17,17 0 0 1 -4.71,-8 38.82,38.82 0 0 1 -1.22,-10.58 V 62.22 a 44.87,44.87 0 0 1 0.65,-8.17 l -28.1,45.14 a 20.11,20.11 0 0 1 -2.9,3.72 12.26,12.26 0 0 1 -4.34,2.74 16.06,16.06 0 0 1 -5.59,0.9 16.28,16.28 0 0 1 -5.63,-0.9 12.12,12.12 0 0 1 -4.32,-2.75 A 20,20 0 0 1 540,99.18 L 502.08,38.1 h 24.4 l 26.57,43.36 26.49,-43.36 h 24.16 z m -447.9,20.36 a 16.49,16.49 0 0 1 4.1,-6.2 19.31,19.31 0 0 1 8.59,-4.39 49.53,49.53 0 0 1 11.87,-1.19 h 16 a 49.65,49.65 0 0 1 12,1.19 19.23,19.23 0 0 1 8.59,4.35 17.23,17.23 0 0 1 4.71,8 39.64,39.64 0 0 1 1.22,10.68 v 6.36 a 39.34,39.34 0 0 1 -1.22,10.66 17.06,17.06 0 0 1 -4.72,8 19.31,19.31 0 0 1 -8.58,4.3 50.15,50.15 0 0 1 -12,1.19 h -16 a 49.53,49.53 0 0 1 -11.9,-1.19 19.34,19.34 0 0 1 -8.58,-4.37 17,17 0 0 1 -4.71,-8 38.82,38.82 0 0 1 -1.22,-10.58 v -7 a 15.13,15.13 0 0 1 -5.53,6.65 23.13,23.13 0 0 1 -8.76,3.3 57.68,57.68 0 0 1 -9,0.81 l 35.35,20.42 h -37 L 95.88,86.1 v 19.13 H 75.62 V 38.1 h 50.61 a 64.46,64.46 0 0 1 11.44,0.85 21.87,21.87 0 0 1 8.75,3.4 15,15 0 0 1 5.45,7.15 28.69,28.69 0 0 1 1.57,10.16 z M 436.79,98 470.51,44.35 a 21,21 0 0 1 2.84,-3.67 13,13 0 0 1 4.37,-2.85 17.31,17.31 0 0 1 11.71,0 13,13 0 0 1 4.32,2.85 20.29,20.29 0 0 1 2.84,3.68 l 38.1,60.91 H 511 l -1,-1.61 C 501,89.36 492.18,74.91 483.35,60.49 Q 470.12,82 456.88,103.59 l -1,1.64 H 412.35 L 381.58,86.1 v 19.13 H 361.32 V 38.1 h 50.61 a 64.46,64.46 0 0 1 11.44,0.85 21.92,21.92 0 0 1 8.75,3.4 15,15 0 0 1 5.45,7.15 28.69,28.69 0 0 1 1.57,10.16 v 4.15 a 25.94,25.94 0 0 1 -1.7,10 15.07,15.07 0 0 1 -5.65,6.94 A 23.13,23.13 0 0 1 423,84 57.68,57.68 0 0 1 414,84.81 Z M 483.34,71.92 A 11.35,11.35 0 1 1 472,83.23 11.35,11.35 0 0 1 483.34,71.88 Z m -242,-21.42 h 23.11 a 49.6,49.6 0 0 1 12,1.19 19.28,19.28 0 0 1 8.55,4.31 17.17,17.17 0 0 1 4.71,8 39.23,39.23 0 0 1 1.29,10.67 v 6.44 a 39.22,39.22 0 0 1 -1.22,10.58 17,17 0 0 1 -4.72,8 19.31,19.31 0 0 1 -8.6,4.37 50.1,50.1 0 0 1 -12,1.19 h -16.79 a 49.66,49.66 0 0 1 -11.91,-1.25 19.3,19.3 0 0 1 -8.57,-4.37 16.9,16.9 0 0 1 -4.71,-8 38.82,38.82 0 0 1 -1.22,-10.58 V 35 h 20.07 v 15.46 z m 92.57,54.77 h -16 A 49.53,49.53 0 0 1 306,104 a 19.34,19.34 0 0 1 -8.58,-4.37 17,17 0 0 1 -4.71,-8 38.82,38.82 0 0 1 -1.22,-10.58 v -6.38 a 39.23,39.23 0 0 1 1.24,-10.67 17.14,17.14 0 0 1 4.71,-8 19.22,19.22 0 0 1 8.56,-4.35 49.53,49.53 0 0 1 11.9,-1.19 h 16 a 49.6,49.6 0 0 1 12,1.19 19.31,19.31 0 0 1 8.59,4.35 17.21,17.21 0 0 1 4.7,8 39.64,39.64 0 0 1 1.22,10.68 v 6.36 a 39.34,39.34 0 0 1 -1.22,10.59 17.06,17.06 0 0 1 -4.72,8 19.31,19.31 0 0 1 -8.6,4.37 50.1,50.1 0 0 1 -12,1.19 z m 47.68,-48.91 v 11.4 h 29.47 a 38.82,38.82 0 0 0 4.94,-0.23 6,6 0 0 0 2.11,-0.61 1,1 0 0 0 0.38,-0.53 9.15,9.15 0 0 0 0.32,-2.76 v -3.27 a 9.48,9.48 0 0 0 -0.31,-2.76 0.76,0.76 0 0 0 -0.36,-0.46 5.66,5.66 0 0 0 -2.06,-0.58 38.35,38.35 0 0 0 -5,-0.24 z m -285.7,0 v 11.4 h 29.47 a 38.82,38.82 0 0 0 4.94,-0.23 5.9,5.9 0 0 0 2.11,-0.61 1,1 0 0 0 0.38,-0.53 9.15,9.15 0 0 0 0.32,-2.76 v -3.27 a 9.15,9.15 0 0 0 -0.31,-2.76 0.76,0.76 0 0 0 -0.36,-0.46 5.66,5.66 0 0 0 -2.06,-0.58 38.27,38.27 0 0 0 -5,-0.24 z m 104.55,24.4 v -5.65 a 17.75,17.75 0 0 0 -0.36,-4.12 2.44,2.44 0 0 0 -0.67,-1.24 4.67,4.67 0 0 0 -1.95,-0.73 29.25,29.25 0 0 0 -5.21,-0.34 H 179.8 a 28.36,28.36 0 0 0 -5.13,0.34 4.63,4.63 0 0 0 -1.93,0.73 2.42,2.42 0 0 0 -0.67,1.26 16.53,16.53 0 0 0 -0.38,4.1 v 5.65 a 16.42,16.42 0 0 0 0.38,4 2.51,2.51 0 0 0 0.69,1.29 4.65,4.65 0 0 0 1.94,0.75 27.18,27.18 0 0 0 5.1,0.37 h 12.45 a 27.2,27.2 0 0 0 5.18,-0.37 4.69,4.69 0 0 0 2,-0.75 2.48,2.48 0 0 0 0.69,-1.27 17.12,17.12 0 0 0 0.36,-4 z m 40.89,-12.08 v 12.17 a 18.23,18.23 0 0 0 0.33,4 3,3 0 0 0 0.62,1.32 3.39,3.39 0 0 0 1.47,0.63 20.54,20.54 0 0 0 4.36,0.35 H 264 a 21.41,21.41 0 0 0 4.38,-0.35 3.41,3.41 0 0 0 1.51,-0.65 3,3 0 0 0 0.64,-1.34 18.09,18.09 0 0 0 0.34,-4.09 V 75.11 A 18.87,18.87 0 0 0 270.52,70.86 2.79,2.79 0 0 0 269.94,69.59 3.3,3.3 0 0 0 268.46,69 23.79,23.79 0 0 0 264,68.68 Z m 99,12.08 V 75.11 A 17.22,17.22 0 0 0 340,71 a 2.44,2.44 0 0 0 -0.67,-1.24 4.62,4.62 0 0 0 -1.94,-0.73 29.42,29.42 0 0 0 -5.22,-0.34 h -12.48 a 28.42,28.42 0 0 0 -5.13,0.34 4.54,4.54 0 0 0 -1.92,0.73 2.44,2.44 0 0 0 -0.64,1.24 17,17 0 0 0 -0.38,4.1 v 5.65 a 16.42,16.42 0 0 0 0.38,4 2.58,2.58 0 0 0 0.69,1.29 4.64,4.64 0 0 0 2,0.75 27,27 0 0 0 5.09,0.37 h 12.45 a 27.2,27.2 0 0 0 5.18,-0.37 4.69,4.69 0 0 0 2,-0.75 2.48,2.48 0 0 0 0.59,-1.24 17.12,17.12 0 0 0 0.36,-4"
       fill="url(#d)"
       id="path2295"
       style="fill:url(#d)" /><path
       class="cls-2"
       transform="translate(-72.26,-35.01)"
       d="m 437.56,101.07 34.91,-55.53 a 18.56,18.56 0 0 1 2.53,-3.27 10.76,10.76 0 0 1 3.6,-2.34 13.6,13.6 0 0 1 5,-0.85 13.32,13.32 0 0 1 5,0.85 10.6,10.6 0 0 1 3.56,2.34 18.15,18.15 0 0 1 2.52,3.27 l 35.89,57.38 h -18.3 l -0.34,-0.53 C 502.24,87 492.82,71.52 483.33,56 c -9.47,15.45 -18.89,30.92 -28.42,46.34 l -0.33,0.54 H 413 L 379.27,82 v 21 H 363.63 V 40.41 h 48.3 a 62.59,62.59 0 0 1 11,0.81 19.68,19.68 0 0 1 7.83,3 12.77,12.77 0 0 1 4.63,6.08 26.86,26.86 0 0 1 1.41,9.34 v 4.15 a 23.7,23.7 0 0 1 -1.52,9.06 12.8,12.8 0 0 1 -4.79,5.91 20.9,20.9 0 0 1 -7.9,3 62.78,62.78 0 0 1 -10.87,0.8 h -6.29 l 32.1,18.54 z M 93.57,82 v 21 H 77.93 V 40.41 h 48.3 a 62.59,62.59 0 0 1 11,0.81 19.68,19.68 0 0 1 7.83,3 12.71,12.71 0 0 1 4.63,6.08 26.86,26.86 0 0 1 1.41,9.34 v 4.15 a 23.88,23.88 0 0 1 -1.51,9.06 12.89,12.89 0 0 1 -4.8,5.91 20.9,20.9 0 0 1 -7.9,3 62.71,62.71 0 0 1 -10.87,0.8 h -6.29 l 35.32,20.39 h -27.74 z m 389.77,-7.76 a 9,9 0 1 1 -9,9 9,9 0 0 1 9,-9.05 z M 194,102.92 h -16 a 47.45,47.45 0 0 1 -11.34,-1.12 17,17 0 0 1 -7.54,-3.8 14.65,14.65 0 0 1 -4.06,-6.92 37,37 0 0 1 -1.13,-10 v -6.41 a 37.4,37.4 0 0 1 1.13,-10 14.71,14.71 0 0 1 4.06,-6.94 16.9,16.9 0 0 1 7.57,-3.84 47.45,47.45 0 0 1 11.31,-1.12 h 16 a 48.09,48.09 0 0 1 11.41,1.12 17,17 0 0 1 7.6,3.84 15,15 0 0 1 4.06,7 37.77,37.77 0 0 1 1.13,10 v 6.36 a 37,37 0 0 1 -1.13,10 14.71,14.71 0 0 1 -4.07,6.91 17.14,17.14 0 0 1 -7.59,3.82 48.09,48.09 0 0 1 -11.41,1.1 z m 45,-50.15 h 25.42 a 48,48 0 0 1 11.41,1.12 17,17 0 0 1 7.6,3.84 14.84,14.84 0 0 1 4.06,6.94 37.4,37.4 0 0 1 1.13,10 v 6.44 a 37,37 0 0 1 -1.13,10 14.78,14.78 0 0 1 -4.04,6.89 17.17,17.17 0 0 1 -7.6,3.82 48,48 0 0 1 -11.41,1.12 h -16.77 a 47.59,47.59 0 0 1 -11.35,-1.12 17,17 0 0 1 -7.56,-3.82 14.74,14.74 0 0 1 -4.07,-6.92 37,37 0 0 1 -1.13,-10 V 37.32 H 239 Z m 94.88,50.15 h -16 A 47.45,47.45 0 0 1 306.54,101.8 17,17 0 0 1 299,98 a 14.73,14.73 0 0 1 -4,-6.94 37,37 0 0 1 -1.13,-10 v -6.39 a 37.4,37.4 0 0 1 1.13,-10 14.71,14.71 0 0 1 4,-6.94 17,17 0 0 1 7.57,-3.84 47.45,47.45 0 0 1 11.34,-1.12 h 16 a 48,48 0 0 1 11.41,1.12 17,17 0 0 1 7.6,3.84 14.9,14.9 0 0 1 4.06,7 37.77,37.77 0 0 1 1.13,10 v 6.36 a 37,37 0 0 1 -1.13,10 14.78,14.78 0 0 1 -4.07,6.91 17.17,17.17 0 0 1 -7.6,3.82 48,48 0 0 1 -11.41,1.12 z m 219.15,-17 27.79,-45.47 h 18.7 L 563.66,98 a 18.12,18.12 0 0 1 -2.56,3.3 9.81,9.81 0 0 1 -3.52,2.21 13.7,13.7 0 0 1 -4.79,0.77 13.93,13.93 0 0 1 -4.83,-0.77 9.62,9.62 0 0 1 -3.5,-2.22 17.36,17.36 0 0 1 -2.54,-3.3 l -35.7,-57.55 h 19 l 27.86,45.47 z m 58,-20.75 h 51.29 v 13 h -51.27 v 3.03 a 19.21,19.21 0 0 0 0.36,4.22 4.62,4.62 0 0 0 1.16,2.27 5,5 0 0 0 2.43,1.15 21,21 0 0 0 4.55,0.39 h 43.18 v 13.69 h -43.22 a 47.67,47.67 0 0 1 -11.36,-1.12 17,17 0 0 1 -7.55,-3.8 14.73,14.73 0 0 1 -4.06,-6.92 37,37 0 0 1 -1.13,-10 V 62.22 a 37.11,37.11 0 0 1 1.13,-10 14.74,14.74 0 0 1 4.06,-6.91 16.88,16.88 0 0 1 7.56,-3.82 48.06,48.06 0 0 1 11.35,-1.12 h 16 V 54.1 h -16 a 18.93,18.93 0 0 0 -4.5,0.44 5.11,5.11 0 0 0 -2.4,1.23 4.86,4.86 0 0 0 -1.18,2.31 18,18 0 0 0 -0.38,4.14 v 2.91 z M 93.57,54 v 16.07 h 31.78 a 40,40 0 0 0 5.25,-0.26 7.88,7.88 0 0 0 3,-0.92 3.23,3.23 0 0 0 1.4,-1.71 10.9,10.9 0 0 0 0.46,-3.55 v -3.27 a 11.34,11.34 0 0 0 -0.44,-3.52 3.1,3.1 0 0 0 -1.32,-1.66 7.77,7.77 0 0 0 -3,-0.91 41.12,41.12 0 0 0 -5.32,-0.26 z m 109.18,26.76 v -5.65 a 19.38,19.38 0 0 0 -0.44,-4.69 4.49,4.49 0 0 0 -1.41,-2.42 6.52,6.52 0 0 0 -3,-1.25 32.17,32.17 0 0 0 -5.63,-0.38 H 179.8 a 31.27,31.27 0 0 0 -5.55,0.38 6.44,6.44 0 0 0 -3,1.25 4.7,4.7 0 0 0 -1.42,2.43 19.3,19.3 0 0 0 -0.44,4.68 v 5.65 a 18.65,18.65 0 0 0 0.44,4.6 4.76,4.76 0 0 0 1.42,2.45 6.63,6.63 0 0 0 3,1.28 30.2,30.2 0 0 0 5.54,0.4 h 12.45 a 30.19,30.19 0 0 0 5.62,-0.4 6.6,6.6 0 0 0 3,-1.28 4.61,4.61 0 0 0 1.41,-2.44 19.28,19.28 0 0 0 0.44,-4.61 z M 239,66.37 v 14.48 a 20.62,20.62 0 0 0 0.4,4.57 5,5 0 0 0 1.25,2.44 5.3,5.3 0 0 0 2.58,1.23 23.29,23.29 0 0 0 4.86,0.4 H 264 a 23.48,23.48 0 0 0 4.88,-0.4 5.44,5.44 0 0 0 2.61,-1.23 5,5 0 0 0 1.28,-2.47 20.52,20.52 0 0 0 0.41,-4.63 v -5.65 a 21.85,21.85 0 0 0 -0.41,-4.78 4.72,4.72 0 0 0 -1.27,-2.44 5.4,5.4 0 0 0 -2.6,-1.16 26.75,26.75 0 0 0 -4.9,-0.36 z m 103.64,14.39 v -5.65 a 19.38,19.38 0 0 0 -0.44,-4.69 4.49,4.49 0 0 0 -1.41,-2.42 6.52,6.52 0 0 0 -3,-1.25 32.1,32.1 0 0 0 -5.63,-0.38 h -12.47 a 31.09,31.09 0 0 0 -5.54,0.38 6.44,6.44 0 0 0 -3,1.25 4.62,4.62 0 0 0 -1.41,2.43 18.82,18.82 0 0 0 -0.45,4.68 v 5.65 a 18.66,18.66 0 0 0 0.45,4.6 4.68,4.68 0 0 0 1.41,2.45 6.62,6.62 0 0 0 3,1.28 30,30 0 0 0 5.53,0.4 h 12.45 a 30.19,30.19 0 0 0 5.62,-0.4 6.6,6.6 0 0 0 3,-1.28 4.61,4.61 0 0 0 1.41,-2.44 18.78,18.78 0 0 0 0.44,-4.61 z M 379.27,54 v 16.07 h 31.78 a 39.9,39.9 0 0 0 5.24,-0.26 7.88,7.88 0 0 0 3,-0.92 3.17,3.17 0 0 0 1.34,-1.71 10.9,10.9 0 0 0 0.46,-3.55 v -3.27 a 11.33,11.33 0 0 0 -0.43,-3.52 3.1,3.1 0 0 0 -1.32,-1.66 7.77,7.77 0 0 0 -3,-0.91 41.21,41.21 0 0 0 -5.32,-0.26 z"
       fill="url(#c)"
       id="path2297"
       style="fill:url(#c)" /><path
       class="cls-3"
       transform="translate(-72.26,-35.01)"
       d="M 150.77,101.77 115.46,81.38 h 10.59 a 61.36,61.36 0 0 0 10.67,-0.78 19.7,19.7 0 0 0 7.46,-2.79 11.6,11.6 0 0 0 4.37,-5.38 22.34,22.34 0 0 0 1.45,-8.62 v -4.15 a 25,25 0 0 0 -1.34,-8.93 11.66,11.66 0 0 0 -4.21,-5.55 18.54,18.54 0 0 0 -7.37,-2.83 60.67,60.67 0 0 0 -10.83,-0.79 H 79.09 v 60.21 h 13.33 v -21.9 l 35.22,21.9 z M 136.56,63.63 a 11.47,11.47 0 0 1 -0.53,3.94 4.35,4.35 0 0 1 -1.83,2.3 8.66,8.66 0 0 1 -3.45,1.13 39.53,39.53 0 0 1 -5.4,0.26 H 92.42 v -18.4 h 32.93 a 40.37,40.37 0 0 1 5.47,0.26 8.61,8.61 0 0 1 3.44,1.08 4.24,4.24 0 0 1 1.8,2.26 12.16,12.16 0 0 1 0.5,3.9 z M 194,101.77 a 46.11,46.11 0 0 0 11.13,-1.09 16.1,16.1 0 0 0 7.09,-3.54 13.63,13.63 0 0 0 3.78,-6.39 35.14,35.14 0 0 0 1.08,-9.64 V 74.75 A 35.82,35.82 0 0 0 216,65 13.7,13.7 0 0 0 212.26,58.56 15.91,15.91 0 0 0 205.14,55 46.11,46.11 0 0 0 194,53.92 h -16 a 45.6,45.6 0 0 0 -11,1.08 15.78,15.78 0 0 0 -7.07,3.56 13.55,13.55 0 0 0 -3.76,6.44 35.35,35.35 0 0 0 -1.09,9.69 v 6.44 a 35.11,35.11 0 0 0 1.09,9.64 13.53,13.53 0 0 0 3.73,6.39 16,16 0 0 0 7.07,3.54 45.6,45.6 0 0 0 11.03,1.07 z m 9.89,-21 a 20,20 0 0 1 -0.47,4.9 5.89,5.89 0 0 1 -1.78,3 7.67,7.67 0 0 1 -3.56,1.53 31.33,31.33 0 0 1 -5.84,0.43 H 179.8 a 30.5,30.5 0 0 1 -5.75,-0.43 7.72,7.72 0 0 1 -3.55,-1.53 6,6 0 0 1 -1.78,-3 19.38,19.38 0 0 1 -0.49,-4.9 v -5.66 a 19.8,19.8 0 0 1 0.49,-5 5.78,5.78 0 0 1 1.78,-3 7.5,7.5 0 0 1 3.55,-1.5 30.82,30.82 0 0 1 5.75,-0.4 h 12.45 a 31.67,31.67 0 0 1 5.84,0.4 7.46,7.46 0 0 1 3.56,1.5 5.71,5.71 0 0 1 1.78,3 20.4,20.4 0 0 1 0.47,5 z m 60.54,21 a 46.05,46.05 0 0 0 11.13,-1.09 16.1,16.1 0 0 0 7.09,-3.54 13.63,13.63 0 0 0 3.74,-6.39 35.5,35.5 0 0 0 1.09,-9.64 V 74.67 A 35.74,35.74 0 0 0 286.4,65 13.65,13.65 0 0 0 282.66,58.59 15.91,15.91 0 0 0 275.57,55 46.05,46.05 0 0 0 264.44,53.91 H 237.87 V 38.47 h -13.15 v 42.64 a 35.14,35.14 0 0 0 1.08,9.64 13.55,13.55 0 0 0 3.74,6.39 15.93,15.93 0 0 0 7.06,3.54 45.69,45.69 0 0 0 11.07,1.09 z m 9.89,-21 a 20.64,20.64 0 0 1 -0.44,4.9 6.2,6.2 0 0 1 -1.6,3 6.68,6.68 0 0 1 -3.17,1.53 24.38,24.38 0 0 1 -5.12,0.43 h -15.88 a 24,24 0 0 1 -5.1,-0.43 6.48,6.48 0 0 1 -3.14,-1.53 6.14,6.14 0 0 1 -1.57,-3 21.19,21.19 0 0 1 -0.43,-4.84 V 65.22 H 264 a 26.28,26.28 0 0 1 5.12,0.38 6.62,6.62 0 0 1 3.17,1.4 5.91,5.91 0 0 1 1.6,3 21.52,21.52 0 0 1 0.44,5 v 5.65 z m 59.57,21 a 46.05,46.05 0 0 0 11.11,-1.09 16.1,16.1 0 0 0 7.09,-3.54 13.63,13.63 0 0 0 3.74,-6.39 35.5,35.5 0 0 0 1.17,-9.64 V 74.75 A 36.18,36.18 0 0 0 355.86,65 13.7,13.7 0 0 0 352.12,58.56 15.91,15.91 0 0 0 345,55 46.05,46.05 0 0 0 333.87,53.91 h -16 A 45.6,45.6 0 0 0 306.86,55 15.69,15.69 0 0 0 299.8,58.56 13.56,13.56 0 0 0 296.06,65 35.74,35.74 0 0 0 295,74.67 v 6.44 a 35.5,35.5 0 0 0 1.09,9.64 13.55,13.55 0 0 0 3.74,6.39 15.87,15.87 0 0 0 7.06,3.54 45.6,45.6 0 0 0 11.06,1.09 z m 9.89,-21 a 20,20 0 0 1 -0.47,4.9 5.89,5.89 0 0 1 -1.78,3 7.67,7.67 0 0 1 -3.53,1.55 31.33,31.33 0 0 1 -5.84,0.43 h -12.47 a 30.57,30.57 0 0 1 -5.75,-0.43 7.72,7.72 0 0 1 -3.55,-1.53 6,6 0 0 1 -1.78,-3 19.38,19.38 0 0 1 -0.49,-4.9 v -5.68 a 19.8,19.8 0 0 1 0.49,-5 5.78,5.78 0 0 1 1.78,-3 7.5,7.5 0 0 1 3.55,-1.5 30.89,30.89 0 0 1 5.75,-0.4 h 12.45 a 31.67,31.67 0 0 1 5.84,0.4 7.46,7.46 0 0 1 3.56,1.5 5.71,5.71 0 0 1 1.78,3 20.4,20.4 0 0 1 0.47,5 z"
       fill="url(#b)"
       id="path2299"
       style="fill:url(#b)" /><path
       class="cls-4"
       transform="translate(-72.26,-35.01)"
       d="m 483.34,75.34 a 7.89,7.89 0 1 1 -7.88,7.89 7.89,7.89 0 0 1 7.88,-7.89 z m -46.87,26.43 -35.31,-20.39 h 10.59 a 61.36,61.36 0 0 0 10.67,-0.78 19.7,19.7 0 0 0 7.46,-2.79 11.6,11.6 0 0 0 4.37,-5.38 22.34,22.34 0 0 0 1.43,-8.62 v -4.15 a 25,25 0 0 0 -1.34,-8.93 11.66,11.66 0 0 0 -4.21,-5.55 18.54,18.54 0 0 0 -7.37,-2.83 60.67,60.67 0 0 0 -10.83,-0.79 h -47.15 v 60.21 h 13.34 v -21.9 l 35.22,21.9 z M 422.26,63.63 a 11.47,11.47 0 0 1 -0.53,3.94 4.35,4.35 0 0 1 -1.83,2.3 8.66,8.66 0 0 1 -3.45,1.13 39.62,39.62 0 0 1 -5.4,0.26 h -32.93 v -18.4 h 32.93 a 40.37,40.37 0 0 1 5.47,0.26 8.66,8.66 0 0 1 3.48,1.08 4.29,4.29 0 0 1 1.8,2.26 12.16,12.16 0 0 1 0.5,3.9 v 3.27 z m 90.65,38.14 h 15.53 L 493.66,46.15 A 15.5,15.5 0 0 0 491.31,43.09 9.66,9.66 0 0 0 488.13,41 12.52,12.52 0 0 0 483.6,40.23 12.89,12.89 0 0 0 479,41 a 9.45,9.45 0 0 0 -3.2,2.09 15.17,15.17 0 0 0 -2.36,3.06 l -35,55.62 h 15.45 c 10.32,-16.7 19.14,-31.21 29.4,-47.94 11.71,18.99 17.94,29.42 29.62,47.94 z m 84.55,-60.21 h -16 L 553.06,88.09 524.54,41.56 H 508.3 l 34.6,55.8 a 15.55,15.55 0 0 0 2.37,3.09 8.52,8.52 0 0 0 3.09,2 14.44,14.44 0 0 0 8.82,0 8.73,8.73 0 0 0 3.12,-2 16,16 0 0 0 2.38,-3.09 z m 64.08,60.21 V 90.38 h -42 A 21.51,21.51 0 0 1 614.7,90 a 6,6 0 0 1 -2.94,-1.46 5.6,5.6 0 0 1 -1.47,-2.82 19.69,19.69 0 0 1 -0.4,-4.49 V 77 h 51.3 V 66.28 h -51.3 v -4.06 a 19.07,19.07 0 0 1 0.41,-4.4 5.94,5.94 0 0 1 1.49,-2.82 6.07,6.07 0 0 1 2.94,-1.54 18.48,18.48 0 0 1 4.78,-0.47 h 14.84 V 41.56 h -14.84 a 45.89,45.89 0 0 0 -11.08,1.09 15.7,15.7 0 0 0 -7,3.54 13.55,13.55 0 0 0 -3.74,6.39 35.4,35.4 0 0 0 -1.09,9.64 v 18.89 a 35.5,35.5 0 0 0 1.09,9.64 13.55,13.55 0 0 0 3.74,6.39 15.9,15.9 0 0 0 7,3.54 46.4,46.4 0 0 0 11.08,1.09 z"
       fill="url(#a)"
       id="path2301"
       style="fill:url(#a)" /><path
       class="cls-5"
       transform="translate(-72.26,-35.01)"
       d="m 157.44,155.07 v -0.64 c 0,-0.85 -0.86,-1.28 -2.55,-1.28 h -10.2 v 3.19 h 10.25 c 1.66,0 2.5,-0.43 2.5,-1.27 z m -4,3.82 h -8.71 v 4.46 a 1.28,1.28 0 0 1 -2.55,0 v -11.47 a 1.13,1.13 0 0 1 1.27,-1.28 h 12.1 q 4.47,0 4.47,3.8 v 0.67 c 0,2.3 -1.22,3.56 -3.64,3.78 l 3,4.5 a 1.71,1.71 0 0 1 0.22,0.71 c 0,0.38 -0.29,0.56 -0.86,0.56 h -0.64 a 1.84,1.84 0 0 1 -1.27,-0.63 l -3.4,-5.1 z m 9.14,-1.89 a 2.25,2.25 0 0 1 2.55,-2.55 h 7.64 a 2.24,2.24 0 0 1 2.55,2.53 v 5.09 a 2.25,2.25 0 0 1 -2.55,2.55 h -7.67 a 2.26,2.26 0 0 1 -2.56,-2.55 z m 10.18,1.28 a 1.12,1.12 0 0 0 -1.27,-1.25 h -5.1 a 1.11,1.11 0 0 0 -1.26,1.25 v 2.58 a 1.1,1.1 0 0 0 1.26,1.24 h 5.1 a 1.13,1.13 0 0 0 1.28,-1.27 v -2.52 z m 7.68,3.79 h 6.36 a 1.12,1.12 0 0 0 1.2,-1.27 v -2.55 a 1.11,1.11 0 0 0 -1.25,-1.27 h -6.35 v 5.09 z m -2.57,2.55 v -12.77 a 1.11,1.11 0 0 1 1.27,-1.25 1.13,1.13 0 0 1 1.28,1.28 v 2.55 h 6.39 q 3.81,0 3.81,3.82 v 2.58 q 0,3.79 -3.82,3.79 z m 15.3,-7.62 a 2.25,2.25 0 0 1 2.55,-2.55 h 7.65 a 2.25,2.25 0 0 1 2.55,2.53 v 5.09 a 2.25,2.25 0 0 1 -2.55,2.55 h -7.64 a 2.26,2.26 0 0 1 -2.56,-2.55 z m 10.18,1.28 A 1.11,1.11 0 0 0 202,157 h -5.1 a 1.11,1.11 0 0 0 -1.26,1.25 v 2.58 a 1.1,1.1 0 0 0 1.26,1.24 h 5.1 a 1.14,1.14 0 0 0 1.29,-1.27 v -2.52 z m 7.66,-3.85 v -2.58 a 1.28,1.28 0 0 1 2.55,0 v 2.57 h 1.6 a 1.28,1.28 0 0 1 0,2.55 h -1.6 v 3.82 a 1.13,1.13 0 0 0 1.28,1.27 1.28,1.28 0 0 1 0,2.55 q -3.83,0 -3.83,-3.82 V 157 h -1.31 a 1.28,1.28 0 0 1 0,-2.55 z m 8.93,0 a 1.12,1.12 0 0 1 1.27,1.27 v 7.64 a 1.13,1.13 0 0 1 -1.28,1.28 1.12,1.12 0 0 1 -1.27,-1.27 v -7.68 a 1.11,1.11 0 0 1 1.28,-1.24 z m 0,-3.83 a 1.28,1.28 0 1 1 -1.28,1.28 1.13,1.13 0 0 1 1.24,-1.28 z m 6.37,3.83 h 8.91 a 2.26,2.26 0 0 1 2.56,2.55 v 0.33 a 1.12,1.12 0 0 1 -1.27,1.25 1.13,1.13 0 0 1 -1.28,-1.28 0.28,0.28 0 0 0 -0.32,-0.31 h -7.32 a 1.13,1.13 0 0 0 -1.28,1.27 v 2.55 a 1.13,1.13 0 0 0 1.28,1.27 h 7.32 a 0.28,0.28 0 0 0 0.32,-0.31 1.12,1.12 0 0 1 1.27,-1.26 1.15,1.15 0 0 1 1.28,1.29 v 0.31 a 2.25,2.25 0 0 1 -2.54,2.55 h -8.92 a 2.26,2.26 0 0 1 -2.55,-2.55 V 157 a 2.25,2.25 0 0 1 2.55,-2.55 z m 17.2,0 H 253 a 1.27,1.27 0 1 1 0,2.54 h -9.55 a 0.58,0.58 0 0 0 -0.64,0.64 0.56,0.56 0 0 0 0.64,0.63 h 7.65 q 3.18,0 3.2,3.22 0.02,3.22 -3.2,3.18 h -9.56 a 1.28,1.28 0 1 1 0,-2.55 h 9.56 a 0.56,0.56 0 0 0 0.64,-0.63 0.58,0.58 0 0 0 -0.64,-0.67 h -7.65 q -3.19,0 -3.19,-3.18 c 0,-2.12 1.06,-3.19 3.18,-3.19 z m 24.88,-3.8 h 10.18 a 2.25,2.25 0 0 1 2.55,2.55 v 0.64 a 1.28,1.28 0 1 1 -2.55,0 0.56,0.56 0 0 0 -0.64,-0.64 h -8.28 v 3.19 h 7.65 a 1.11,1.11 0 0 1 1.26,1.25 1.11,1.11 0 0 1 -1.26,1.25 h -7.65 v 3.18 h 8.27 a 0.56,0.56 0 0 0 0.64,-0.63 1.28,1.28 0 1 1 2.55,0 v 0.63 a 2.25,2.25 0 0 1 -2.55,2.55 h -10.21 a 1.13,1.13 0 0 1 -1.28,-1.27 v -11.5 a 1.12,1.12 0 0 1 1.28,-1.25 z m 25.43,6.37 h -6.39 a 1.11,1.11 0 0 0 -1.25,1.27 v 2.55 a 1.13,1.13 0 0 0 1.28,1.27 h 6.36 z m -6.36,7.64 q -3.82,0 -3.83,-3.82 v -2.55 q 0,-3.83 3.81,-3.82 h 6.39 v -2.55 a 1.28,1.28 0 0 1 2.55,0 v 12.77 z m 24.22,0 h -8.91 q -3.82,0 -3.83,-3.82 v -5.1 a 1.28,1.28 0 0 1 2.55,0 v 5.1 a 1.13,1.13 0 0 0 1.28,1.27 h 6.36 v -6.39 a 1.11,1.11 0 0 1 1.26,-1.27 1.14,1.14 0 0 1 1.29,1.27 z m 5.09,-10.19 h 8.91 a 2.27,2.27 0 0 1 2.57,2.55 v 0.33 a 1.28,1.28 0 0 1 -2.55,0 0.29,0.29 0 0 0 -0.32,-0.31 h -7.33 a 1.13,1.13 0 0 0 -1.28,1.27 v 2.55 a 1.13,1.13 0 0 0 1.28,1.27 h 7.33 a 0.29,0.29 0 0 0 0.32,-0.31 1.11,1.11 0 0 1 1.26,-1.26 1.15,1.15 0 0 1 1.29,1.29 v 0.31 a 2.24,2.24 0 0 1 -2.53,2.55 h -8.93 a 2.25,2.25 0 0 1 -2.54,-2.55 V 157 a 2.25,2.25 0 0 1 2.54,-2.55 z m 23,3.82 A 1.13,1.13 0 0 0 338.49,157 h -6.37 a 1.28,1.28 0 0 1 0,-2.55 h 7.65 a 2.26,2.26 0 0 1 2.55,2.55 v 7.64 h -8.91 a 2.26,2.26 0 0 1 -2.56,-2.55 v -1.29 a 2.25,2.25 0 0 1 2.55,-2.55 z m -5.42,2.55 c -0.64,0 -0.95,0.21 -0.95,0.64 a 0.56,0.56 0 0 0 0.63,0.63 h 5.74 v -1.29 z m 13.07,-6.37 v -2.58 a 1.28,1.28 0 0 1 2.55,0 v 2.57 h 1.59 a 1.28,1.28 0 0 1 0,2.55 h -1.59 v 3.82 a 1.12,1.12 0 0 0 1.27,1.27 1.28,1.28 0 1 1 0,2.55 q -3.82,0 -3.82,-3.82 V 157 h -1.28 a 1.28,1.28 0 0 1 0,-2.55 z m 8.92,0 a 1.12,1.12 0 0 1 1.27,1.27 v 7.64 a 1.13,1.13 0 0 1 -1.28,1.28 1.12,1.12 0 0 1 -1.27,-1.27 v -7.68 a 1.11,1.11 0 0 1 1.27,-1.24 z m 0,-3.83 a 1.28,1.28 0 1 1 -1.27,1.28 1.13,1.13 0 0 1 1.22,-1.3 z m 3.82,6.4 a 2.25,2.25 0 0 1 2.55,-2.55 h 7.65 a 2.24,2.24 0 0 1 2.55,2.53 v 5.09 a 2.25,2.25 0 0 1 -2.55,2.55 h -7.63 a 2.27,2.27 0 0 1 -2.57,-2.55 z m 10.19,1.28 A 1.12,1.12 0 0 0 369,157 h -5.09 a 1.12,1.12 0 0 0 -1.27,1.25 v 2.58 a 1.11,1.11 0 0 0 1.27,1.24 H 369 a 1.14,1.14 0 0 0 1.29,-1.27 v -2.52 z m 5.11,-3.85 h 8.91 q 3.82,0 3.84,3.82 v 5.1 a 1.28,1.28 0 0 1 -2.55,0 v -5.1 A 1.12,1.12 0 0 0 384.39,157 H 378 v 6.37 a 1.27,1.27 0 1 1 -2.54,0 z m 34.42,3.82 A 1.13,1.13 0 0 0 408.6,157 h -6.37 a 1.28,1.28 0 1 1 0,-2.55 h 7.65 a 2.26,2.26 0 0 1 2.55,2.55 v 7.64 h -8.91 a 2.27,2.27 0 0 1 -2.57,-2.55 v -1.29 a 2.25,2.25 0 0 1 2.55,-2.55 z m -5.42,2.55 c -0.64,0 -1,0.21 -1,0.64 a 0.56,0.56 0 0 0 0.64,0.63 h 5.74 v -1.29 z m 10.52,-6.37 h 8.91 c 2.55,0 3.82,1.27 3.83,3.82 v 5.1 a 1.28,1.28 0 0 1 -2.55,0 v -5.1 A 1.12,1.12 0 0 0 423.91,157 h -6.37 v 6.37 a 1.27,1.27 0 0 1 -2.54,0 v -8.92 z M 440.41,157 H 434 a 1.11,1.11 0 0 0 -1.25,1.27 v 2.55 a 1.13,1.13 0 0 0 1.28,1.27 h 6.36 V 157 Z m -6.36,7.64 q -3.82,0 -3.83,-3.82 v -2.55 q 0,-3.83 3.81,-3.82 h 6.39 v -2.55 a 1.28,1.28 0 0 1 2.55,0 v 12.77 z m 24.22,-14 h 11.47 a 2.27,2.27 0 0 1 2.56,2.55 v 0.67 a 1.28,1.28 0 0 1 -2.55,0 0.57,0.57 0 0 0 -0.63,-0.65 h -9.57 a 1.13,1.13 0 0 0 -1.27,1.28 v 6.37 a 1.12,1.12 0 0 0 1.27,1.27 h 9.6 a 0.55,0.55 0 0 0 0.61,-0.62 1.11,1.11 0 0 1 1.26,-1.26 1.15,1.15 0 0 1 1.28,1.29 v 0.62 a 2.24,2.24 0 0 1 -2.52,2.55 h -11.5 a 2.25,2.25 0 0 1 -2.55,-2.55 v -8.92 a 2.25,2.25 0 0 1 2.55,-2.55 z m 16.57,6.4 a 2.25,2.25 0 0 1 2.55,-2.55 H 485 a 2.24,2.24 0 0 1 2.55,2.53 v 5.09 a 2.25,2.25 0 0 1 -2.55,2.55 h -7.6 a 2.26,2.26 0 0 1 -2.56,-2.55 z m 10.16,1.24 a 1.11,1.11 0 0 0 -1.27,-1.25 h -5.1 a 1.11,1.11 0 0 0 -1.26,1.25 v 2.58 a 1.1,1.1 0 0 0 1.26,1.24 h 5.1 a 1.13,1.13 0 0 0 1.27,-1.3 z m 12.76,-1.3 h -5.1 v 6.37 a 1.27,1.27 0 1 1 -2.53,0 v -8.92 h 14 q 3.83,0 3.83,3.82 v 5.1 a 1.12,1.12 0 0 1 -1.27,1.27 1.14,1.14 0 0 1 -1.29,-1.27 v -5.1 a 1.12,1.12 0 0 0 -1.26,-1.27 h -3.84 v 6.37 a 1.27,1.27 0 1 1 -2.54,0 V 157 Z m 15.31,5.09 h 6.39 a 1.11,1.11 0 0 0 1.25,-1.27 v -2.55 a 1.13,1.13 0 0 0 -1.28,-1.27 h -6.36 z m 6.36,-7.64 q 3.82,0 3.83,3.82 v 2.55 q 0,3.82 -3.82,3.82 h -6.38 v 2.55 a 1.27,1.27 0 0 1 -2.54,0 v -12.72 z m 8.92,6.37 a 1.13,1.13 0 0 0 1.28,1.27 H 536 a 1.28,1.28 0 0 1 0,2.55 h -7.67 a 2.26,2.26 0 0 1 -2.55,-2.55 V 157 a 2.25,2.25 0 0 1 2.55,-2.55 h 6.38 a 2.27,2.27 0 0 1 2.56,2.55 v 1.26 a 2.25,2.25 0 0 1 -2.55,2.55 z m 5.43,-2.55 q 1,0 1,-0.63 a 0.56,0.56 0 0 0 -0.64,-0.64 h -4.47 a 1.13,1.13 0 0 0 -1.28,1.27 z m 8.6,-3.82 v -2.58 a 1.27,1.27 0 0 1 2.54,0 v 2.57 h 1.6 a 1.28,1.28 0 0 1 0,2.55 h -1.6 v 3.82 a 1.13,1.13 0 0 0 1.28,1.27 1.28,1.28 0 0 1 0,2.55 q -3.83,0 -3.82,-3.82 V 157 h -1.28 a 1.28,1.28 0 0 1 0,-2.55 z m 8.92,0 a 1.12,1.12 0 0 1 1.27,1.27 v 7.64 a 1.13,1.13 0 0 1 -1.28,1.28 1.12,1.12 0 0 1 -1.27,-1.27 v -7.68 a 1.11,1.11 0 0 1 1.28,-1.24 z m 0,-3.83 a 1.28,1.28 0 1 1 -1.28,1.28 1.13,1.13 0 0 1 1.3,-1.28 z m 6.37,3.83 v -2.58 a 1.28,1.28 0 0 1 2.55,0 v 2.57 h 1.59 a 1.28,1.28 0 1 1 0,2.55 h -1.59 v 3.82 a 1.13,1.13 0 0 0 1.28,1.27 1.28,1.28 0 0 1 0,2.55 q -3.82,0 -3.83,-3.82 V 157 h -1.27 a 1.28,1.28 0 1 1 0,-2.55 z m 8.93,0 a 1.12,1.12 0 0 1 1.27,1.27 v 7.64 a 1.28,1.28 0 0 1 -2.55,0 v -7.68 a 1.11,1.11 0 0 1 1.28,-1.24 z m 0,-3.83 a 1.28,1.28 0 1 1 -1.28,1.28 1.13,1.13 0 0 1 1.3,-1.28 z m 3.82,6.4 a 2.25,2.25 0 0 1 2.55,-2.55 h 7.65 a 2.25,2.25 0 0 1 2.55,2.53 v 5.09 a 2.25,2.25 0 0 1 -2.55,2.55 H 573 a 2.26,2.26 0 0 1 -2.56,-2.55 z m 10.18,1.28 a 1.11,1.11 0 0 0 -1.27,-1.25 h -5.1 a 1.11,1.11 0 0 0 -1.26,1.25 v 2.58 a 1.1,1.1 0 0 0 1.26,1.24 h 5.1 a 1.14,1.14 0 0 0 1.29,-1.27 v -2.52 z m 5.12,-3.85 h 8.91 q 3.81,0 3.83,3.82 v 5.1 a 1.28,1.28 0 0 1 -2.55,0 v -5.1 a 1.12,1.12 0 0 0 -1.26,-1.27 h -6.38 v 6.37 a 1.27,1.27 0 1 1 -2.53,0 v -8.92 z"
       fill="#191919"
       id="path2303" /><path
       class="cls-5"
       transform="translate(-72.26,-35.01)"
       d="M 72.26,127.49 185.6,126 292.93,124.51 v 6 L 185.6,129 Z m 596.1,0 L 553.42,126 444.48,124.51 v 6 L 553.42,129 668.36,127.51 Z"
       fill="#191919"
       id="path2305" /><g
       class="cls-6"
       transform="translate(-4,-1.5016)"
       style="isolation:isolate"
       id="g2311"><g
         class="cls-7"
         style="font-weight:700;font-size:32.5px;font-family:Titillium-Semibold, Titillium;isolation:isolate;fill:#191919"
         id="text2309"
         transform="translate(233.79,102.88)"
         aria-label="Germany"><path
           id="path204"
           style="font-weight:normal;font-size:32px;font-family:Arial;text-align:center;text-anchor:middle"
           d="m 1.6773682,-11.109375 q 0,-5.359375 2.875,-8.296875 2.875,-2.9375 8.0781248,-2.9375 3.65625,0 5.9375,1.234375 2.28125,1.234375 3.515625,3.953125 l -2.84375,0.84375 q -0.9375,-1.875 -2.59375,-2.734375 -1.640625,-0.859375 -4.09375,-0.859375 -3.8124998,0 -5.8281248,2.3125 -2.015625,2.296875 -2.015625,6.484375 0,4.171875 2.140625,6.59375 2.140625,2.40625 5.9218748,2.40625 2.15625,0 4.015625,-0.65625 1.875,-0.65625 3.03125,-1.78125 v -3.96875 h -6.578125 v -2.5 h 9.328125 v 7.59375 q -1.75,1.78125 -4.296875,2.765625 -2.53125,0.96875 -5.5,0.96875 -3.4531248,0 -5.9531248,-1.375 -2.5,-1.375 -3.828125,-3.953125 -1.3125,-2.59375 -1.3125,-6.09375 z" /><path
           id="path206"
           style="font-weight:normal;font-size:32px;font-family:Arial;text-align:center;text-anchor:middle"
           d="m 29.271118,-7.859375 q 0,2.90625 1.203125,4.484375 1.203125,1.578125 3.515625,1.578125 1.828125,0 2.921875,-0.734375 1.109375,-0.734375 1.5,-1.859375 l 2.46875,0.703125 q -1.515625,4 -6.890625,4 -3.75,0 -5.71875,-2.234375 -1.953125,-2.234375 -1.953125,-6.640625 0,-4.1875 1.953125,-6.421875 1.96875,-2.234375 5.609375,-2.234375 7.453125,0 7.453125,8.984375 v 0.375 z m 9.15625,-2.15625 q -0.234375,-2.671875 -1.359375,-3.890625 -1.125,-1.234375 -3.234375,-1.234375 -2.046875,0 -3.25,1.375 -1.1875,1.359375 -1.28125,3.75 z" /><path
           id="path208"
           style="font-weight:normal;font-size:32px;font-family:Arial;text-align:center;text-anchor:middle"
           d="m 44.974243,0 v -12.96875 q 0,-1.78125 -0.09375,-3.9375 h 2.65625 q 0.125,2.875 0.125,3.453125 h 0.0625 q 0.671875,-2.171875 1.546875,-2.96875 0.875,-0.796875 2.46875,-0.796875 0.5625,0 1.140625,0.15625 v 2.578125 q -0.5625,-0.15625 -1.5,-0.15625 -1.75,0 -2.671875,1.515625 -0.921875,1.5 -0.921875,4.3125 V 0 Z" /><path
           id="path210"
           style="font-weight:normal;font-size:32px;font-family:Arial;text-align:center;text-anchor:middle"
           d="m 65.411743,0 v -10.71875 q 0,-2.453125 -0.671875,-3.390625 -0.671875,-0.9375 -2.421875,-0.9375 -1.796875,0 -2.84375,1.375 -1.046875,1.375 -1.046875,3.875 V 0 h -2.796875 v -13.296875 q 0,-2.953125 -0.09375,-3.609375 h 2.65625 q 0.01563,0.07813 0.03125,0.421875 0.01563,0.34375 0.03125,0.796875 0.03125,0.4375 0.0625,1.671875 h 0.04687 q 0.90625,-1.796875 2.078125,-2.5 1.171875,-0.703125 2.859375,-0.703125 1.921875,0 3.03125,0.765625 1.125,0.765625 1.5625,2.4375 h 0.04687 q 0.875,-1.703125 2.109375,-2.453125 1.25,-0.75 3.015625,-0.75 2.5625,0 3.71875,1.390625 1.171875,1.390625 1.171875,4.5625 V 0 h -2.78125 v -10.71875 q 0,-2.453125 -0.671875,-3.390625 -0.671875,-0.9375 -2.421875,-0.9375 -1.84375,0 -2.875,1.375 -1.015625,1.359375 -1.015625,3.875 V 0 Z" /><path
           id="path212"
           style="font-weight:normal;font-size:32px;font-family:Arial;text-align:center;text-anchor:middle"
           d="m 86.536743,0.3125 q -2.546875,0 -3.828125,-1.34375 -1.28125,-1.34375 -1.28125,-3.6875 0,-2.625 1.71875,-4.03125 1.734375,-1.40625 5.578125,-1.5 l 3.796875,-0.0625 v -0.921875 q 0,-2.0625 -0.875,-2.953125 -0.875,-0.890625 -2.75,-0.890625 -1.890625,0 -2.75,0.640625 -0.859375,0.640625 -1.03125,2.046875 l -2.9375,-0.265625 q 0.71875,-4.5625 6.78125,-4.5625 3.1875,0 4.796875,1.46875 1.609375,1.453125 1.609375,4.21875 V -4.25 q 0,1.25 0.328125,1.890625 0.328125,0.625 1.25,0.625 0.40625,0 0.921875,-0.109375 v 1.75 q -1.0625,0.25 -2.171875,0.25 -1.5625,0 -2.28125,-0.8125 -0.703125,-0.828125 -0.796875,-2.578125 h -0.09375 q -1.078125,1.9375 -2.515625,2.75 Q 88.583618,0.3125 86.536743,0.3125 Z m 0.640625,-2.109375 q 1.546875,0 2.75,-0.703125 1.203125,-0.703125 1.890625,-1.921875 0.703125,-1.234375 0.703125,-2.53125 V -8.34375 l -3.078125,0.0625 Q 87.458618,-8.25 86.427368,-7.875 q -1.015625,0.375 -1.5625,1.15625 -0.546875,0.78125 -0.546875,2.046875 0,1.375 0.734375,2.125 0.75,0.75 2.125,0.75 z" /><path
           id="path214"
           style="font-weight:normal;font-size:32px;font-family:Arial;text-align:center;text-anchor:middle"
           d="m 110.75549,0 v -10.71875 q 0,-1.671875 -0.32812,-2.59375 -0.32813,-0.921875 -1.04688,-1.328125 -0.71875,-0.40625 -2.10937,-0.40625 -2.03125,0 -3.20313,1.390625 -1.17187,1.390625 -1.17187,3.859375 V 0 h -2.8125 v -13.296875 q 0,-2.953125 -0.09375,-3.609375 h 2.65625 q 0.0156,0.07813 0.0312,0.421875 0.0156,0.34375 0.0312,0.796875 0.0312,0.4375 0.0625,1.671875 h 0.0469 q 0.96875,-1.75 2.23438,-2.46875 1.28125,-0.734375 3.17187,-0.734375 2.78125,0 4.0625,1.390625 1.29688,1.375 1.29688,4.5625 V 0 Z" /><path
           id="path216"
           style="font-weight:normal;font-size:32px;font-family:Arial;text-align:center;text-anchor:middle"
           d="m 118.64612,6.640625 q -1.15625,0 -1.9375,-0.171875 V 4.359375 q 0.59375,0.09375 1.3125,0.09375 2.625,0 4.15625,-3.859375 l 0.26562,-0.671875 -6.70312,-16.828125 h 3 l 3.5625,9.34375 q 0.0781,0.21875 0.1875,0.53125 0.10937,0.296875 0.70312,2.03125 0.59375,1.734375 0.64063,1.9375 l 1.09375,-3.078125 3.70312,-10.765625 h 2.96875 L 125.09924,0 q -1.04687,2.703125 -1.95312,4.015625 -0.90625,1.328125 -2.01563,1.96875 -1.09375,0.65625 -2.48437,0.65625 z" /></g></g></g></g><g
   transform="rotate(180,377.77091,248.65774)"
   id="g10246"><g
     id="g10154"><g
       id="g1100"
       transform="matrix(0,0.20804009,0.20804009,0,672.68172,68.473168)"><path
         d="M 0,0 H -97.311 V 251 H 0.012 Z"
         style="fill:#ffffff;fill-opacity:1;fill-rule:evenodd;stroke:none"
         id="path1102" /></g><g
       id="g1104"
       transform="matrix(0,0.20804009,0.20804009,0,672.68172,68.473168)"><path
         d="M 0,0 H -97.311 V 251 H 0.012 Z"
         style="fill:none;stroke:#231f20;stroke-width:4;stroke-linecap:butt;stroke-linejoin:miter;stroke-miterlimit:2.613;stroke-dasharray:none;stroke-opacity:1"
         id="path1106" /></g><g
       style="font-variant:normal;font-weight:900;font-stretch:normal;font-size:15.3924px;line-height:0%;font-family:'Arial Black';-inkscape-font-specification:Arial-Black;writing-mode:lr-tb;fill:#ffffff;fill-opacity:1;fill-rule:nonzero;stroke:none;stroke-width:0.163146"
       id="text1164"
       transform="scale(-0.78420675,-1.2751739)"
       aria-label="HOME"><path
         id="path219"
         style="stroke-width:0.163146"
         d="m -914.75207,-51.116795 h 3.40467 v 3.855616 h 3.72033 v -3.855616 h 3.4197 v 11.018193 h -3.4197 v -4.456882 h -3.72033 v 4.456882 h -3.40467 z" /><path
         id="path221"
         style="stroke-width:0.163146"
         d="m -902.3736,-45.600183 q 0,-2.698179 1.50316,-4.201343 1.50317,-1.503164 4.18632,-1.503164 2.75079,0 4.23892,1.480616 1.48813,1.473101 1.48813,4.133701 0,1.931566 -0.65387,3.171677 -0.64637,1.232594 -1.87896,1.92405 -1.22508,0.683939 -3.05894,0.683939 -1.86392,0 -3.089,-0.59375 -1.21756,-0.593749 -1.97666,-1.878955 -0.7591,-1.285205 -0.7591,-3.216771 z m 3.40467,0.01503 q 0,1.668512 0.61629,2.397547 0.62382,0.729034 1.69106,0.729034 1.09731,0 1.69858,-0.714003 0.60126,-0.714003 0.60126,-2.562894 0,-1.555775 -0.63132,-2.269778 -0.62382,-0.721519 -1.69858,-0.721519 -1.02967,0 -1.65348,0.729035 -0.62381,0.729034 -0.62381,2.412578 z" /><path
         id="path223"
         style="stroke-width:0.163146"
         d="m -889.16094,-51.116795 h 4.47943 l 1.72864,6.704112 1.72112,-6.704112 h 4.4644 v 11.018193 h -2.78085 v -8.402687 l -2.15704,8.402687 h -2.5178 l -2.14953,-8.402687 v 8.402687 h -2.78837 z" /><path
         id="path225"
         style="stroke-width:0.163146"
         d="m -874.60042,-51.116795 h 9.12421 v 2.352452 h -5.71203 v 1.751186 h 5.29866 v 2.24723 h -5.29866 v 2.172072 h 5.87738 v 2.495253 h -9.28956 z" /></g><g
       id="g1168"
       transform="matrix(0,0.20804009,0.20804009,0,717.35471,51.132693)"><path
         d="M 0,0 V -12.834 H 27.318 V -26.857 H 0 v -12.891 h 67.536 v 12.891 H 43.903 v 14.023 H 67.536 V 0 Z"
         style="fill:none;stroke:#231f20;stroke-width:0.216;stroke-linecap:butt;stroke-linejoin:miter;stroke-miterlimit:45;stroke-dasharray:none;stroke-opacity:1"
         id="path1170" /></g><g
       id="g1180"
       transform="matrix(0,0.20804009,0.20804009,0,707.05211,54.046232)"><path
         d="m 0,0 c -5.252,-1.907 -9.091,-4.396 -11.517,-7.465 -2.426,-3.069 -3.639,-6.946 -3.639,-11.63 0,-4.608 1.405,-8.457 4.215,-11.545 2.81,-3.088 6.741,-5.449 11.793,-7.082 5.052,-1.634 11.524,-2.451 19.418,-2.451 10.872,0 19.325,1.87 25.36,5.609 6.035,3.74 9.053,9.066 9.053,15.979 0,6.743 -3.072,12.003 -9.214,15.78 C 39.326,0.973 30.742,2.861 19.717,2.861 11.824,2.861 5.252,1.908 0,0 Z m 34.413,-12.324 c 2.978,-1.567 4.468,-3.645 4.468,-6.233 0,-2.7 -1.467,-4.839 -4.399,-6.417 -2.933,-1.577 -7.578,-2.365 -13.936,-2.365 -7.555,0 -12.791,0.755 -15.709,2.266 -2.918,1.511 -4.376,3.646 -4.376,6.403 0,2.682 1.489,4.802 4.468,6.36 2.979,1.559 7.878,2.338 14.696,2.338 6.879,0 11.808,-0.784 14.788,-2.352 z"
         style="fill:none;stroke:#231f20;stroke-width:0.216;stroke-linecap:butt;stroke-linejoin:miter;stroke-miterlimit:45;stroke-dasharray:none;stroke-opacity:1"
         id="path1182" /></g><g
       id="g1184"
       transform="matrix(0,0.20804009,0.20804009,0,697.28581,51.132693)"><path
         d="M 0,0 V -10.511 H 51.504 L 0,-18.594 v -9.514 l 51.504,-8.099 H 0 v -10.511 h 67.536 v 16.868 l -41.093,6.463 41.093,6.509 V 0 Z"
         style="fill:none;stroke:#231f20;stroke-width:0.216;stroke-linecap:butt;stroke-linejoin:miter;stroke-miterlimit:45;stroke-dasharray:none;stroke-opacity:1"
         id="path1186" /></g><g
       id="g1188"
       transform="matrix(0,0.20804009,0.20804009,0,685.86926,51.132693)"><path
         d="m 0,0 v -35.017 h 15.295 v 22.155 h 13.313 v -19.973 h 13.774 v 19.973 h 10.734 v -21.532 h 14.42 V 0 Z"
         style="fill:none;stroke:#231f20;stroke-width:0.216;stroke-linecap:butt;stroke-linejoin:miter;stroke-miterlimit:45;stroke-dasharray:none;stroke-opacity:1"
         id="path1190" /></g></g><g
     id="g10200"><g
       id="g1088"
       transform="matrix(0,0.20804009,0.20804009,0,79.295727,422.42483)"><path
         d="M 0,0 V -145.516 -291.029"
         style="fill:none;stroke:#000002;stroke-width:36;stroke-linecap:butt;stroke-linejoin:miter;stroke-miterlimit:10;stroke-dasharray:none;stroke-opacity:1"
         id="path1090" /></g><g
       id="g1160"
       transform="matrix(0,0.20804009,0.20804009,0,725.40871,75.128828)"><path
         d="M 0,0 V -255.893"
         style="fill:none;stroke:#000002;stroke-width:36;stroke-linecap:butt;stroke-linejoin:miter;stroke-miterlimit:10;stroke-dasharray:none;stroke-opacity:1"
         id="path1162" /></g></g><g
     id="g10191"><g
       id="g10138"><g
         transform="matrix(0,0.20804009,0.20804009,0,79.079149,449.08688)"
         id="g1092"><path
           id="path1094"
           style="fill:#ffffff;fill-opacity:1;fill-rule:evenodd;stroke:none"
           d="M 0,0 H -97.318 V -288 H -0.01 Z" /></g><g
         transform="matrix(0,0.20804009,0.20804009,0,79.079149,449.08688)"
         id="g1096"><path
           id="path1098"
           style="fill:none;stroke:#231f20;stroke-width:0.216;stroke-linecap:butt;stroke-linejoin:miter;stroke-miterlimit:45;stroke-dasharray:none;stroke-opacity:1"
           d="M 0,0 H -97.318 V -288 H -0.01 Z" /></g><g
         style="font-variant:normal;font-weight:900;font-stretch:normal;font-size:15.3924px;line-height:0%;font-family:'Arial Black';-inkscape-font-specification:Arial-Black;writing-mode:lr-tb;fill:#ffffff;fill-opacity:1;fill-rule:nonzero;stroke:none;stroke-width:0.163146"
         id="text1108"
         transform="scale(-0.78420675,-1.2751739)"
         aria-label="TOWER"><path
           id="path228"
           style="stroke-width:0.163146"
           d="m -92.877317,-349.48774 h 10.349285 v 2.72073 h -3.472309 v 8.29747 h -3.404667 v -8.29747 h -3.472309 z" /><path
           id="path230"
           style="stroke-width:0.163146"
           d="m -81.941616,-343.97112 q 0,-2.69818 1.503164,-4.20135 1.503165,-1.50316 4.186312,-1.50316 2.750791,0 4.238923,1.48062 1.488132,1.4731 1.488132,4.1337 0,1.93156 -0.653876,3.17167 -0.646361,1.2326 -1.878955,1.92405 -1.225079,0.68394 -3.058939,0.68394 -1.863923,0 -3.089002,-0.59375 -1.217563,-0.59375 -1.976661,-1.87895 -0.759098,-1.28521 -0.759098,-3.21677 z m 3.404667,0.015 q 0,1.66851 0.616297,2.39754 0.623813,0.72904 1.69106,0.72904 1.09731,0 1.698575,-0.714 0.601266,-0.71401 0.601266,-2.5629 0,-1.55577 -0.631329,-2.26978 -0.623813,-0.72152 -1.698575,-0.72152 -1.029668,0 -1.653481,0.72904 -0.623813,0.72903 -0.623813,2.41258 z" /><path
           id="path232"
           style="stroke-width:0.163146"
           d="m -70.089471,-349.48774 h 3.231803 l 1.164952,6.15546 1.698575,-6.15546 h 3.224287 l 1.706091,6.15546 1.164953,-6.15546 h 3.216771 l -2.42761,11.0182 h -3.337024 l -1.931566,-6.93711 -1.92405,6.93711 h -3.337024 z" /><path
           id="path234"
           style="stroke-width:0.163146"
           d="m -53.569649,-349.48774 h 9.124205 v 2.35246 h -5.712023 v 1.75118 h 5.298653 v 2.24723 h -5.298653 v 2.17207 h 5.877371 v 2.49526 h -9.289553 z" /><path
           id="path236"
           style="stroke-width:0.163146"
           d="m -42.403799,-338.46954 v -11.0182 h 5.674444 q 1.578322,0 2.412578,0.27057 0.834256,0.27057 1.345332,1.00712 0.511076,0.72904 0.511076,1.78125 0,0.91693 -0.390823,1.58584 -0.390822,0.66139 -1.074762,1.07476 -0.435918,0.26306 -1.195016,0.43592 0.608782,0.20293 0.886867,0.40586 0.187896,0.13528 0.541139,0.57871 0.36076,0.44344 0.481013,0.68394 l 1.645964,3.19423 h -3.848099 l -1.818829,-3.36709 q -0.345728,-0.65388 -0.616297,-0.84929 -0.368275,-0.25554 -0.834256,-0.25554 h -0.300633 v 4.47192 z m 3.419698,-6.5538 h 1.435522 q 0.23299,0 0.901898,-0.15032 0.338212,-0.0676 0.548655,-0.34572 0.217959,-0.27809 0.217959,-0.63885 0,-0.53362 -0.338212,-0.81922 -0.338212,-0.2856 -1.270174,-0.2856 h -1.495648 z" /></g><g
         transform="matrix(0,0.20804009,0.20804009,0,72.835,442.18823)"
         id="g1112"><path
           id="path1114"
           style="fill:none;stroke:#231f20;stroke-width:0.216;stroke-linecap:butt;stroke-linejoin:miter;stroke-miterlimit:45;stroke-dasharray:none;stroke-opacity:1"
           d="M 0,0 V -13.089 H -50.859 V -25.923 H 0 V -39.012 H 16.677 V 0 Z" /></g><g
         id="g1116"
         transform="matrix(0,0.20804009,0.20804009,0,-75.103953,23.622138)"><g
           clip-path="url(#clipPath1120)"
           id="g1118"><g
             transform="translate(1975.0952,667.0254)"
             id="g1124"><path
               id="path1126"
               style="fill:none;stroke:#231f20;stroke-width:0.216;stroke-linecap:butt;stroke-linejoin:miter;stroke-miterlimit:45;stroke-dasharray:none;stroke-opacity:1"
               d="m 0,0 c -5.252,-1.908 -9.091,-4.396 -11.517,-7.465 -2.427,-3.069 -3.64,-6.946 -3.64,-11.63 0,-4.608 1.406,-8.457 4.216,-11.545 2.81,-3.088 6.741,-5.449 11.793,-7.083 5.052,-1.633 11.524,-2.45 19.418,-2.45 10.872,0 19.325,1.87 25.36,5.609 6.035,3.74 9.053,9.066 9.053,15.979 0,6.743 -3.072,12.003 -9.214,15.78 C 39.326,0.973 30.742,2.861 19.717,2.861 11.823,2.861 5.251,1.908 0,0 Z m 34.413,-12.324 c 2.978,-1.568 4.468,-3.645 4.468,-6.233 0,-2.7 -1.467,-4.839 -4.4,-6.417 -2.933,-1.576 -7.578,-2.365 -13.935,-2.365 -7.555,0 -12.792,0.756 -15.709,2.266 -2.918,1.511 -4.377,3.645 -4.377,6.403 0,2.682 1.49,4.802 4.469,6.36 2.979,1.559 7.878,2.337 14.696,2.337 6.879,0 11.808,-0.783 14.788,-2.351 z" /></g><g
             transform="translate(1961.0903,615.9683)"
             id="g1128"><path
               id="path1130"
               style="fill:none;stroke:#231f20;stroke-width:0.216;stroke-linecap:butt;stroke-linejoin:miter;stroke-miterlimit:45;stroke-dasharray:none;stroke-opacity:1"
               d="M 0,0 V -12.585 L 42.521,-19.841 0,-27.126 v -12.585 l 67.536,-9.155 v 12.126 l -37.758,4.394 37.758,6.439 v 12.146 L 29.728,-7.338 67.536,-2.95 V 9.24 Z" /></g><g
             transform="translate(1961.0903,562.9375)"
             id="g1132"><path
               id="path1134"
               style="fill:none;stroke:#231f20;stroke-width:0.216;stroke-linecap:butt;stroke-linejoin:miter;stroke-miterlimit:45;stroke-dasharray:none;stroke-opacity:1"
               d="m 0,0 v -35.017 h 15.294 v 22.155 h 13.314 v -19.973 h 13.774 v 19.973 h 10.734 v -21.532 h 14.42 V 0 Z" /></g><g
             transform="translate(1961.0903,507.9473)"
             id="g1136"><path
               id="path1138"
               style="fill:none;stroke:#231f20;stroke-width:0.216;stroke-linecap:butt;stroke-linejoin:miter;stroke-miterlimit:45;stroke-dasharray:none;stroke-opacity:1"
               d="m 0,0 h 27.411 v -1.133 c 0,-1.171 -0.523,-2.22 -1.567,-3.145 -0.799,-0.68 -2.533,-1.454 -5.205,-2.323 L 0,-13.461 v -14.501 l 19.569,6.214 c 0.984,0.302 2.382,0.902 4.196,1.798 1.814,0.897 2.998,1.581 3.551,2.053 0.83,0.698 1.659,1.812 2.49,3.341 0.706,-1.909 1.596,-3.412 2.672,-4.507 1.689,-1.72 3.893,-3.071 6.611,-4.054 2.718,-0.983 5.95,-1.474 9.697,-1.474 4.299,0 7.946,0.642 10.941,1.926 2.995,1.285 5.044,2.975 6.15,5.071 1.106,2.097 1.659,5.128 1.659,9.094 V 12.891 H 0 Z m 53.899,0 v -5.638 c 0,-2.341 -0.583,-3.938 -1.75,-4.788 -1.168,-0.85 -2.841,-1.275 -5.022,-1.275 -1.474,0 -2.779,0.269 -3.915,0.808 -1.137,0.538 -1.843,1.232 -2.119,2.082 -0.615,1.681 -0.922,2.814 -0.922,3.4 V 0 Z" /></g></g></g></g><path
       d="m 19.006692,449.06904 v -20.21183 h 60.425816 v 20.21432 z"
       style="fill:none;stroke:#231f20;stroke-width:0.894451;stroke-linecap:butt;stroke-linejoin:miter;stroke-miterlimit:2.613;stroke-dasharray:none;stroke-opacity:1"
       id="path1106-9" /></g><g
     id="g4833"
     transform="matrix(0,0.16682993,-0.16682993,0,822.53401,23.009344)"><path
       sodipodi:nodetypes="csccssccc"
       id="path1194-5-3"
       style="fill:none;stroke:#000000;stroke-width:26.5748;stroke-linecap:butt;stroke-linejoin:miter;stroke-miterlimit:4;stroke-dasharray:none;stroke-opacity:1"
       d="m 403.9957,3098.3514 c -12.9664,-787.3347 -9.405,-795.1826 -9.405,-1093.4176 0,-298.2325 241.7874,-543.45 539.9999,-540 178.8725,2.0675 301.7625,92.4724 301.7625,92.4724 84.2925,54.4238 347.049,177.6237 542.8537,137.2175 239.5494,-49.4334 457.3851,-311.1293 380.4519,-599.2706 -70.503,-264.05832 -262.4223,-360.60816 -685.0845,-360.60817 -383.1259,3.52039 -458.6063,6.7091 -808.4924,5.54767 l -335.2124,0.3363" /><path
       style="fill:none;stroke:#000000;stroke-width:26.5748;stroke-linecap:butt;stroke-linejoin:miter;stroke-miterlimit:4;stroke-dasharray:none;stroke-opacity:1"
       d="m 2152.5271,3921.0175 c -4.1483,-199.6863 -2.8413,-428.3128 -2.8413,-726.5478 0,-298.2325 -241.7662,-540 -540,-540 -109.2975,0 -211.0125,32.4738 -296.0212,88.2963 l -9.6513,5.9612 c -83.4812,52.8913 -182.465,83.5113 -288.6038,83.5113 l -268.5075,-0.8913 -335.2124,0.3363"
       id="path1358-6-5-6" /><path
       style="fill:none;stroke:#000000;stroke-width:26.5748;stroke-linecap:butt;stroke-linejoin:miter;stroke-miterlimit:4;stroke-dasharray:none;stroke-opacity:1"
       d="m 2374.7738,4649.5465 c -1077.4269,-18.0555 -1073.1038,-19.4339 -1368.4209,-13.73 -298.2325,0 -540,-241.7662 -540,-540.0012 0,-298.2325 241.7875,-543.45 540,-540 178.8751,2.0675 1145.0819,5.4662 1145.0819,5.4662"
       id="path1358-6-7-6-7" /></g></g></svg>
